%FSLAX24Y24*%
%MOIN*%
G70*
G01*
G75*
G04 Layer_Color=16711935*
%ADD10C,0.0120*%
%ADD11C,0.0200*%
%ADD12C,0.0150*%
%ADD13R,0.0394X0.0374*%
%ADD14O,0.0866X0.0236*%
%ADD15O,0.0236X0.0807*%
%ADD16O,0.0807X0.0236*%
%ADD17O,0.0551X0.0177*%
G04:AMPARAMS|DCode=18|XSize=83mil|YSize=55mil|CornerRadius=13.8mil|HoleSize=0mil|Usage=FLASHONLY|Rotation=180.000|XOffset=0mil|YOffset=0mil|HoleType=Round|Shape=RoundedRectangle|*
%AMROUNDEDRECTD18*
21,1,0.0830,0.0275,0,0,180.0*
21,1,0.0555,0.0550,0,0,180.0*
1,1,0.0275,-0.0278,0.0138*
1,1,0.0275,0.0278,0.0138*
1,1,0.0275,0.0278,-0.0138*
1,1,0.0275,-0.0278,-0.0138*
%
%ADD18ROUNDEDRECTD18*%
%ADD19R,0.0394X0.0394*%
%ADD20R,0.1496X0.0984*%
%ADD21R,0.0551X0.0197*%
%ADD22R,0.0374X0.0394*%
%ADD23R,0.0433X0.0236*%
G04:AMPARAMS|DCode=24|XSize=94.5mil|YSize=59.1mil|CornerRadius=14.8mil|HoleSize=0mil|Usage=FLASHONLY|Rotation=0.000|XOffset=0mil|YOffset=0mil|HoleType=Round|Shape=RoundedRectangle|*
%AMROUNDEDRECTD24*
21,1,0.0945,0.0295,0,0,0.0*
21,1,0.0650,0.0591,0,0,0.0*
1,1,0.0295,0.0325,-0.0148*
1,1,0.0295,-0.0325,-0.0148*
1,1,0.0295,-0.0325,0.0148*
1,1,0.0295,0.0325,0.0148*
%
%ADD24ROUNDEDRECTD24*%
%ADD25R,0.0512X0.0276*%
%ADD26R,0.0394X0.0394*%
%ADD27R,0.0472X0.0768*%
%ADD28R,0.0591X0.0591*%
%ADD29C,0.0591*%
%ADD30R,0.0591X0.0591*%
%ADD31C,0.0500*%
%ADD32R,0.0472X0.0866*%
%ADD33R,0.0472X0.1260*%
%ADD34R,0.1339X0.0591*%
%ADD35R,0.1378X0.0394*%
%ADD36R,0.0787X0.0571*%
%ADD37R,0.0591X0.0315*%
%ADD38C,0.0236*%
%ADD39C,0.0098*%
%ADD40C,0.0100*%
%ADD41C,0.0039*%
%ADD42C,0.0010*%
%ADD43C,0.0079*%
%ADD44R,0.0474X0.0454*%
%ADD45O,0.0946X0.0316*%
%ADD46O,0.0316X0.0887*%
%ADD47O,0.0887X0.0316*%
%ADD48O,0.0631X0.0257*%
G04:AMPARAMS|DCode=49|XSize=91mil|YSize=63mil|CornerRadius=17.8mil|HoleSize=0mil|Usage=FLASHONLY|Rotation=180.000|XOffset=0mil|YOffset=0mil|HoleType=Round|Shape=RoundedRectangle|*
%AMROUNDEDRECTD49*
21,1,0.0910,0.0275,0,0,180.0*
21,1,0.0555,0.0630,0,0,180.0*
1,1,0.0355,-0.0278,0.0138*
1,1,0.0355,0.0278,0.0138*
1,1,0.0355,0.0278,-0.0138*
1,1,0.0355,-0.0278,-0.0138*
%
%ADD49ROUNDEDRECTD49*%
%ADD50R,0.0474X0.0474*%
%ADD51R,0.1576X0.1064*%
%ADD52R,0.0631X0.0277*%
%ADD53R,0.0454X0.0474*%
%ADD54R,0.0513X0.0316*%
G04:AMPARAMS|DCode=55|XSize=102.5mil|YSize=67.1mil|CornerRadius=18.8mil|HoleSize=0mil|Usage=FLASHONLY|Rotation=0.000|XOffset=0mil|YOffset=0mil|HoleType=Round|Shape=RoundedRectangle|*
%AMROUNDEDRECTD55*
21,1,0.1025,0.0295,0,0,0.0*
21,1,0.0650,0.0671,0,0,0.0*
1,1,0.0375,0.0325,-0.0148*
1,1,0.0375,-0.0325,-0.0148*
1,1,0.0375,-0.0325,0.0148*
1,1,0.0375,0.0325,0.0148*
%
%ADD55ROUNDEDRECTD55*%
%ADD56R,0.0592X0.0356*%
%ADD57R,0.0474X0.0474*%
%ADD58R,0.0552X0.0848*%
%ADD59R,0.0671X0.0671*%
%ADD60C,0.0671*%
%ADD61R,0.0671X0.0671*%
%ADD62R,0.0552X0.0946*%
%ADD63R,0.0552X0.1340*%
%ADD64R,0.1419X0.0671*%
%ADD65R,0.1458X0.0474*%
%ADD66R,0.0867X0.0651*%
%ADD67R,0.0671X0.0395*%
D44*
X3615Y9650D02*
D03*
X2985D02*
D03*
D50*
X7100Y2225D02*
D03*
Y2875D02*
D03*
D53*
X6400Y2165D02*
D03*
Y1535D02*
D03*
X3700Y6365D02*
D03*
Y5735D02*
D03*
X7600Y11265D02*
D03*
Y10635D02*
D03*
D57*
X6275Y10650D02*
D03*
X6925D02*
D03*
X4325Y8950D02*
D03*
X3675D02*
D03*
D59*
X3300Y14350D02*
D03*
D60*
Y13350D02*
D03*
X2300Y14350D02*
D03*
Y13350D02*
D03*
X1300Y14350D02*
D03*
Y13350D02*
D03*
X14000Y7350D02*
D03*
X13000D02*
D03*
X14000Y8350D02*
D03*
D61*
X13000D02*
D03*
D62*
X4399Y1650D02*
D03*
D63*
X1801D02*
D03*
D64*
X11700Y13450D02*
D03*
Y10812D02*
D03*
D65*
X13865Y12525D02*
D03*
Y11737D02*
D03*
D66*
X6600Y9863D02*
D03*
Y4450D02*
D03*
X9868D02*
D03*
Y9863D02*
D03*
D67*
X7624Y5385D02*
D03*
Y5818D02*
D03*
Y6251D02*
D03*
Y6684D02*
D03*
Y7117D02*
D03*
Y7550D02*
D03*
Y7983D02*
D03*
Y8417D02*
D03*
M02*
