%FSLAX24Y24*%
%MOIN*%
G70*
G01*
G75*
G04 Layer_Color=65535*
%ADD10C,0.0150*%
%ADD11C,0.0200*%
%ADD12C,0.0120*%
%ADD13R,0.0394X0.0394*%
%ADD14R,0.0472X0.0768*%
%ADD15R,0.0374X0.0394*%
%ADD16R,0.0394X0.0394*%
%ADD17R,0.0512X0.0276*%
G04:AMPARAMS|DCode=18|XSize=94.5mil|YSize=59.1mil|CornerRadius=14.8mil|HoleSize=0mil|Usage=FLASHONLY|Rotation=0.000|XOffset=0mil|YOffset=0mil|HoleType=Round|Shape=RoundedRectangle|*
%AMROUNDEDRECTD18*
21,1,0.0945,0.0295,0,0,0.0*
21,1,0.0650,0.0591,0,0,0.0*
1,1,0.0295,0.0325,-0.0148*
1,1,0.0295,-0.0325,-0.0148*
1,1,0.0295,-0.0325,0.0148*
1,1,0.0295,0.0325,0.0148*
%
%ADD18ROUNDEDRECTD18*%
%ADD19R,0.0433X0.0236*%
%ADD20R,0.0394X0.0374*%
%ADD21R,0.0551X0.0197*%
%ADD22R,0.1496X0.0984*%
G04:AMPARAMS|DCode=23|XSize=83mil|YSize=55mil|CornerRadius=13.8mil|HoleSize=0mil|Usage=FLASHONLY|Rotation=180.000|XOffset=0mil|YOffset=0mil|HoleType=Round|Shape=RoundedRectangle|*
%AMROUNDEDRECTD23*
21,1,0.0830,0.0275,0,0,180.0*
21,1,0.0555,0.0550,0,0,180.0*
1,1,0.0275,-0.0278,0.0138*
1,1,0.0275,0.0278,0.0138*
1,1,0.0275,0.0278,-0.0138*
1,1,0.0275,-0.0278,-0.0138*
%
%ADD23ROUNDEDRECTD23*%
%ADD24O,0.0551X0.0177*%
%ADD25O,0.0807X0.0236*%
%ADD26O,0.0236X0.0807*%
%ADD27O,0.0866X0.0236*%
%ADD28R,0.0591X0.0591*%
%ADD29C,0.0591*%
%ADD30R,0.0591X0.0591*%
%ADD31C,0.0500*%
%ADD32R,0.0591X0.0315*%
%ADD33R,0.0787X0.0571*%
%ADD34R,0.1378X0.0394*%
%ADD35R,0.1339X0.0591*%
%ADD36R,0.0472X0.1260*%
%ADD37R,0.0472X0.0866*%
%ADD38C,0.0039*%
%ADD39C,0.0098*%
%ADD40C,0.0100*%
%ADD41C,0.0236*%
%ADD42C,0.0079*%
%ADD43C,0.0010*%
G36*
X14017Y8950D02*
X13915D01*
X13800Y9254D01*
X13898D01*
X13967Y9035D01*
X14035Y9254D01*
X14130D01*
X14017Y8950D01*
D02*
G37*
G36*
X12449Y9259D02*
X12454D01*
X12460Y9258D01*
X12466Y9258D01*
X12473Y9257D01*
X12487Y9254D01*
X12502Y9250D01*
X12516Y9245D01*
X12522Y9241D01*
X12528Y9237D01*
X12529D01*
X12529Y9236D01*
X12533Y9233D01*
X12538Y9228D01*
X12545Y9220D01*
X12551Y9211D01*
X12557Y9199D01*
X12560Y9192D01*
X12561Y9185D01*
X12564Y9177D01*
X12565Y9168D01*
X12477Y9164D01*
Y9165D01*
X12476Y9167D01*
X12475Y9171D01*
X12474Y9175D01*
X12471Y9180D01*
X12469Y9185D01*
X12466Y9189D01*
X12461Y9193D01*
X12461Y9194D01*
X12460Y9195D01*
X12457Y9196D01*
X12453Y9198D01*
X12449Y9200D01*
X12444Y9202D01*
X12437Y9202D01*
X12430Y9203D01*
X12428D01*
X12425Y9202D01*
X12422D01*
X12413Y9200D01*
X12410Y9198D01*
X12406Y9196D01*
X12406Y9195D01*
X12405Y9195D01*
X12402Y9191D01*
X12399Y9186D01*
X12399Y9182D01*
X12398Y9179D01*
Y9178D01*
Y9178D01*
X12399Y9174D01*
X12401Y9170D01*
X12402Y9168D01*
X12405Y9165D01*
X12405D01*
X12406Y9164D01*
X12408Y9163D01*
X12411Y9162D01*
X12415Y9160D01*
X12421Y9158D01*
X12428Y9156D01*
X12436Y9154D01*
X12436D01*
X12439Y9154D01*
X12442Y9153D01*
X12446Y9152D01*
X12451Y9151D01*
X12457Y9149D01*
X12463Y9148D01*
X12470Y9146D01*
X12484Y9142D01*
X12499Y9137D01*
X12512Y9133D01*
X12518Y9130D01*
X12523Y9127D01*
X12524D01*
X12525Y9127D01*
X12528Y9125D01*
X12533Y9122D01*
X12539Y9118D01*
X12545Y9113D01*
X12552Y9107D01*
X12557Y9101D01*
X12563Y9093D01*
X12563Y9092D01*
X12564Y9090D01*
X12567Y9086D01*
X12569Y9080D01*
X12571Y9074D01*
X12573Y9066D01*
X12574Y9058D01*
X12575Y9049D01*
Y9048D01*
Y9048D01*
Y9046D01*
Y9044D01*
X12574Y9038D01*
X12573Y9031D01*
X12571Y9023D01*
X12568Y9014D01*
X12564Y9004D01*
X12559Y8994D01*
X12558Y8993D01*
X12556Y8990D01*
X12552Y8986D01*
X12547Y8980D01*
X12540Y8975D01*
X12532Y8968D01*
X12523Y8962D01*
X12513Y8957D01*
X12512D01*
X12512Y8956D01*
X12510Y8956D01*
X12508Y8955D01*
X12505Y8954D01*
X12502Y8953D01*
X12493Y8951D01*
X12483Y8949D01*
X12470Y8946D01*
X12456Y8945D01*
X12440Y8945D01*
X12433D01*
X12428Y8945D01*
X12422Y8946D01*
X12415Y8946D01*
X12406Y8947D01*
X12398Y8948D01*
X12380Y8952D01*
X12363Y8957D01*
X12354Y8961D01*
X12347Y8965D01*
X12339Y8969D01*
X12333Y8974D01*
X12333Y8975D01*
X12332Y8975D01*
X12330Y8977D01*
X12329Y8979D01*
X12326Y8982D01*
X12324Y8986D01*
X12318Y8994D01*
X12312Y9006D01*
X12306Y9018D01*
X12302Y9034D01*
X12301Y9042D01*
X12300Y9050D01*
X12390Y9056D01*
Y9055D01*
X12390Y9052D01*
X12391Y9048D01*
X12392Y9044D01*
X12395Y9032D01*
X12398Y9027D01*
X12401Y9023D01*
X12402Y9022D01*
X12404Y9020D01*
X12407Y9017D01*
X12412Y9014D01*
X12418Y9010D01*
X12425Y9007D01*
X12433Y9005D01*
X12442Y9004D01*
X12446D01*
X12449Y9005D01*
X12453Y9006D01*
X12459Y9007D01*
X12463Y9008D01*
X12468Y9011D01*
X12473Y9014D01*
X12473Y9014D01*
X12474Y9016D01*
X12476Y9017D01*
X12478Y9020D01*
X12482Y9027D01*
X12483Y9031D01*
X12484Y9035D01*
Y9036D01*
Y9037D01*
X12483Y9040D01*
X12483Y9042D01*
X12481Y9046D01*
X12479Y9049D01*
X12477Y9053D01*
X12473Y9056D01*
X12473Y9057D01*
X12471Y9058D01*
X12468Y9060D01*
X12463Y9062D01*
X12457Y9065D01*
X12449Y9068D01*
X12438Y9071D01*
X12432Y9072D01*
X12425Y9074D01*
X12425D01*
X12422Y9075D01*
X12419Y9076D01*
X12415Y9076D01*
X12410Y9078D01*
X12404Y9080D01*
X12398Y9082D01*
X12391Y9084D01*
X12377Y9089D01*
X12362Y9096D01*
X12349Y9103D01*
X12343Y9107D01*
X12337Y9111D01*
X12336Y9113D01*
X12333Y9116D01*
X12329Y9121D01*
X12325Y9127D01*
X12319Y9136D01*
X12315Y9146D01*
X12312Y9157D01*
X12312Y9164D01*
X12311Y9170D01*
Y9171D01*
Y9174D01*
X12312Y9179D01*
X12313Y9185D01*
X12315Y9191D01*
X12317Y9199D01*
X12320Y9206D01*
X12325Y9214D01*
X12325Y9216D01*
X12327Y9218D01*
X12330Y9221D01*
X12335Y9227D01*
X12340Y9232D01*
X12347Y9237D01*
X12356Y9243D01*
X12365Y9247D01*
X12366D01*
X12366Y9248D01*
X12368Y9248D01*
X12370Y9249D01*
X12373Y9250D01*
X12376Y9251D01*
X12385Y9254D01*
X12395Y9255D01*
X12408Y9258D01*
X12423Y9259D01*
X12440Y9259D01*
X12446D01*
X12449Y9259D01*
D02*
G37*
G36*
X14643D02*
X14648D01*
X14654Y9258D01*
X14660Y9258D01*
X14667Y9257D01*
X14681Y9254D01*
X14696Y9250D01*
X14711Y9244D01*
X14718Y9240D01*
X14724Y9236D01*
X14725D01*
X14725Y9235D01*
X14727Y9234D01*
X14730Y9232D01*
X14735Y9226D01*
X14743Y9219D01*
X14751Y9209D01*
X14759Y9196D01*
X14766Y9182D01*
X14773Y9165D01*
X14690Y9147D01*
Y9147D01*
X14690Y9149D01*
X14689Y9151D01*
X14687Y9154D01*
X14685Y9161D01*
X14683Y9164D01*
X14681Y9166D01*
X14680Y9167D01*
X14680Y9168D01*
X14678Y9171D01*
X14676Y9173D01*
X14669Y9178D01*
X14661Y9183D01*
X14661D01*
X14659Y9185D01*
X14657Y9185D01*
X14654Y9186D01*
X14650Y9188D01*
X14646Y9188D01*
X14636Y9189D01*
X14633D01*
X14631Y9189D01*
X14625Y9188D01*
X14618Y9186D01*
X14610Y9183D01*
X14602Y9178D01*
X14594Y9172D01*
X14591Y9168D01*
X14587Y9164D01*
X14587Y9162D01*
X14586Y9160D01*
X14583Y9155D01*
X14581Y9149D01*
X14579Y9140D01*
X14576Y9130D01*
X14575Y9118D01*
X14575Y9103D01*
Y9103D01*
Y9101D01*
Y9099D01*
Y9095D01*
X14575Y9091D01*
Y9086D01*
X14576Y9076D01*
X14578Y9064D01*
X14581Y9053D01*
X14584Y9042D01*
X14587Y9038D01*
X14590Y9034D01*
X14590Y9034D01*
X14593Y9031D01*
X14596Y9028D01*
X14601Y9025D01*
X14607Y9021D01*
X14614Y9018D01*
X14623Y9016D01*
X14633Y9016D01*
X14638D01*
X14642Y9016D01*
X14648Y9017D01*
X14655Y9019D01*
X14662Y9022D01*
X14668Y9025D01*
X14673Y9030D01*
X14674Y9031D01*
X14676Y9033D01*
X14678Y9037D01*
X14681Y9041D01*
X14685Y9048D01*
X14688Y9055D01*
X14691Y9064D01*
X14694Y9075D01*
X14776Y9049D01*
Y9049D01*
X14776Y9048D01*
X14775Y9046D01*
X14775Y9044D01*
X14773Y9037D01*
X14770Y9030D01*
X14766Y9020D01*
X14761Y9010D01*
X14756Y9001D01*
X14749Y8992D01*
X14749Y8990D01*
X14747Y8987D01*
X14742Y8983D01*
X14737Y8979D01*
X14731Y8973D01*
X14724Y8967D01*
X14715Y8961D01*
X14706Y8956D01*
X14704Y8956D01*
X14701Y8955D01*
X14695Y8953D01*
X14687Y8951D01*
X14677Y8948D01*
X14666Y8946D01*
X14653Y8945D01*
X14638Y8945D01*
X14630D01*
X14626Y8945D01*
X14621D01*
X14610Y8946D01*
X14597Y8948D01*
X14583Y8951D01*
X14570Y8954D01*
X14557Y8959D01*
X14556D01*
X14556Y8959D01*
X14554Y8961D01*
X14552Y8962D01*
X14546Y8965D01*
X14539Y8970D01*
X14530Y8978D01*
X14521Y8986D01*
X14512Y8997D01*
X14503Y9010D01*
Y9010D01*
X14502Y9011D01*
X14501Y9013D01*
X14500Y9016D01*
X14498Y9020D01*
X14496Y9024D01*
X14494Y9029D01*
X14492Y9035D01*
X14490Y9041D01*
X14487Y9048D01*
X14486Y9056D01*
X14484Y9064D01*
X14482Y9082D01*
X14480Y9103D01*
Y9103D01*
Y9106D01*
Y9110D01*
X14481Y9115D01*
X14482Y9121D01*
X14483Y9128D01*
X14484Y9137D01*
X14486Y9145D01*
X14490Y9164D01*
X14493Y9174D01*
X14497Y9183D01*
X14502Y9193D01*
X14507Y9202D01*
X14513Y9210D01*
X14520Y9219D01*
X14521Y9219D01*
X14522Y9220D01*
X14524Y9222D01*
X14528Y9225D01*
X14532Y9228D01*
X14537Y9231D01*
X14543Y9235D01*
X14549Y9239D01*
X14557Y9243D01*
X14566Y9247D01*
X14575Y9250D01*
X14585Y9253D01*
X14596Y9256D01*
X14608Y9258D01*
X14620Y9259D01*
X14634Y9259D01*
X14639D01*
X14643Y9259D01*
D02*
G37*
G36*
X14312D02*
X14318D01*
X14323Y9258D01*
X14329Y9258D01*
X14336Y9257D01*
X14350Y9254D01*
X14366Y9250D01*
X14380Y9244D01*
X14387Y9240D01*
X14394Y9236D01*
X14394D01*
X14395Y9235D01*
X14397Y9234D01*
X14399Y9232D01*
X14405Y9226D01*
X14412Y9219D01*
X14420Y9209D01*
X14428Y9196D01*
X14436Y9182D01*
X14443Y9165D01*
X14360Y9147D01*
Y9147D01*
X14359Y9149D01*
X14358Y9151D01*
X14357Y9154D01*
X14354Y9161D01*
X14352Y9164D01*
X14350Y9166D01*
X14350Y9167D01*
X14349Y9168D01*
X14348Y9171D01*
X14345Y9173D01*
X14339Y9178D01*
X14331Y9183D01*
X14330D01*
X14329Y9185D01*
X14326Y9185D01*
X14324Y9186D01*
X14319Y9188D01*
X14315Y9188D01*
X14305Y9189D01*
X14303D01*
X14300Y9189D01*
X14294Y9188D01*
X14287Y9186D01*
X14280Y9183D01*
X14272Y9178D01*
X14264Y9172D01*
X14260Y9168D01*
X14257Y9164D01*
X14256Y9162D01*
X14255Y9160D01*
X14253Y9155D01*
X14250Y9149D01*
X14248Y9140D01*
X14246Y9130D01*
X14245Y9118D01*
X14244Y9103D01*
Y9103D01*
Y9101D01*
Y9099D01*
Y9095D01*
X14245Y9091D01*
Y9086D01*
X14246Y9076D01*
X14248Y9064D01*
X14250Y9053D01*
X14254Y9042D01*
X14256Y9038D01*
X14259Y9034D01*
X14260Y9034D01*
X14262Y9031D01*
X14266Y9028D01*
X14270Y9025D01*
X14277Y9021D01*
X14284Y9018D01*
X14293Y9016D01*
X14303Y9016D01*
X14307D01*
X14312Y9016D01*
X14318Y9017D01*
X14324Y9019D01*
X14331Y9022D01*
X14337Y9025D01*
X14343Y9030D01*
X14343Y9031D01*
X14345Y9033D01*
X14348Y9037D01*
X14350Y9041D01*
X14354Y9048D01*
X14358Y9055D01*
X14360Y9064D01*
X14363Y9075D01*
X14446Y9049D01*
Y9049D01*
X14445Y9048D01*
X14445Y9046D01*
X14444Y9044D01*
X14442Y9037D01*
X14439Y9030D01*
X14435Y9020D01*
X14431Y9010D01*
X14425Y9001D01*
X14419Y8992D01*
X14418Y8990D01*
X14416Y8987D01*
X14412Y8983D01*
X14407Y8979D01*
X14401Y8973D01*
X14393Y8967D01*
X14384Y8961D01*
X14375Y8956D01*
X14374Y8956D01*
X14370Y8955D01*
X14365Y8953D01*
X14357Y8951D01*
X14347Y8948D01*
X14336Y8946D01*
X14322Y8945D01*
X14308Y8945D01*
X14300D01*
X14296Y8945D01*
X14290D01*
X14279Y8946D01*
X14266Y8948D01*
X14253Y8951D01*
X14239Y8954D01*
X14226Y8959D01*
X14226D01*
X14225Y8959D01*
X14224Y8961D01*
X14221Y8962D01*
X14215Y8965D01*
X14208Y8970D01*
X14200Y8978D01*
X14191Y8986D01*
X14181Y8997D01*
X14173Y9010D01*
Y9010D01*
X14171Y9011D01*
X14170Y9013D01*
X14169Y9016D01*
X14167Y9020D01*
X14166Y9024D01*
X14163Y9029D01*
X14162Y9035D01*
X14159Y9041D01*
X14157Y9048D01*
X14155Y9056D01*
X14153Y9064D01*
X14151Y9082D01*
X14150Y9103D01*
Y9103D01*
Y9106D01*
Y9110D01*
X14150Y9115D01*
X14151Y9121D01*
X14152Y9128D01*
X14153Y9137D01*
X14155Y9145D01*
X14160Y9164D01*
X14163Y9174D01*
X14167Y9183D01*
X14171Y9193D01*
X14177Y9202D01*
X14183Y9210D01*
X14190Y9219D01*
X14190Y9219D01*
X14191Y9220D01*
X14194Y9222D01*
X14197Y9225D01*
X14201Y9228D01*
X14206Y9231D01*
X14212Y9235D01*
X14219Y9239D01*
X14226Y9243D01*
X14235Y9247D01*
X14245Y9250D01*
X14255Y9253D01*
X14266Y9256D01*
X14277Y9258D01*
X14290Y9259D01*
X14303Y9259D01*
X14309D01*
X14312Y9259D01*
D02*
G37*
G36*
X13253Y8950D02*
X13154D01*
X13139Y9000D01*
X13033D01*
X13017Y8950D01*
X12922D01*
X13036Y9254D01*
X13139D01*
X13253Y8950D01*
D02*
G37*
G36*
X4600Y14950D02*
X4515D01*
Y15152D01*
X4514Y15152D01*
X4512Y15150D01*
X4507Y15147D01*
X4502Y15143D01*
X4496Y15139D01*
X4489Y15135D01*
X4475Y15127D01*
X4474Y15126D01*
X4471Y15125D01*
X4467Y15123D01*
X4461Y15121D01*
X4454Y15118D01*
X4446Y15115D01*
X4437Y15112D01*
X4426Y15109D01*
Y15178D01*
X4427D01*
X4428Y15178D01*
X4430Y15179D01*
X4433Y15180D01*
X4437Y15181D01*
X4441Y15183D01*
X4451Y15187D01*
X4461Y15192D01*
X4472Y15197D01*
X4483Y15203D01*
X4493Y15210D01*
X4494Y15211D01*
X4497Y15214D01*
X4501Y15218D01*
X4506Y15224D01*
X4513Y15231D01*
X4519Y15240D01*
X4525Y15249D01*
X4530Y15259D01*
X4600D01*
Y14950D01*
D02*
G37*
G36*
X3912Y15254D02*
X3917D01*
X3926Y15253D01*
X3936Y15251D01*
X3948Y15250D01*
X3959Y15247D01*
X3969Y15243D01*
X3969D01*
X3970Y15242D01*
X3973Y15241D01*
X3977Y15238D01*
X3984Y15234D01*
X3990Y15230D01*
X3997Y15224D01*
X4004Y15218D01*
X4011Y15210D01*
X4011Y15209D01*
X4014Y15207D01*
X4017Y15202D01*
X4020Y15197D01*
X4024Y15189D01*
X4028Y15181D01*
X4032Y15172D01*
X4035Y15162D01*
Y15161D01*
X4036Y15161D01*
X4036Y15157D01*
X4038Y15151D01*
X4039Y15144D01*
X4041Y15135D01*
X4042Y15125D01*
X4042Y15114D01*
X4043Y15103D01*
Y15102D01*
Y15100D01*
Y15098D01*
Y15094D01*
X4042Y15090D01*
Y15086D01*
X4042Y15075D01*
X4040Y15063D01*
X4038Y15051D01*
X4035Y15038D01*
X4032Y15027D01*
X4031Y15026D01*
X4030Y15023D01*
X4027Y15018D01*
X4024Y15011D01*
X4020Y15004D01*
X4014Y14997D01*
X4008Y14989D01*
X4001Y14982D01*
X4000Y14982D01*
X3997Y14979D01*
X3993Y14976D01*
X3988Y14972D01*
X3981Y14968D01*
X3974Y14965D01*
X3966Y14961D01*
X3958Y14958D01*
X3957D01*
X3957Y14958D01*
X3955D01*
X3953Y14957D01*
X3947Y14956D01*
X3939Y14954D01*
X3931Y14952D01*
X3921Y14951D01*
X3912Y14951D01*
X3902Y14950D01*
X3763D01*
Y15254D01*
X3909D01*
X3912Y15254D01*
D02*
G37*
G36*
X12773Y9254D02*
X12777D01*
X12787Y9253D01*
X12797Y9251D01*
X12808Y9250D01*
X12819Y9247D01*
X12829Y9243D01*
X12830D01*
X12831Y9242D01*
X12834Y9241D01*
X12838Y9238D01*
X12845Y9234D01*
X12851Y9230D01*
X12858Y9224D01*
X12865Y9218D01*
X12872Y9210D01*
X12872Y9209D01*
X12874Y9207D01*
X12877Y9202D01*
X12881Y9197D01*
X12885Y9189D01*
X12889Y9181D01*
X12893Y9172D01*
X12896Y9162D01*
Y9161D01*
X12897Y9161D01*
X12897Y9157D01*
X12898Y9151D01*
X12900Y9144D01*
X12901Y9135D01*
X12903Y9125D01*
X12903Y9114D01*
X12904Y9103D01*
Y9102D01*
Y9100D01*
Y9098D01*
Y9094D01*
X12903Y9090D01*
Y9086D01*
X12903Y9075D01*
X12901Y9063D01*
X12899Y9051D01*
X12896Y9038D01*
X12893Y9027D01*
X12892Y9026D01*
X12891Y9023D01*
X12888Y9018D01*
X12884Y9011D01*
X12880Y9004D01*
X12875Y8997D01*
X12869Y8989D01*
X12862Y8982D01*
X12860Y8982D01*
X12858Y8979D01*
X12854Y8976D01*
X12849Y8972D01*
X12842Y8968D01*
X12835Y8965D01*
X12827Y8961D01*
X12819Y8958D01*
X12818D01*
X12818Y8958D01*
X12816D01*
X12814Y8957D01*
X12808Y8956D01*
X12800Y8954D01*
X12791Y8952D01*
X12782Y8951D01*
X12773Y8951D01*
X12763Y8950D01*
X12624D01*
Y9254D01*
X12770D01*
X12773Y9254D01*
D02*
G37*
G36*
X4244Y15259D02*
X4249D01*
X4254Y15258D01*
X4261Y15258D01*
X4268Y15257D01*
X4282Y15254D01*
X4297Y15250D01*
X4311Y15244D01*
X4318Y15240D01*
X4325Y15236D01*
X4325D01*
X4326Y15235D01*
X4328Y15234D01*
X4330Y15232D01*
X4336Y15226D01*
X4344Y15219D01*
X4351Y15209D01*
X4359Y15196D01*
X4367Y15182D01*
X4374Y15165D01*
X4291Y15147D01*
Y15147D01*
X4290Y15149D01*
X4289Y15151D01*
X4288Y15154D01*
X4285Y15161D01*
X4283Y15164D01*
X4282Y15166D01*
X4281Y15167D01*
X4280Y15168D01*
X4279Y15171D01*
X4276Y15173D01*
X4270Y15178D01*
X4262Y15183D01*
X4261D01*
X4260Y15185D01*
X4258Y15185D01*
X4255Y15186D01*
X4251Y15188D01*
X4246Y15188D01*
X4237Y15189D01*
X4234D01*
X4231Y15189D01*
X4225Y15188D01*
X4218Y15186D01*
X4211Y15183D01*
X4203Y15178D01*
X4195Y15172D01*
X4192Y15168D01*
X4188Y15164D01*
X4187Y15162D01*
X4186Y15160D01*
X4184Y15155D01*
X4182Y15149D01*
X4179Y15140D01*
X4177Y15130D01*
X4176Y15118D01*
X4175Y15103D01*
Y15103D01*
Y15101D01*
Y15099D01*
Y15095D01*
X4176Y15091D01*
Y15086D01*
X4177Y15076D01*
X4179Y15064D01*
X4182Y15053D01*
X4185Y15042D01*
X4187Y15038D01*
X4190Y15034D01*
X4191Y15034D01*
X4193Y15031D01*
X4197Y15028D01*
X4201Y15025D01*
X4208Y15021D01*
X4215Y15018D01*
X4224Y15016D01*
X4234Y15016D01*
X4238D01*
X4243Y15016D01*
X4249Y15017D01*
X4255Y15019D01*
X4262Y15022D01*
X4268Y15025D01*
X4274Y15030D01*
X4275Y15031D01*
X4276Y15033D01*
X4279Y15037D01*
X4282Y15041D01*
X4285Y15048D01*
X4289Y15055D01*
X4292Y15064D01*
X4294Y15075D01*
X4377Y15049D01*
Y15049D01*
X4376Y15048D01*
X4376Y15046D01*
X4375Y15044D01*
X4373Y15037D01*
X4371Y15030D01*
X4366Y15020D01*
X4362Y15010D01*
X4356Y15001D01*
X4350Y14992D01*
X4349Y14990D01*
X4347Y14987D01*
X4343Y14983D01*
X4338Y14979D01*
X4332Y14973D01*
X4324Y14967D01*
X4316Y14961D01*
X4306Y14956D01*
X4305Y14956D01*
X4301Y14955D01*
X4296Y14953D01*
X4288Y14951D01*
X4278Y14948D01*
X4267Y14946D01*
X4254Y14945D01*
X4239Y14945D01*
X4231D01*
X4227Y14945D01*
X4221D01*
X4210Y14946D01*
X4197Y14948D01*
X4184Y14951D01*
X4170Y14954D01*
X4158Y14959D01*
X4157D01*
X4156Y14959D01*
X4155Y14961D01*
X4152Y14962D01*
X4146Y14965D01*
X4139Y14970D01*
X4131Y14977D01*
X4122Y14986D01*
X4113Y14997D01*
X4104Y15010D01*
Y15010D01*
X4103Y15011D01*
X4101Y15013D01*
X4100Y15016D01*
X4098Y15020D01*
X4097Y15024D01*
X4094Y15029D01*
X4093Y15035D01*
X4090Y15041D01*
X4088Y15048D01*
X4086Y15056D01*
X4084Y15064D01*
X4082Y15082D01*
X4081Y15103D01*
Y15103D01*
Y15106D01*
Y15110D01*
X4082Y15115D01*
X4082Y15121D01*
X4083Y15128D01*
X4084Y15137D01*
X4086Y15145D01*
X4091Y15164D01*
X4094Y15174D01*
X4098Y15183D01*
X4103Y15193D01*
X4108Y15202D01*
X4114Y15210D01*
X4121Y15219D01*
X4121Y15219D01*
X4122Y15220D01*
X4125Y15222D01*
X4128Y15225D01*
X4132Y15228D01*
X4137Y15231D01*
X4144Y15235D01*
X4150Y15239D01*
X4158Y15243D01*
X4166Y15247D01*
X4176Y15250D01*
X4186Y15253D01*
X4197Y15256D01*
X4208Y15258D01*
X4221Y15259D01*
X4234Y15259D01*
X4240D01*
X4244Y15259D01*
D02*
G37*
G36*
X14670Y6654D02*
X14675D01*
X14684Y6653D01*
X14694Y6651D01*
X14706Y6650D01*
X14717Y6647D01*
X14727Y6643D01*
X14727D01*
X14728Y6642D01*
X14731Y6641D01*
X14735Y6638D01*
X14742Y6634D01*
X14748Y6630D01*
X14755Y6624D01*
X14762Y6618D01*
X14769Y6610D01*
X14769Y6609D01*
X14772Y6607D01*
X14775Y6602D01*
X14778Y6597D01*
X14782Y6589D01*
X14786Y6581D01*
X14790Y6572D01*
X14793Y6562D01*
Y6561D01*
X14794Y6561D01*
X14794Y6557D01*
X14796Y6551D01*
X14797Y6544D01*
X14799Y6535D01*
X14800Y6525D01*
X14800Y6514D01*
X14801Y6503D01*
Y6502D01*
Y6500D01*
Y6498D01*
Y6494D01*
X14800Y6490D01*
Y6486D01*
X14800Y6475D01*
X14798Y6463D01*
X14796Y6451D01*
X14793Y6438D01*
X14790Y6427D01*
X14789Y6426D01*
X14788Y6423D01*
X14785Y6418D01*
X14782Y6411D01*
X14778Y6404D01*
X14772Y6397D01*
X14766Y6389D01*
X14759Y6382D01*
X14758Y6382D01*
X14755Y6379D01*
X14751Y6376D01*
X14746Y6372D01*
X14740Y6368D01*
X14732Y6365D01*
X14724Y6361D01*
X14716Y6358D01*
X14716D01*
X14715Y6358D01*
X14713D01*
X14711Y6357D01*
X14705Y6356D01*
X14697Y6354D01*
X14689Y6352D01*
X14679Y6351D01*
X14670Y6351D01*
X14660Y6350D01*
X14521D01*
Y6654D01*
X14667D01*
X14670Y6654D01*
D02*
G37*
G36*
X7924Y15025D02*
X7931Y15024D01*
X7937Y15023D01*
X7944Y15022D01*
X7951Y15019D01*
X7958Y15016D01*
X7958Y15016D01*
X7961Y15015D01*
X7964Y15012D01*
X7968Y15009D01*
X7973Y15005D01*
X7978Y15001D01*
X7984Y14994D01*
X7989Y14987D01*
Y15020D01*
X8068D01*
Y14812D01*
Y14802D01*
Y14801D01*
Y14798D01*
X8068Y14795D01*
X8067Y14789D01*
X8066Y14784D01*
X8065Y14777D01*
X8062Y14770D01*
X8059Y14763D01*
X8059Y14763D01*
X8058Y14760D01*
X8056Y14757D01*
X8053Y14753D01*
X8050Y14747D01*
X8046Y14743D01*
X8041Y14737D01*
X8036Y14733D01*
X8035Y14732D01*
X8034Y14731D01*
X8030Y14729D01*
X8026Y14726D01*
X8020Y14723D01*
X8014Y14720D01*
X8007Y14718D01*
X7999Y14716D01*
X7997D01*
X7995Y14715D01*
X7990Y14714D01*
X7984Y14713D01*
X7976Y14712D01*
X7968Y14711D01*
X7958Y14711D01*
X7941D01*
X7937Y14711D01*
X7931D01*
X7925Y14712D01*
X7918Y14712D01*
X7911Y14713D01*
X7896Y14715D01*
X7881Y14719D01*
X7874Y14721D01*
X7868Y14724D01*
X7862Y14727D01*
X7856Y14730D01*
X7855Y14732D01*
X7852Y14734D01*
X7849Y14739D01*
X7844Y14744D01*
X7840Y14752D01*
X7836Y14761D01*
X7833Y14772D01*
X7832Y14784D01*
Y14784D01*
Y14787D01*
Y14790D01*
Y14795D01*
X7914Y14785D01*
Y14785D01*
X7915Y14784D01*
X7916Y14782D01*
X7917Y14780D01*
X7920Y14774D01*
X7921Y14772D01*
X7924Y14770D01*
X7924D01*
X7926Y14769D01*
X7927Y14768D01*
X7930Y14767D01*
X7934Y14765D01*
X7938Y14764D01*
X7942Y14764D01*
X7947Y14763D01*
X7950D01*
X7954Y14764D01*
X7957Y14764D01*
X7962Y14765D01*
X7966Y14767D01*
X7971Y14770D01*
X7974Y14773D01*
X7975Y14774D01*
X7976Y14775D01*
X7977Y14778D01*
X7979Y14781D01*
X7980Y14785D01*
X7982Y14791D01*
X7983Y14798D01*
X7983Y14806D01*
Y14840D01*
X7983Y14839D01*
X7981Y14837D01*
X7979Y14835D01*
X7975Y14832D01*
X7968Y14825D01*
X7963Y14822D01*
X7958Y14819D01*
X7958Y14818D01*
X7955Y14817D01*
X7951Y14816D01*
X7946Y14814D01*
X7940Y14812D01*
X7933Y14811D01*
X7924Y14809D01*
X7916Y14809D01*
X7912D01*
X7909Y14809D01*
X7905Y14810D01*
X7901Y14811D01*
X7891Y14813D01*
X7879Y14818D01*
X7873Y14821D01*
X7868Y14825D01*
X7862Y14829D01*
X7856Y14835D01*
X7850Y14840D01*
X7845Y14847D01*
Y14847D01*
X7844Y14848D01*
X7843Y14850D01*
X7842Y14852D01*
X7841Y14854D01*
X7839Y14858D01*
X7835Y14866D01*
X7832Y14877D01*
X7829Y14889D01*
X7827Y14904D01*
X7826Y14919D01*
Y14920D01*
Y14922D01*
Y14924D01*
X7827Y14928D01*
Y14932D01*
X7827Y14937D01*
X7829Y14949D01*
X7832Y14961D01*
X7837Y14974D01*
X7842Y14987D01*
X7851Y14998D01*
X7851Y14998D01*
X7852Y14999D01*
X7855Y15002D01*
X7861Y15007D01*
X7868Y15012D01*
X7878Y15016D01*
X7889Y15021D01*
X7901Y15024D01*
X7908Y15025D01*
X7920D01*
X7924Y15025D01*
D02*
G37*
G36*
X7641D02*
X7648Y15024D01*
X7654Y15023D01*
X7661Y15022D01*
X7668Y15019D01*
X7675Y15016D01*
X7675Y15016D01*
X7677Y15015D01*
X7681Y15012D01*
X7685Y15009D01*
X7690Y15005D01*
X7695Y15001D01*
X7701Y14994D01*
X7706Y14987D01*
Y15020D01*
X7785D01*
Y14812D01*
Y14802D01*
Y14801D01*
Y14798D01*
X7785Y14795D01*
X7784Y14789D01*
X7783Y14784D01*
X7782Y14777D01*
X7779Y14770D01*
X7776Y14763D01*
X7776Y14763D01*
X7775Y14760D01*
X7773Y14757D01*
X7770Y14753D01*
X7767Y14747D01*
X7763Y14743D01*
X7758Y14737D01*
X7753Y14733D01*
X7752Y14732D01*
X7751Y14731D01*
X7747Y14729D01*
X7743Y14726D01*
X7737Y14723D01*
X7731Y14720D01*
X7724Y14718D01*
X7715Y14716D01*
X7714D01*
X7711Y14715D01*
X7707Y14714D01*
X7701Y14713D01*
X7693Y14712D01*
X7684Y14711D01*
X7675Y14711D01*
X7658D01*
X7653Y14711D01*
X7648D01*
X7642Y14712D01*
X7635Y14712D01*
X7628Y14713D01*
X7613Y14715D01*
X7598Y14719D01*
X7591Y14721D01*
X7584Y14724D01*
X7579Y14727D01*
X7573Y14730D01*
X7572Y14732D01*
X7569Y14734D01*
X7566Y14739D01*
X7561Y14744D01*
X7556Y14752D01*
X7553Y14761D01*
X7550Y14772D01*
X7549Y14784D01*
Y14784D01*
Y14787D01*
Y14790D01*
Y14795D01*
X7631Y14785D01*
Y14785D01*
X7632Y14784D01*
X7632Y14782D01*
X7634Y14780D01*
X7637Y14774D01*
X7638Y14772D01*
X7641Y14770D01*
X7641D01*
X7642Y14769D01*
X7644Y14768D01*
X7647Y14767D01*
X7651Y14765D01*
X7655Y14764D01*
X7659Y14764D01*
X7664Y14763D01*
X7667D01*
X7670Y14764D01*
X7674Y14764D01*
X7679Y14765D01*
X7683Y14767D01*
X7687Y14770D01*
X7691Y14773D01*
X7692Y14774D01*
X7693Y14775D01*
X7694Y14778D01*
X7696Y14781D01*
X7697Y14785D01*
X7699Y14791D01*
X7700Y14798D01*
X7700Y14806D01*
Y14840D01*
X7700Y14839D01*
X7698Y14837D01*
X7696Y14835D01*
X7692Y14832D01*
X7684Y14825D01*
X7680Y14822D01*
X7675Y14819D01*
X7675Y14818D01*
X7672Y14817D01*
X7668Y14816D01*
X7663Y14814D01*
X7656Y14812D01*
X7649Y14811D01*
X7641Y14809D01*
X7633Y14809D01*
X7629D01*
X7626Y14809D01*
X7622Y14810D01*
X7618Y14811D01*
X7608Y14813D01*
X7596Y14818D01*
X7590Y14821D01*
X7584Y14825D01*
X7579Y14829D01*
X7573Y14835D01*
X7567Y14840D01*
X7562Y14847D01*
Y14847D01*
X7561Y14848D01*
X7560Y14850D01*
X7559Y14852D01*
X7558Y14854D01*
X7556Y14858D01*
X7552Y14866D01*
X7549Y14877D01*
X7546Y14889D01*
X7544Y14904D01*
X7543Y14919D01*
Y14920D01*
Y14922D01*
Y14924D01*
X7544Y14928D01*
Y14932D01*
X7544Y14937D01*
X7546Y14949D01*
X7549Y14961D01*
X7553Y14974D01*
X7559Y14987D01*
X7567Y14998D01*
X7568Y14998D01*
X7569Y14999D01*
X7572Y15002D01*
X7577Y15007D01*
X7585Y15012D01*
X7594Y15016D01*
X7606Y15021D01*
X7618Y15024D01*
X7625Y15025D01*
X7637D01*
X7641Y15025D01*
D02*
G37*
G36*
X7396D02*
X7401Y15024D01*
X7408Y15023D01*
X7415Y15022D01*
X7422Y15021D01*
X7438Y15016D01*
X7447Y15013D01*
X7455Y15009D01*
X7463Y15005D01*
X7471Y14999D01*
X7479Y14994D01*
X7485Y14987D01*
X7486Y14986D01*
X7486Y14985D01*
X7487Y14984D01*
X7489Y14981D01*
X7491Y14978D01*
X7494Y14974D01*
X7499Y14966D01*
X7504Y14954D01*
X7508Y14942D01*
X7511Y14927D01*
X7513Y14919D01*
Y14911D01*
Y14910D01*
Y14908D01*
Y14906D01*
X7512Y14902D01*
X7511Y14898D01*
X7511Y14893D01*
X7510Y14887D01*
X7508Y14881D01*
X7504Y14868D01*
X7501Y14861D01*
X7498Y14854D01*
X7494Y14847D01*
X7490Y14840D01*
X7484Y14833D01*
X7479Y14827D01*
X7478Y14826D01*
X7477Y14826D01*
X7475Y14824D01*
X7472Y14822D01*
X7469Y14819D01*
X7465Y14817D01*
X7460Y14814D01*
X7454Y14811D01*
X7448Y14808D01*
X7441Y14805D01*
X7434Y14802D01*
X7425Y14800D01*
X7416Y14798D01*
X7407Y14796D01*
X7396Y14795D01*
X7386Y14795D01*
X7380D01*
X7377Y14795D01*
X7372D01*
X7367Y14796D01*
X7361Y14797D01*
X7355Y14798D01*
X7341Y14801D01*
X7327Y14806D01*
X7312Y14813D01*
X7306Y14817D01*
X7300Y14822D01*
X7299Y14822D01*
X7298Y14823D01*
X7296Y14825D01*
X7293Y14827D01*
X7290Y14831D01*
X7287Y14835D01*
X7283Y14840D01*
X7280Y14845D01*
X7276Y14851D01*
X7273Y14857D01*
X7269Y14865D01*
X7266Y14873D01*
X7263Y14881D01*
X7262Y14890D01*
X7260Y14899D01*
X7260Y14909D01*
Y14909D01*
Y14911D01*
Y14913D01*
X7260Y14918D01*
X7261Y14922D01*
X7262Y14927D01*
X7263Y14932D01*
X7264Y14939D01*
X7268Y14952D01*
X7271Y14959D01*
X7274Y14966D01*
X7278Y14973D01*
X7283Y14980D01*
X7288Y14986D01*
X7294Y14992D01*
X7294Y14993D01*
X7295Y14994D01*
X7297Y14995D01*
X7300Y14998D01*
X7303Y15000D01*
X7308Y15003D01*
X7312Y15006D01*
X7318Y15009D01*
X7324Y15012D01*
X7331Y15015D01*
X7338Y15018D01*
X7346Y15020D01*
X7355Y15022D01*
X7364Y15024D01*
X7374Y15025D01*
X7385Y15025D01*
X7391D01*
X7396Y15025D01*
D02*
G37*
G36*
X6759Y15020D02*
X6805D01*
Y14958D01*
X6759D01*
Y14880D01*
Y14879D01*
Y14877D01*
Y14875D01*
X6760Y14872D01*
X6760Y14866D01*
X6761Y14863D01*
X6761Y14861D01*
X6762Y14860D01*
X6765Y14858D01*
X6770Y14856D01*
X6772Y14855D01*
X6776Y14854D01*
X6778D01*
X6780Y14855D01*
X6783D01*
X6787Y14856D01*
X6791Y14857D01*
X6796Y14858D01*
X6802Y14860D01*
X6809Y14801D01*
X6808D01*
X6806Y14801D01*
X6803Y14800D01*
X6797Y14799D01*
X6789Y14798D01*
X6781Y14797D01*
X6771Y14796D01*
X6760Y14795D01*
X6750Y14795D01*
X6744D01*
X6739Y14795D01*
X6732Y14796D01*
X6725Y14796D01*
X6717Y14798D01*
X6709Y14800D01*
X6703Y14802D01*
X6702Y14803D01*
X6701Y14804D01*
X6698Y14806D01*
X6695Y14809D01*
X6691Y14812D01*
X6688Y14816D01*
X6684Y14821D01*
X6681Y14827D01*
Y14827D01*
X6680Y14830D01*
X6679Y14834D01*
X6678Y14840D01*
X6677Y14847D01*
X6675Y14856D01*
X6675Y14867D01*
X6674Y14880D01*
Y14958D01*
X6643D01*
Y15020D01*
X6674D01*
Y15060D01*
X6759Y15104D01*
Y15020D01*
D02*
G37*
G36*
X12549Y6659D02*
X12554D01*
X12560Y6658D01*
X12566Y6658D01*
X12573Y6657D01*
X12587Y6654D01*
X12602Y6650D01*
X12616Y6645D01*
X12622Y6641D01*
X12628Y6637D01*
X12629D01*
X12629Y6636D01*
X12633Y6633D01*
X12638Y6628D01*
X12645Y6620D01*
X12651Y6611D01*
X12657Y6599D01*
X12660Y6592D01*
X12661Y6585D01*
X12664Y6577D01*
X12665Y6568D01*
X12577Y6564D01*
Y6565D01*
X12576Y6567D01*
X12575Y6571D01*
X12574Y6575D01*
X12571Y6580D01*
X12569Y6585D01*
X12566Y6589D01*
X12561Y6593D01*
X12561Y6594D01*
X12560Y6595D01*
X12557Y6596D01*
X12553Y6598D01*
X12549Y6600D01*
X12544Y6602D01*
X12537Y6602D01*
X12530Y6603D01*
X12528D01*
X12525Y6602D01*
X12522D01*
X12513Y6600D01*
X12510Y6598D01*
X12506Y6596D01*
X12506Y6595D01*
X12505Y6595D01*
X12502Y6591D01*
X12499Y6586D01*
X12499Y6582D01*
X12498Y6579D01*
Y6578D01*
Y6578D01*
X12499Y6574D01*
X12501Y6570D01*
X12502Y6568D01*
X12505Y6565D01*
X12505D01*
X12506Y6564D01*
X12508Y6563D01*
X12511Y6562D01*
X12515Y6560D01*
X12521Y6558D01*
X12528Y6556D01*
X12536Y6554D01*
X12536D01*
X12539Y6554D01*
X12542Y6553D01*
X12546Y6552D01*
X12551Y6551D01*
X12557Y6549D01*
X12563Y6548D01*
X12570Y6546D01*
X12584Y6542D01*
X12599Y6537D01*
X12612Y6533D01*
X12618Y6530D01*
X12623Y6527D01*
X12624D01*
X12625Y6527D01*
X12628Y6525D01*
X12633Y6522D01*
X12639Y6518D01*
X12645Y6513D01*
X12652Y6507D01*
X12657Y6501D01*
X12663Y6493D01*
X12663Y6492D01*
X12664Y6490D01*
X12667Y6486D01*
X12669Y6480D01*
X12671Y6474D01*
X12673Y6466D01*
X12674Y6458D01*
X12675Y6449D01*
Y6448D01*
Y6448D01*
Y6446D01*
Y6444D01*
X12674Y6438D01*
X12673Y6431D01*
X12671Y6423D01*
X12668Y6414D01*
X12664Y6404D01*
X12659Y6394D01*
X12658Y6393D01*
X12656Y6390D01*
X12652Y6386D01*
X12647Y6380D01*
X12640Y6375D01*
X12632Y6368D01*
X12623Y6362D01*
X12613Y6357D01*
X12612D01*
X12612Y6356D01*
X12610Y6356D01*
X12608Y6355D01*
X12605Y6354D01*
X12602Y6353D01*
X12593Y6351D01*
X12583Y6349D01*
X12570Y6346D01*
X12556Y6345D01*
X12540Y6345D01*
X12533D01*
X12528Y6345D01*
X12522Y6346D01*
X12515Y6346D01*
X12506Y6347D01*
X12498Y6348D01*
X12480Y6352D01*
X12463Y6357D01*
X12454Y6361D01*
X12447Y6365D01*
X12439Y6369D01*
X12433Y6374D01*
X12433Y6375D01*
X12432Y6375D01*
X12430Y6377D01*
X12429Y6379D01*
X12426Y6382D01*
X12424Y6386D01*
X12418Y6394D01*
X12412Y6406D01*
X12406Y6418D01*
X12402Y6434D01*
X12401Y6442D01*
X12400Y6450D01*
X12490Y6456D01*
Y6455D01*
X12490Y6452D01*
X12491Y6448D01*
X12492Y6444D01*
X12495Y6432D01*
X12498Y6427D01*
X12501Y6423D01*
X12502Y6422D01*
X12504Y6420D01*
X12507Y6417D01*
X12512Y6414D01*
X12518Y6410D01*
X12525Y6407D01*
X12533Y6405D01*
X12542Y6404D01*
X12546D01*
X12549Y6405D01*
X12553Y6406D01*
X12559Y6407D01*
X12563Y6409D01*
X12568Y6411D01*
X12573Y6414D01*
X12573Y6414D01*
X12574Y6416D01*
X12576Y6417D01*
X12578Y6420D01*
X12582Y6427D01*
X12583Y6431D01*
X12584Y6435D01*
Y6436D01*
Y6437D01*
X12583Y6440D01*
X12583Y6442D01*
X12581Y6446D01*
X12579Y6449D01*
X12577Y6453D01*
X12573Y6456D01*
X12573Y6457D01*
X12571Y6458D01*
X12568Y6460D01*
X12563Y6462D01*
X12557Y6465D01*
X12549Y6468D01*
X12538Y6471D01*
X12532Y6472D01*
X12525Y6474D01*
X12525D01*
X12522Y6475D01*
X12519Y6476D01*
X12515Y6476D01*
X12510Y6478D01*
X12504Y6480D01*
X12498Y6482D01*
X12491Y6484D01*
X12477Y6489D01*
X12462Y6496D01*
X12449Y6503D01*
X12443Y6507D01*
X12437Y6511D01*
X12436Y6513D01*
X12433Y6516D01*
X12429Y6521D01*
X12425Y6527D01*
X12419Y6536D01*
X12415Y6546D01*
X12412Y6557D01*
X12412Y6564D01*
X12411Y6570D01*
Y6571D01*
Y6574D01*
X12412Y6579D01*
X12413Y6585D01*
X12415Y6591D01*
X12417Y6599D01*
X12420Y6606D01*
X12425Y6614D01*
X12425Y6616D01*
X12427Y6618D01*
X12430Y6621D01*
X12435Y6627D01*
X12440Y6632D01*
X12447Y6637D01*
X12456Y6643D01*
X12465Y6647D01*
X12466D01*
X12466Y6648D01*
X12468Y6648D01*
X12470Y6649D01*
X12473Y6650D01*
X12476Y6651D01*
X12485Y6654D01*
X12495Y6655D01*
X12508Y6658D01*
X12523Y6659D01*
X12540Y6659D01*
X12546D01*
X12549Y6659D01*
D02*
G37*
G36*
X13981D02*
X13992Y6658D01*
X14004Y6657D01*
X14017Y6655D01*
X14029Y6653D01*
X14034Y6652D01*
X14039Y6650D01*
X14040D01*
X14040Y6650D01*
X14043Y6648D01*
X14048Y6646D01*
X14054Y6643D01*
X14060Y6639D01*
X14067Y6634D01*
X14074Y6628D01*
X14081Y6621D01*
X14081Y6621D01*
X14084Y6618D01*
X14087Y6614D01*
X14090Y6609D01*
X14094Y6602D01*
X14098Y6593D01*
X14102Y6583D01*
X14106Y6573D01*
X14015Y6557D01*
Y6558D01*
X14014Y6560D01*
X14013Y6563D01*
X14011Y6567D01*
X14008Y6571D01*
X14005Y6575D01*
X14001Y6580D01*
X13996Y6583D01*
X13995Y6584D01*
X13994Y6585D01*
X13991Y6586D01*
X13987Y6588D01*
X13982Y6590D01*
X13975Y6592D01*
X13969Y6592D01*
X13961Y6593D01*
X13959D01*
X13956Y6592D01*
X13951Y6592D01*
X13944Y6590D01*
X13936Y6588D01*
X13928Y6583D01*
X13920Y6578D01*
X13912Y6571D01*
X13912Y6570D01*
X13909Y6567D01*
X13906Y6562D01*
X13904Y6555D01*
X13900Y6545D01*
X13897Y6533D01*
X13895Y6519D01*
X13894Y6511D01*
Y6503D01*
Y6502D01*
Y6500D01*
Y6498D01*
X13895Y6494D01*
Y6490D01*
X13895Y6486D01*
X13897Y6476D01*
X13899Y6464D01*
X13902Y6452D01*
X13906Y6442D01*
X13909Y6437D01*
X13912Y6432D01*
X13913Y6431D01*
X13916Y6429D01*
X13920Y6426D01*
X13926Y6422D01*
X13933Y6418D01*
X13942Y6415D01*
X13953Y6413D01*
X13964Y6411D01*
X13970D01*
X13974Y6412D01*
X13978Y6413D01*
X13984Y6413D01*
X13994Y6416D01*
X13995D01*
X13997Y6417D01*
X14000Y6418D01*
X14004Y6419D01*
X14009Y6421D01*
X14015Y6424D01*
X14021Y6427D01*
X14028Y6431D01*
Y6461D01*
X13964D01*
Y6524D01*
X14110D01*
Y6393D01*
X14109Y6393D01*
X14108Y6392D01*
X14106Y6390D01*
X14103Y6389D01*
X14100Y6386D01*
X14095Y6384D01*
X14085Y6378D01*
X14073Y6372D01*
X14061Y6365D01*
X14048Y6359D01*
X14036Y6355D01*
X14035D01*
X14035Y6354D01*
X14032Y6354D01*
X14030Y6353D01*
X14027Y6352D01*
X14023Y6352D01*
X14014Y6350D01*
X14003Y6348D01*
X13990Y6346D01*
X13975Y6345D01*
X13960Y6345D01*
X13954D01*
X13951Y6345D01*
X13946D01*
X13941Y6346D01*
X13935Y6346D01*
X13929Y6347D01*
X13915Y6349D01*
X13900Y6352D01*
X13885Y6357D01*
X13871Y6363D01*
X13871D01*
X13870Y6364D01*
X13868Y6365D01*
X13866Y6366D01*
X13860Y6370D01*
X13852Y6377D01*
X13844Y6385D01*
X13835Y6394D01*
X13826Y6405D01*
X13819Y6418D01*
Y6418D01*
X13818Y6420D01*
X13817Y6421D01*
X13816Y6424D01*
X13815Y6428D01*
X13813Y6432D01*
X13811Y6437D01*
X13809Y6442D01*
X13806Y6455D01*
X13803Y6469D01*
X13801Y6485D01*
X13800Y6502D01*
Y6503D01*
Y6504D01*
Y6507D01*
X13801Y6510D01*
Y6515D01*
X13801Y6520D01*
X13802Y6525D01*
X13802Y6531D01*
X13805Y6545D01*
X13809Y6559D01*
X13813Y6575D01*
X13820Y6589D01*
Y6589D01*
X13822Y6590D01*
X13823Y6592D01*
X13825Y6595D01*
X13829Y6602D01*
X13836Y6610D01*
X13844Y6619D01*
X13854Y6628D01*
X13867Y6637D01*
X13881Y6644D01*
X13881D01*
X13882Y6645D01*
X13884Y6645D01*
X13887Y6647D01*
X13889Y6648D01*
X13893Y6649D01*
X13898Y6651D01*
X13903Y6652D01*
X13908Y6653D01*
X13915Y6655D01*
X13929Y6657D01*
X13945Y6659D01*
X13964Y6659D01*
X13976D01*
X13981Y6659D01*
D02*
G37*
G36*
X14457Y6350D02*
X14369D01*
X14255Y6517D01*
Y6350D01*
X14166D01*
Y6654D01*
X14253D01*
X14369Y6485D01*
Y6654D01*
X14457D01*
Y6350D01*
D02*
G37*
G36*
X12874Y6659D02*
X12879D01*
X12884Y6658D01*
X12891Y6658D01*
X12898Y6657D01*
X12912Y6654D01*
X12927Y6650D01*
X12942Y6644D01*
X12949Y6640D01*
X12955Y6636D01*
X12956D01*
X12956Y6635D01*
X12958Y6634D01*
X12960Y6632D01*
X12966Y6626D01*
X12974Y6619D01*
X12981Y6609D01*
X12990Y6596D01*
X12997Y6582D01*
X13004Y6565D01*
X12921Y6547D01*
Y6547D01*
X12921Y6549D01*
X12919Y6551D01*
X12918Y6554D01*
X12915Y6561D01*
X12914Y6564D01*
X12912Y6566D01*
X12911Y6567D01*
X12911Y6568D01*
X12909Y6571D01*
X12907Y6573D01*
X12900Y6578D01*
X12892Y6583D01*
X12891D01*
X12890Y6585D01*
X12888Y6585D01*
X12885Y6586D01*
X12881Y6588D01*
X12877Y6588D01*
X12867Y6589D01*
X12864D01*
X12862Y6589D01*
X12856Y6588D01*
X12849Y6586D01*
X12841Y6583D01*
X12833Y6578D01*
X12825Y6572D01*
X12822Y6568D01*
X12818Y6564D01*
X12818Y6562D01*
X12817Y6560D01*
X12814Y6555D01*
X12812Y6549D01*
X12809Y6540D01*
X12807Y6530D01*
X12806Y6518D01*
X12805Y6503D01*
Y6503D01*
Y6501D01*
Y6499D01*
Y6495D01*
X12806Y6491D01*
Y6486D01*
X12807Y6476D01*
X12809Y6464D01*
X12812Y6453D01*
X12815Y6442D01*
X12818Y6438D01*
X12821Y6434D01*
X12821Y6434D01*
X12824Y6431D01*
X12827Y6428D01*
X12832Y6425D01*
X12838Y6421D01*
X12845Y6418D01*
X12854Y6416D01*
X12864Y6416D01*
X12869D01*
X12873Y6416D01*
X12879Y6417D01*
X12886Y6419D01*
X12893Y6422D01*
X12898Y6425D01*
X12904Y6430D01*
X12905Y6431D01*
X12907Y6433D01*
X12909Y6437D01*
X12912Y6441D01*
X12915Y6448D01*
X12919Y6455D01*
X12922Y6464D01*
X12925Y6475D01*
X13007Y6449D01*
Y6449D01*
X13007Y6448D01*
X13006Y6446D01*
X13005Y6444D01*
X13004Y6437D01*
X13001Y6430D01*
X12997Y6420D01*
X12992Y6410D01*
X12987Y6401D01*
X12980Y6392D01*
X12980Y6390D01*
X12977Y6387D01*
X12973Y6383D01*
X12968Y6379D01*
X12962Y6373D01*
X12955Y6367D01*
X12946Y6361D01*
X12936Y6356D01*
X12935Y6356D01*
X12932Y6355D01*
X12926Y6353D01*
X12918Y6351D01*
X12908Y6348D01*
X12897Y6346D01*
X12884Y6345D01*
X12869Y6345D01*
X12861D01*
X12857Y6345D01*
X12852D01*
X12841Y6346D01*
X12828Y6348D01*
X12814Y6351D01*
X12801Y6354D01*
X12788Y6359D01*
X12787D01*
X12787Y6359D01*
X12785Y6361D01*
X12783Y6362D01*
X12777Y6365D01*
X12770Y6370D01*
X12761Y6378D01*
X12752Y6386D01*
X12743Y6397D01*
X12734Y6410D01*
Y6410D01*
X12733Y6411D01*
X12732Y6413D01*
X12731Y6416D01*
X12729Y6420D01*
X12727Y6424D01*
X12725Y6429D01*
X12723Y6435D01*
X12721Y6441D01*
X12718Y6448D01*
X12716Y6456D01*
X12715Y6464D01*
X12712Y6482D01*
X12711Y6503D01*
Y6503D01*
Y6506D01*
Y6510D01*
X12712Y6515D01*
X12712Y6521D01*
X12714Y6528D01*
X12715Y6537D01*
X12716Y6545D01*
X12721Y6564D01*
X12724Y6574D01*
X12728Y6583D01*
X12733Y6593D01*
X12738Y6602D01*
X12744Y6610D01*
X12751Y6619D01*
X12752Y6619D01*
X12753Y6620D01*
X12755Y6622D01*
X12759Y6625D01*
X12763Y6628D01*
X12767Y6631D01*
X12774Y6635D01*
X12780Y6639D01*
X12788Y6643D01*
X12797Y6647D01*
X12806Y6650D01*
X12816Y6653D01*
X12827Y6656D01*
X12839Y6658D01*
X12851Y6659D01*
X12864Y6659D01*
X12870D01*
X12874Y6659D01*
D02*
G37*
G36*
X13147Y6425D02*
X13293D01*
Y6350D01*
X13053D01*
Y6654D01*
X13147D01*
Y6425D01*
D02*
G37*
G36*
X2943Y15259D02*
X2947D01*
X2957Y15258D01*
X2968Y15257D01*
X2979Y15255D01*
X2990Y15252D01*
X3000Y15249D01*
X3001D01*
X3002Y15248D01*
X3005Y15247D01*
X3009Y15245D01*
X3015Y15241D01*
X3021Y15237D01*
X3027Y15232D01*
X3034Y15226D01*
X3040Y15218D01*
X3040Y15217D01*
X3042Y15214D01*
X3044Y15210D01*
X3047Y15204D01*
X3050Y15197D01*
X3052Y15189D01*
X3054Y15180D01*
X3054Y15171D01*
Y15170D01*
Y15169D01*
Y15166D01*
X3054Y15161D01*
X3052Y15154D01*
X3050Y15145D01*
X3047Y15137D01*
X3043Y15127D01*
X3038Y15117D01*
X3037Y15116D01*
X3035Y15113D01*
X3030Y15108D01*
X3024Y15101D01*
X3016Y15093D01*
X3006Y15083D01*
X3000Y15078D01*
X2993Y15073D01*
X2986Y15068D01*
X2978Y15062D01*
X2977Y15061D01*
X2974Y15059D01*
X2970Y15056D01*
X2965Y15052D01*
X2953Y15044D01*
X2948Y15040D01*
X2944Y15037D01*
X2944Y15037D01*
X2943Y15036D01*
X2941Y15034D01*
X2938Y15032D01*
X2932Y15027D01*
X2924Y15019D01*
X3057D01*
Y14950D01*
X2803D01*
Y14951D01*
Y14952D01*
X2803Y14954D01*
X2804Y14956D01*
X2804Y14960D01*
X2805Y14963D01*
X2807Y14973D01*
X2811Y14983D01*
X2816Y14996D01*
X2821Y15008D01*
X2829Y15020D01*
Y15021D01*
X2830Y15022D01*
X2831Y15024D01*
X2834Y15026D01*
X2836Y15030D01*
X2839Y15033D01*
X2843Y15038D01*
X2848Y15042D01*
X2853Y15048D01*
X2859Y15054D01*
X2866Y15061D01*
X2873Y15068D01*
X2882Y15075D01*
X2890Y15082D01*
X2900Y15090D01*
X2912Y15099D01*
X2912Y15099D01*
X2913Y15100D01*
X2915Y15102D01*
X2917Y15103D01*
X2924Y15108D01*
X2931Y15114D01*
X2940Y15121D01*
X2948Y15128D01*
X2954Y15134D01*
X2957Y15137D01*
X2959Y15140D01*
X2960Y15141D01*
X2961Y15142D01*
X2963Y15145D01*
X2965Y15149D01*
X2966Y15153D01*
X2968Y15158D01*
X2969Y15163D01*
X2970Y15168D01*
Y15168D01*
Y15170D01*
X2969Y15173D01*
X2969Y15176D01*
X2968Y15180D01*
X2965Y15183D01*
X2963Y15188D01*
X2959Y15192D01*
X2959Y15192D01*
X2958Y15193D01*
X2955Y15195D01*
X2952Y15197D01*
X2949Y15199D01*
X2944Y15200D01*
X2940Y15201D01*
X2934Y15202D01*
X2931D01*
X2928Y15201D01*
X2924Y15200D01*
X2920Y15199D01*
X2916Y15197D01*
X2912Y15195D01*
X2907Y15191D01*
X2907Y15190D01*
X2906Y15189D01*
X2904Y15186D01*
X2902Y15183D01*
X2900Y15178D01*
X2897Y15172D01*
X2896Y15164D01*
X2894Y15155D01*
X2809Y15162D01*
Y15162D01*
Y15164D01*
X2810Y15165D01*
X2810Y15168D01*
X2811Y15174D01*
X2813Y15182D01*
X2816Y15191D01*
X2818Y15200D01*
X2822Y15209D01*
X2827Y15217D01*
X2827Y15219D01*
X2829Y15221D01*
X2832Y15224D01*
X2837Y15229D01*
X2842Y15234D01*
X2848Y15239D01*
X2856Y15244D01*
X2864Y15248D01*
X2865Y15249D01*
X2869Y15250D01*
X2874Y15252D01*
X2882Y15254D01*
X2892Y15256D01*
X2903Y15258D01*
X2916Y15259D01*
X2931Y15259D01*
X2939D01*
X2943Y15259D01*
D02*
G37*
G36*
X2312Y15254D02*
X2317D01*
X2326Y15253D01*
X2336Y15251D01*
X2348Y15250D01*
X2359Y15247D01*
X2369Y15243D01*
X2369D01*
X2370Y15242D01*
X2373Y15241D01*
X2377Y15238D01*
X2384Y15234D01*
X2390Y15230D01*
X2397Y15224D01*
X2404Y15218D01*
X2411Y15210D01*
X2411Y15209D01*
X2414Y15207D01*
X2417Y15202D01*
X2420Y15197D01*
X2424Y15189D01*
X2428Y15181D01*
X2432Y15172D01*
X2435Y15162D01*
Y15161D01*
X2436Y15161D01*
X2436Y15157D01*
X2438Y15151D01*
X2439Y15144D01*
X2441Y15135D01*
X2442Y15125D01*
X2442Y15114D01*
X2443Y15103D01*
Y15102D01*
Y15100D01*
Y15098D01*
Y15094D01*
X2442Y15090D01*
Y15086D01*
X2442Y15075D01*
X2440Y15063D01*
X2438Y15051D01*
X2435Y15038D01*
X2432Y15027D01*
X2431Y15026D01*
X2430Y15023D01*
X2427Y15018D01*
X2424Y15011D01*
X2420Y15004D01*
X2414Y14997D01*
X2408Y14989D01*
X2401Y14982D01*
X2400Y14982D01*
X2397Y14979D01*
X2393Y14976D01*
X2388Y14972D01*
X2381Y14968D01*
X2374Y14965D01*
X2366Y14961D01*
X2358Y14958D01*
X2358D01*
X2357Y14958D01*
X2355D01*
X2353Y14957D01*
X2347Y14956D01*
X2339Y14954D01*
X2331Y14952D01*
X2321Y14951D01*
X2312Y14951D01*
X2302Y14950D01*
X2163D01*
Y15254D01*
X2309D01*
X2312Y15254D01*
D02*
G37*
G36*
X1370Y12654D02*
X1375D01*
X1384Y12653D01*
X1394Y12651D01*
X1406Y12650D01*
X1417Y12647D01*
X1427Y12643D01*
X1427D01*
X1428Y12642D01*
X1431Y12641D01*
X1435Y12638D01*
X1442Y12634D01*
X1448Y12630D01*
X1455Y12624D01*
X1462Y12618D01*
X1469Y12610D01*
X1469Y12609D01*
X1472Y12607D01*
X1475Y12602D01*
X1478Y12597D01*
X1482Y12589D01*
X1486Y12581D01*
X1490Y12572D01*
X1493Y12562D01*
Y12561D01*
X1494Y12561D01*
X1495Y12557D01*
X1496Y12551D01*
X1497Y12544D01*
X1499Y12535D01*
X1500Y12525D01*
X1500Y12514D01*
X1501Y12503D01*
Y12502D01*
Y12500D01*
Y12498D01*
Y12494D01*
X1500Y12490D01*
Y12486D01*
X1500Y12475D01*
X1498Y12463D01*
X1496Y12451D01*
X1493Y12438D01*
X1490Y12427D01*
X1489Y12426D01*
X1488Y12423D01*
X1485Y12418D01*
X1482Y12411D01*
X1478Y12404D01*
X1472Y12397D01*
X1466Y12389D01*
X1459Y12382D01*
X1458Y12382D01*
X1455Y12379D01*
X1451Y12376D01*
X1446Y12372D01*
X1440Y12368D01*
X1432Y12365D01*
X1424Y12361D01*
X1416Y12358D01*
X1416D01*
X1415Y12358D01*
X1413D01*
X1411Y12357D01*
X1405Y12356D01*
X1397Y12354D01*
X1389Y12352D01*
X1379Y12351D01*
X1370Y12351D01*
X1360Y12350D01*
X1221D01*
Y12654D01*
X1367D01*
X1370Y12654D01*
D02*
G37*
G36*
X2644Y15259D02*
X2649D01*
X2654Y15258D01*
X2661Y15258D01*
X2668Y15257D01*
X2682Y15254D01*
X2697Y15250D01*
X2711Y15244D01*
X2718Y15240D01*
X2725Y15236D01*
X2725D01*
X2726Y15235D01*
X2728Y15234D01*
X2730Y15232D01*
X2736Y15226D01*
X2744Y15219D01*
X2751Y15209D01*
X2759Y15196D01*
X2767Y15182D01*
X2774Y15165D01*
X2691Y15147D01*
Y15147D01*
X2690Y15149D01*
X2689Y15151D01*
X2688Y15154D01*
X2685Y15161D01*
X2683Y15164D01*
X2682Y15166D01*
X2681Y15167D01*
X2680Y15168D01*
X2679Y15171D01*
X2676Y15173D01*
X2670Y15178D01*
X2662Y15183D01*
X2661D01*
X2660Y15185D01*
X2658Y15185D01*
X2655Y15186D01*
X2651Y15188D01*
X2646Y15188D01*
X2637Y15189D01*
X2634D01*
X2631Y15189D01*
X2625Y15188D01*
X2618Y15186D01*
X2611Y15183D01*
X2603Y15178D01*
X2595Y15172D01*
X2592Y15168D01*
X2588Y15164D01*
X2587Y15162D01*
X2586Y15160D01*
X2584Y15155D01*
X2582Y15149D01*
X2579Y15140D01*
X2577Y15130D01*
X2576Y15118D01*
X2575Y15103D01*
Y15103D01*
Y15101D01*
Y15099D01*
Y15095D01*
X2576Y15091D01*
Y15086D01*
X2577Y15076D01*
X2579Y15064D01*
X2582Y15053D01*
X2585Y15042D01*
X2587Y15038D01*
X2590Y15034D01*
X2591Y15034D01*
X2593Y15031D01*
X2597Y15028D01*
X2601Y15025D01*
X2608Y15021D01*
X2615Y15018D01*
X2624Y15016D01*
X2634Y15016D01*
X2638D01*
X2643Y15016D01*
X2649Y15017D01*
X2655Y15019D01*
X2662Y15022D01*
X2668Y15025D01*
X2674Y15030D01*
X2675Y15031D01*
X2676Y15033D01*
X2679Y15037D01*
X2682Y15041D01*
X2685Y15048D01*
X2689Y15055D01*
X2692Y15064D01*
X2694Y15075D01*
X2777Y15049D01*
Y15049D01*
X2776Y15048D01*
X2776Y15046D01*
X2775Y15044D01*
X2773Y15037D01*
X2771Y15030D01*
X2766Y15020D01*
X2762Y15010D01*
X2756Y15001D01*
X2750Y14992D01*
X2749Y14990D01*
X2747Y14987D01*
X2743Y14983D01*
X2738Y14979D01*
X2732Y14973D01*
X2724Y14967D01*
X2716Y14961D01*
X2706Y14956D01*
X2705Y14956D01*
X2701Y14955D01*
X2696Y14953D01*
X2688Y14951D01*
X2678Y14948D01*
X2667Y14946D01*
X2654Y14945D01*
X2639Y14945D01*
X2631D01*
X2627Y14945D01*
X2621D01*
X2610Y14946D01*
X2597Y14948D01*
X2584Y14951D01*
X2570Y14954D01*
X2558Y14959D01*
X2557D01*
X2556Y14959D01*
X2555Y14961D01*
X2552Y14962D01*
X2546Y14965D01*
X2539Y14970D01*
X2531Y14977D01*
X2522Y14986D01*
X2513Y14997D01*
X2504Y15010D01*
Y15010D01*
X2503Y15011D01*
X2501Y15013D01*
X2500Y15016D01*
X2498Y15020D01*
X2497Y15024D01*
X2494Y15029D01*
X2493Y15035D01*
X2490Y15041D01*
X2488Y15048D01*
X2486Y15056D01*
X2484Y15064D01*
X2482Y15082D01*
X2481Y15103D01*
Y15103D01*
Y15106D01*
Y15110D01*
X2482Y15115D01*
X2482Y15121D01*
X2483Y15128D01*
X2484Y15137D01*
X2486Y15145D01*
X2491Y15164D01*
X2494Y15174D01*
X2498Y15183D01*
X2503Y15193D01*
X2508Y15202D01*
X2514Y15210D01*
X2521Y15219D01*
X2521Y15219D01*
X2522Y15220D01*
X2525Y15222D01*
X2528Y15225D01*
X2532Y15228D01*
X2537Y15231D01*
X2544Y15235D01*
X2550Y15239D01*
X2558Y15243D01*
X2566Y15247D01*
X2576Y15250D01*
X2586Y15253D01*
X2597Y15256D01*
X2608Y15258D01*
X2621Y15259D01*
X2634Y15259D01*
X2640D01*
X2644Y15259D01*
D02*
G37*
G36*
X2131Y14950D02*
X2032D01*
X2017Y15000D01*
X1911D01*
X1895Y14950D01*
X1800D01*
X1914Y15254D01*
X2017D01*
X2131Y14950D01*
D02*
G37*
G36*
X2212Y12654D02*
X2217D01*
X2226Y12653D01*
X2236Y12651D01*
X2248Y12650D01*
X2259Y12647D01*
X2269Y12643D01*
X2269D01*
X2270Y12642D01*
X2273Y12641D01*
X2277Y12638D01*
X2284Y12634D01*
X2290Y12630D01*
X2297Y12624D01*
X2304Y12618D01*
X2311Y12610D01*
X2311Y12609D01*
X2314Y12607D01*
X2317Y12602D01*
X2320Y12597D01*
X2324Y12589D01*
X2328Y12581D01*
X2332Y12572D01*
X2335Y12562D01*
Y12561D01*
X2336Y12561D01*
X2336Y12557D01*
X2338Y12551D01*
X2339Y12544D01*
X2341Y12535D01*
X2342Y12525D01*
X2342Y12514D01*
X2343Y12503D01*
Y12502D01*
Y12500D01*
Y12498D01*
Y12494D01*
X2342Y12490D01*
Y12486D01*
X2342Y12475D01*
X2340Y12463D01*
X2338Y12451D01*
X2335Y12438D01*
X2332Y12427D01*
X2331Y12426D01*
X2330Y12423D01*
X2327Y12418D01*
X2324Y12411D01*
X2320Y12404D01*
X2314Y12397D01*
X2308Y12389D01*
X2301Y12382D01*
X2300Y12382D01*
X2297Y12379D01*
X2293Y12376D01*
X2288Y12372D01*
X2281Y12368D01*
X2274Y12365D01*
X2266Y12361D01*
X2258Y12358D01*
X2257D01*
X2257Y12358D01*
X2255D01*
X2253Y12357D01*
X2247Y12356D01*
X2239Y12354D01*
X2231Y12352D01*
X2221Y12351D01*
X2212Y12351D01*
X2202Y12350D01*
X2063D01*
Y12654D01*
X2209D01*
X2212Y12654D01*
D02*
G37*
G36*
X2031Y12350D02*
X1932D01*
X1917Y12400D01*
X1811D01*
X1795Y12350D01*
X1700D01*
X1814Y12654D01*
X1917D01*
X2031Y12350D01*
D02*
G37*
G36*
X2544Y12659D02*
X2549D01*
X2554Y12658D01*
X2561Y12658D01*
X2568Y12657D01*
X2582Y12654D01*
X2597Y12650D01*
X2611Y12644D01*
X2618Y12640D01*
X2625Y12636D01*
X2625D01*
X2626Y12635D01*
X2628Y12634D01*
X2630Y12632D01*
X2636Y12626D01*
X2644Y12619D01*
X2651Y12609D01*
X2659Y12596D01*
X2667Y12582D01*
X2674Y12565D01*
X2591Y12547D01*
Y12547D01*
X2590Y12549D01*
X2589Y12551D01*
X2588Y12554D01*
X2585Y12561D01*
X2583Y12564D01*
X2582Y12566D01*
X2581Y12567D01*
X2580Y12568D01*
X2579Y12571D01*
X2576Y12573D01*
X2570Y12578D01*
X2562Y12583D01*
X2561D01*
X2560Y12585D01*
X2558Y12585D01*
X2555Y12586D01*
X2551Y12588D01*
X2546Y12588D01*
X2537Y12589D01*
X2534D01*
X2531Y12589D01*
X2525Y12588D01*
X2518Y12586D01*
X2511Y12583D01*
X2503Y12578D01*
X2495Y12572D01*
X2491Y12568D01*
X2488Y12564D01*
X2487Y12562D01*
X2486Y12560D01*
X2484Y12555D01*
X2482Y12549D01*
X2479Y12540D01*
X2477Y12530D01*
X2476Y12518D01*
X2475Y12503D01*
Y12503D01*
Y12501D01*
Y12499D01*
Y12495D01*
X2476Y12491D01*
Y12486D01*
X2477Y12476D01*
X2479Y12464D01*
X2482Y12453D01*
X2485Y12442D01*
X2487Y12438D01*
X2490Y12434D01*
X2491Y12434D01*
X2493Y12431D01*
X2497Y12428D01*
X2501Y12425D01*
X2508Y12421D01*
X2515Y12418D01*
X2524Y12416D01*
X2534Y12416D01*
X2538D01*
X2543Y12416D01*
X2549Y12417D01*
X2555Y12419D01*
X2562Y12422D01*
X2568Y12425D01*
X2574Y12430D01*
X2575Y12431D01*
X2576Y12433D01*
X2579Y12437D01*
X2582Y12441D01*
X2585Y12448D01*
X2589Y12455D01*
X2592Y12464D01*
X2594Y12475D01*
X2677Y12449D01*
Y12449D01*
X2676Y12448D01*
X2676Y12446D01*
X2675Y12444D01*
X2673Y12437D01*
X2671Y12430D01*
X2666Y12420D01*
X2662Y12410D01*
X2656Y12401D01*
X2650Y12392D01*
X2649Y12390D01*
X2647Y12387D01*
X2643Y12383D01*
X2638Y12379D01*
X2632Y12373D01*
X2624Y12367D01*
X2616Y12361D01*
X2606Y12356D01*
X2605Y12356D01*
X2601Y12355D01*
X2596Y12353D01*
X2588Y12351D01*
X2578Y12348D01*
X2567Y12346D01*
X2554Y12345D01*
X2539Y12345D01*
X2531D01*
X2527Y12345D01*
X2521D01*
X2510Y12346D01*
X2497Y12348D01*
X2484Y12351D01*
X2470Y12354D01*
X2458Y12359D01*
X2457D01*
X2456Y12359D01*
X2455Y12361D01*
X2452Y12362D01*
X2446Y12365D01*
X2439Y12370D01*
X2431Y12377D01*
X2422Y12386D01*
X2413Y12397D01*
X2404Y12410D01*
Y12410D01*
X2403Y12411D01*
X2401Y12413D01*
X2400Y12416D01*
X2398Y12420D01*
X2397Y12424D01*
X2394Y12429D01*
X2393Y12435D01*
X2390Y12441D01*
X2388Y12448D01*
X2386Y12456D01*
X2384Y12464D01*
X2382Y12482D01*
X2381Y12503D01*
Y12503D01*
Y12506D01*
Y12510D01*
X2382Y12515D01*
X2382Y12521D01*
X2383Y12528D01*
X2384Y12537D01*
X2386Y12545D01*
X2391Y12564D01*
X2394Y12574D01*
X2398Y12583D01*
X2403Y12593D01*
X2408Y12602D01*
X2414Y12610D01*
X2421Y12619D01*
X2421Y12619D01*
X2422Y12620D01*
X2425Y12622D01*
X2428Y12625D01*
X2432Y12628D01*
X2437Y12631D01*
X2444Y12635D01*
X2450Y12639D01*
X2458Y12643D01*
X2466Y12647D01*
X2476Y12650D01*
X2486Y12653D01*
X2497Y12656D01*
X2508Y12658D01*
X2521Y12659D01*
X2534Y12659D01*
X2540D01*
X2544Y12659D01*
D02*
G37*
G36*
X2928Y12472D02*
X2966D01*
Y12407D01*
X2928D01*
Y12350D01*
X2854D01*
Y12407D01*
X2700D01*
Y12476D01*
X2854Y12659D01*
X2928D01*
Y12472D01*
D02*
G37*
G36*
X1157Y12350D02*
X1069D01*
X955Y12517D01*
Y12350D01*
X866D01*
Y12654D01*
X953D01*
X1069Y12485D01*
Y12654D01*
X1157D01*
Y12350D01*
D02*
G37*
G36*
X3332Y12659D02*
X3337D01*
X3343Y12658D01*
X3356Y12657D01*
X3370Y12654D01*
X3384Y12650D01*
X3397Y12645D01*
X3403Y12641D01*
X3408Y12637D01*
X3409D01*
X3409Y12636D01*
X3412Y12633D01*
X3417Y12628D01*
X3422Y12622D01*
X3426Y12614D01*
X3431Y12604D01*
X3434Y12593D01*
X3435Y12588D01*
Y12581D01*
Y12580D01*
Y12578D01*
X3435Y12574D01*
X3434Y12569D01*
X3432Y12564D01*
X3430Y12558D01*
X3428Y12551D01*
X3424Y12545D01*
X3423Y12545D01*
X3422Y12542D01*
X3419Y12540D01*
X3416Y12536D01*
X3412Y12531D01*
X3406Y12527D01*
X3399Y12522D01*
X3392Y12517D01*
X3392D01*
X3395Y12517D01*
X3398Y12516D01*
X3402Y12514D01*
X3411Y12511D01*
X3415Y12510D01*
X3419Y12507D01*
X3419Y12507D01*
X3421Y12506D01*
X3424Y12504D01*
X3428Y12501D01*
X3431Y12497D01*
X3435Y12493D01*
X3439Y12488D01*
X3442Y12483D01*
X3443Y12482D01*
X3443Y12480D01*
X3445Y12477D01*
X3447Y12472D01*
X3448Y12467D01*
X3450Y12461D01*
X3450Y12454D01*
X3451Y12446D01*
Y12445D01*
Y12441D01*
X3450Y12437D01*
X3449Y12430D01*
X3447Y12422D01*
X3445Y12413D01*
X3442Y12404D01*
X3437Y12395D01*
X3436Y12394D01*
X3435Y12391D01*
X3431Y12387D01*
X3426Y12382D01*
X3421Y12375D01*
X3414Y12369D01*
X3406Y12363D01*
X3397Y12358D01*
X3395Y12357D01*
X3392Y12356D01*
X3386Y12354D01*
X3378Y12351D01*
X3368Y12349D01*
X3357Y12346D01*
X3343Y12345D01*
X3328Y12345D01*
X3321D01*
X3318Y12345D01*
X3313D01*
X3304Y12346D01*
X3294Y12347D01*
X3283Y12349D01*
X3273Y12351D01*
X3263Y12354D01*
X3261Y12355D01*
X3259Y12356D01*
X3254Y12358D01*
X3249Y12362D01*
X3243Y12365D01*
X3236Y12370D01*
X3229Y12376D01*
X3223Y12383D01*
X3223Y12384D01*
X3221Y12386D01*
X3218Y12390D01*
X3215Y12396D01*
X3211Y12403D01*
X3207Y12410D01*
X3204Y12420D01*
X3200Y12430D01*
X3284Y12441D01*
Y12440D01*
X3285Y12437D01*
X3287Y12432D01*
X3288Y12427D01*
X3292Y12416D01*
X3296Y12410D01*
X3299Y12406D01*
X3300Y12405D01*
X3301Y12404D01*
X3304Y12403D01*
X3307Y12401D01*
X3311Y12399D01*
X3315Y12398D01*
X3321Y12397D01*
X3326Y12396D01*
X3329D01*
X3332Y12397D01*
X3336Y12398D01*
X3340Y12399D01*
X3346Y12401D01*
X3350Y12404D01*
X3354Y12408D01*
X3355Y12409D01*
X3356Y12411D01*
X3358Y12414D01*
X3360Y12417D01*
X3363Y12422D01*
X3364Y12428D01*
X3366Y12434D01*
X3366Y12442D01*
Y12443D01*
Y12445D01*
X3366Y12449D01*
X3365Y12454D01*
X3363Y12459D01*
X3361Y12465D01*
X3359Y12470D01*
X3355Y12475D01*
X3354Y12475D01*
X3353Y12476D01*
X3350Y12478D01*
X3347Y12480D01*
X3343Y12483D01*
X3338Y12485D01*
X3332Y12486D01*
X3325Y12486D01*
X3321D01*
X3318Y12486D01*
X3314Y12485D01*
X3309Y12484D01*
X3304Y12483D01*
X3298Y12481D01*
X3302Y12541D01*
X3306D01*
X3310Y12541D01*
X3316D01*
X3319Y12541D01*
X3323Y12542D01*
X3328Y12543D01*
X3332Y12545D01*
X3337Y12548D01*
X3341Y12551D01*
X3342Y12552D01*
X3343Y12553D01*
X3345Y12555D01*
X3347Y12558D01*
X3349Y12562D01*
X3350Y12566D01*
X3352Y12571D01*
X3352Y12576D01*
Y12576D01*
Y12578D01*
X3352Y12580D01*
X3351Y12584D01*
X3350Y12588D01*
X3349Y12591D01*
X3346Y12595D01*
X3343Y12598D01*
X3343Y12599D01*
X3342Y12599D01*
X3340Y12601D01*
X3337Y12603D01*
X3334Y12604D01*
X3330Y12606D01*
X3326Y12606D01*
X3321Y12607D01*
X3318D01*
X3315Y12606D01*
X3312Y12606D01*
X3308Y12604D01*
X3304Y12603D01*
X3300Y12600D01*
X3297Y12597D01*
X3296Y12597D01*
X3295Y12596D01*
X3294Y12593D01*
X3291Y12590D01*
X3289Y12586D01*
X3287Y12580D01*
X3285Y12574D01*
X3284Y12566D01*
X3205Y12580D01*
Y12581D01*
X3205Y12582D01*
X3206Y12584D01*
X3206Y12587D01*
X3209Y12593D01*
X3213Y12602D01*
X3218Y12611D01*
X3225Y12621D01*
X3233Y12631D01*
X3242Y12639D01*
X3243D01*
X3243Y12640D01*
X3245Y12641D01*
X3247Y12643D01*
X3250Y12644D01*
X3254Y12645D01*
X3258Y12647D01*
X3263Y12650D01*
X3268Y12651D01*
X3274Y12653D01*
X3281Y12655D01*
X3288Y12657D01*
X3304Y12659D01*
X3322Y12659D01*
X3328D01*
X3332Y12659D01*
D02*
G37*
G36*
X3686Y12350D02*
X3583D01*
X3469Y12654D01*
X3566D01*
X3635Y12435D01*
X3703Y12654D01*
X3798D01*
X3686Y12350D01*
D02*
G37*
G36*
X3731Y14950D02*
X3632D01*
X3617Y15000D01*
X3511D01*
X3495Y14950D01*
X3400D01*
X3514Y15254D01*
X3617D01*
X3731Y14950D01*
D02*
G37*
G36*
X3946Y12659D02*
X3951D01*
X3956Y12658D01*
X3969Y12657D01*
X3983Y12654D01*
X3997Y12650D01*
X4011Y12645D01*
X4017Y12641D01*
X4022Y12637D01*
X4023D01*
X4023Y12636D01*
X4026Y12633D01*
X4031Y12628D01*
X4035Y12622D01*
X4040Y12614D01*
X4045Y12604D01*
X4048Y12593D01*
X4049Y12588D01*
Y12581D01*
Y12580D01*
Y12578D01*
X4048Y12574D01*
X4048Y12569D01*
X4046Y12564D01*
X4044Y12558D01*
X4041Y12551D01*
X4038Y12545D01*
X4037Y12545D01*
X4036Y12542D01*
X4033Y12540D01*
X4030Y12536D01*
X4025Y12531D01*
X4020Y12527D01*
X4013Y12522D01*
X4006Y12517D01*
X4006D01*
X4008Y12517D01*
X4011Y12516D01*
X4015Y12514D01*
X4024Y12511D01*
X4028Y12510D01*
X4032Y12507D01*
X4033Y12507D01*
X4035Y12506D01*
X4038Y12504D01*
X4041Y12501D01*
X4045Y12497D01*
X4049Y12493D01*
X4052Y12488D01*
X4056Y12483D01*
X4056Y12482D01*
X4057Y12480D01*
X4059Y12477D01*
X4061Y12472D01*
X4062Y12467D01*
X4063Y12461D01*
X4064Y12454D01*
X4065Y12446D01*
Y12445D01*
Y12441D01*
X4064Y12437D01*
X4063Y12430D01*
X4061Y12422D01*
X4059Y12413D01*
X4055Y12404D01*
X4051Y12395D01*
X4050Y12394D01*
X4048Y12391D01*
X4045Y12387D01*
X4040Y12382D01*
X4035Y12375D01*
X4028Y12369D01*
X4020Y12363D01*
X4010Y12358D01*
X4009Y12357D01*
X4006Y12356D01*
X4000Y12354D01*
X3992Y12351D01*
X3982Y12349D01*
X3970Y12346D01*
X3957Y12345D01*
X3942Y12345D01*
X3935D01*
X3931Y12345D01*
X3927D01*
X3918Y12346D01*
X3907Y12347D01*
X3897Y12349D01*
X3886Y12351D01*
X3876Y12354D01*
X3875Y12355D01*
X3872Y12356D01*
X3868Y12358D01*
X3862Y12362D01*
X3856Y12365D01*
X3849Y12370D01*
X3843Y12376D01*
X3837Y12383D01*
X3836Y12384D01*
X3835Y12386D01*
X3832Y12390D01*
X3828Y12396D01*
X3825Y12403D01*
X3821Y12410D01*
X3817Y12420D01*
X3814Y12430D01*
X3898Y12441D01*
Y12440D01*
X3899Y12437D01*
X3900Y12432D01*
X3901Y12427D01*
X3906Y12416D01*
X3910Y12410D01*
X3913Y12406D01*
X3914Y12405D01*
X3915Y12404D01*
X3917Y12403D01*
X3921Y12401D01*
X3924Y12399D01*
X3929Y12398D01*
X3934Y12397D01*
X3940Y12396D01*
X3943D01*
X3946Y12397D01*
X3950Y12398D01*
X3954Y12399D01*
X3959Y12401D01*
X3964Y12404D01*
X3968Y12408D01*
X3969Y12409D01*
X3970Y12411D01*
X3972Y12414D01*
X3974Y12417D01*
X3976Y12422D01*
X3978Y12428D01*
X3979Y12434D01*
X3980Y12442D01*
Y12443D01*
Y12445D01*
X3979Y12449D01*
X3979Y12454D01*
X3977Y12459D01*
X3975Y12465D01*
X3972Y12470D01*
X3969Y12475D01*
X3968Y12475D01*
X3967Y12476D01*
X3964Y12478D01*
X3961Y12480D01*
X3956Y12483D01*
X3952Y12485D01*
X3945Y12486D01*
X3939Y12486D01*
X3935D01*
X3932Y12486D01*
X3928Y12485D01*
X3923Y12484D01*
X3918Y12483D01*
X3912Y12481D01*
X3916Y12541D01*
X3920D01*
X3924Y12541D01*
X3930D01*
X3933Y12541D01*
X3937Y12542D01*
X3941Y12543D01*
X3946Y12545D01*
X3951Y12548D01*
X3955Y12551D01*
X3955Y12552D01*
X3956Y12553D01*
X3958Y12555D01*
X3961Y12558D01*
X3962Y12562D01*
X3964Y12566D01*
X3965Y12571D01*
X3966Y12576D01*
Y12576D01*
Y12578D01*
X3965Y12580D01*
X3965Y12584D01*
X3963Y12588D01*
X3962Y12591D01*
X3960Y12595D01*
X3957Y12598D01*
X3956Y12599D01*
X3955Y12599D01*
X3953Y12601D01*
X3951Y12603D01*
X3948Y12604D01*
X3944Y12606D01*
X3939Y12606D01*
X3934Y12607D01*
X3932D01*
X3929Y12606D01*
X3926Y12606D01*
X3922Y12604D01*
X3918Y12603D01*
X3914Y12600D01*
X3910Y12597D01*
X3910Y12597D01*
X3908Y12596D01*
X3907Y12593D01*
X3905Y12590D01*
X3903Y12586D01*
X3901Y12580D01*
X3899Y12574D01*
X3898Y12566D01*
X3818Y12580D01*
Y12581D01*
X3819Y12582D01*
X3820Y12584D01*
X3820Y12587D01*
X3823Y12593D01*
X3827Y12602D01*
X3832Y12611D01*
X3838Y12621D01*
X3846Y12631D01*
X3856Y12639D01*
X3856D01*
X3857Y12640D01*
X3859Y12641D01*
X3861Y12643D01*
X3864Y12644D01*
X3867Y12645D01*
X3872Y12647D01*
X3877Y12650D01*
X3882Y12651D01*
X3888Y12653D01*
X3894Y12655D01*
X3902Y12657D01*
X3918Y12659D01*
X3936Y12659D01*
X3942D01*
X3946Y12659D01*
D02*
G37*
G36*
X1144Y15259D02*
X1149D01*
X1154Y15258D01*
X1161Y15258D01*
X1168Y15257D01*
X1182Y15254D01*
X1197Y15250D01*
X1211Y15244D01*
X1218Y15240D01*
X1225Y15236D01*
X1225D01*
X1226Y15235D01*
X1228Y15234D01*
X1230Y15232D01*
X1236Y15226D01*
X1244Y15219D01*
X1251Y15209D01*
X1259Y15196D01*
X1267Y15182D01*
X1274Y15165D01*
X1191Y15147D01*
Y15147D01*
X1190Y15149D01*
X1189Y15151D01*
X1188Y15154D01*
X1185Y15161D01*
X1183Y15164D01*
X1182Y15166D01*
X1181Y15167D01*
X1180Y15168D01*
X1179Y15171D01*
X1176Y15173D01*
X1170Y15178D01*
X1162Y15183D01*
X1161D01*
X1160Y15185D01*
X1158Y15185D01*
X1155Y15186D01*
X1151Y15188D01*
X1147Y15188D01*
X1137Y15189D01*
X1134D01*
X1131Y15189D01*
X1125Y15188D01*
X1118Y15186D01*
X1111Y15183D01*
X1103Y15178D01*
X1095Y15172D01*
X1091Y15168D01*
X1088Y15164D01*
X1087Y15162D01*
X1086Y15160D01*
X1084Y15155D01*
X1082Y15149D01*
X1079Y15140D01*
X1077Y15130D01*
X1076Y15118D01*
X1075Y15103D01*
Y15103D01*
Y15101D01*
Y15099D01*
Y15095D01*
X1076Y15091D01*
Y15086D01*
X1077Y15076D01*
X1079Y15064D01*
X1082Y15053D01*
X1085Y15042D01*
X1087Y15038D01*
X1090Y15034D01*
X1091Y15034D01*
X1093Y15031D01*
X1097Y15028D01*
X1101Y15025D01*
X1108Y15021D01*
X1115Y15018D01*
X1124Y15016D01*
X1134Y15016D01*
X1138D01*
X1143Y15016D01*
X1149Y15017D01*
X1155Y15019D01*
X1162Y15022D01*
X1168Y15025D01*
X1174Y15030D01*
X1175Y15031D01*
X1176Y15033D01*
X1179Y15037D01*
X1182Y15041D01*
X1185Y15048D01*
X1189Y15055D01*
X1192Y15064D01*
X1194Y15075D01*
X1277Y15049D01*
Y15049D01*
X1276Y15048D01*
X1276Y15046D01*
X1275Y15044D01*
X1273Y15037D01*
X1271Y15030D01*
X1266Y15020D01*
X1262Y15010D01*
X1256Y15001D01*
X1250Y14992D01*
X1249Y14990D01*
X1247Y14987D01*
X1243Y14983D01*
X1238Y14979D01*
X1232Y14973D01*
X1224Y14967D01*
X1216Y14961D01*
X1206Y14956D01*
X1205Y14956D01*
X1201Y14955D01*
X1196Y14953D01*
X1188Y14951D01*
X1178Y14948D01*
X1167Y14946D01*
X1154Y14945D01*
X1139Y14945D01*
X1131D01*
X1127Y14945D01*
X1121D01*
X1110Y14946D01*
X1097Y14948D01*
X1084Y14951D01*
X1070Y14954D01*
X1058Y14959D01*
X1057D01*
X1056Y14959D01*
X1055Y14961D01*
X1052Y14962D01*
X1046Y14965D01*
X1039Y14970D01*
X1031Y14977D01*
X1022Y14986D01*
X1013Y14997D01*
X1004Y15010D01*
Y15010D01*
X1003Y15011D01*
X1001Y15013D01*
X1000Y15016D01*
X998Y15020D01*
X997Y15024D01*
X994Y15029D01*
X993Y15035D01*
X990Y15041D01*
X988Y15048D01*
X986Y15056D01*
X984Y15064D01*
X982Y15082D01*
X981Y15103D01*
Y15103D01*
Y15106D01*
Y15110D01*
X982Y15115D01*
X982Y15121D01*
X983Y15128D01*
X984Y15137D01*
X986Y15145D01*
X991Y15164D01*
X994Y15174D01*
X998Y15183D01*
X1003Y15193D01*
X1008Y15202D01*
X1014Y15210D01*
X1021Y15219D01*
X1021Y15219D01*
X1022Y15220D01*
X1025Y15222D01*
X1028Y15225D01*
X1032Y15228D01*
X1037Y15231D01*
X1044Y15235D01*
X1050Y15239D01*
X1058Y15243D01*
X1066Y15247D01*
X1076Y15250D01*
X1086Y15253D01*
X1097Y15256D01*
X1108Y15258D01*
X1121Y15259D01*
X1134Y15259D01*
X1140D01*
X1144Y15259D01*
D02*
G37*
G36*
X631Y14950D02*
X532D01*
X517Y15000D01*
X411D01*
X395Y14950D01*
X300D01*
X414Y15254D01*
X517D01*
X631Y14950D01*
D02*
G37*
G36*
X681Y12659D02*
X692Y12658D01*
X704Y12657D01*
X717Y12655D01*
X729Y12653D01*
X734Y12652D01*
X739Y12650D01*
X740D01*
X740Y12650D01*
X743Y12648D01*
X748Y12646D01*
X754Y12643D01*
X760Y12639D01*
X767Y12634D01*
X774Y12628D01*
X781Y12621D01*
X781Y12621D01*
X784Y12618D01*
X787Y12614D01*
X790Y12609D01*
X794Y12602D01*
X798Y12593D01*
X802Y12583D01*
X806Y12573D01*
X715Y12557D01*
Y12558D01*
X714Y12560D01*
X713Y12563D01*
X711Y12567D01*
X708Y12571D01*
X705Y12575D01*
X701Y12580D01*
X696Y12583D01*
X695Y12584D01*
X694Y12585D01*
X691Y12586D01*
X687Y12588D01*
X682Y12590D01*
X676Y12592D01*
X669Y12592D01*
X661Y12593D01*
X659D01*
X656Y12592D01*
X651Y12592D01*
X644Y12590D01*
X636Y12588D01*
X628Y12583D01*
X620Y12578D01*
X612Y12571D01*
X612Y12570D01*
X609Y12567D01*
X606Y12562D01*
X604Y12555D01*
X600Y12545D01*
X597Y12533D01*
X595Y12519D01*
X594Y12511D01*
Y12503D01*
Y12502D01*
Y12500D01*
Y12498D01*
X595Y12494D01*
Y12490D01*
X595Y12486D01*
X597Y12476D01*
X599Y12464D01*
X602Y12452D01*
X606Y12442D01*
X609Y12437D01*
X612Y12432D01*
X613Y12431D01*
X616Y12429D01*
X620Y12426D01*
X626Y12422D01*
X633Y12418D01*
X642Y12415D01*
X653Y12413D01*
X664Y12411D01*
X670D01*
X674Y12412D01*
X678Y12413D01*
X684Y12413D01*
X694Y12416D01*
X695D01*
X697Y12417D01*
X700Y12418D01*
X704Y12419D01*
X709Y12421D01*
X715Y12424D01*
X721Y12427D01*
X728Y12431D01*
Y12461D01*
X664D01*
Y12524D01*
X810D01*
Y12393D01*
X809Y12393D01*
X808Y12392D01*
X806Y12390D01*
X803Y12389D01*
X800Y12386D01*
X795Y12384D01*
X785Y12378D01*
X773Y12372D01*
X761Y12365D01*
X748Y12359D01*
X736Y12355D01*
X735D01*
X735Y12354D01*
X732Y12354D01*
X730Y12353D01*
X727Y12352D01*
X723Y12352D01*
X714Y12350D01*
X703Y12348D01*
X690Y12346D01*
X676Y12345D01*
X660Y12345D01*
X654D01*
X651Y12345D01*
X646D01*
X641Y12346D01*
X635Y12346D01*
X629Y12347D01*
X615Y12349D01*
X600Y12352D01*
X585Y12357D01*
X571Y12363D01*
X571D01*
X570Y12364D01*
X568Y12365D01*
X566Y12366D01*
X560Y12370D01*
X552Y12377D01*
X544Y12385D01*
X535Y12394D01*
X526Y12405D01*
X519Y12418D01*
Y12418D01*
X518Y12420D01*
X517Y12421D01*
X516Y12424D01*
X515Y12428D01*
X513Y12432D01*
X511Y12437D01*
X509Y12442D01*
X506Y12455D01*
X503Y12469D01*
X501Y12485D01*
X500Y12502D01*
Y12503D01*
Y12504D01*
Y12507D01*
X501Y12510D01*
Y12515D01*
X501Y12520D01*
X502Y12526D01*
X502Y12531D01*
X505Y12545D01*
X509Y12559D01*
X513Y12575D01*
X520Y12589D01*
Y12589D01*
X522Y12590D01*
X523Y12592D01*
X525Y12595D01*
X529Y12602D01*
X536Y12610D01*
X544Y12619D01*
X554Y12628D01*
X567Y12637D01*
X581Y12644D01*
X581D01*
X582Y12645D01*
X584Y12645D01*
X587Y12647D01*
X589Y12648D01*
X593Y12649D01*
X598Y12651D01*
X603Y12652D01*
X608Y12653D01*
X615Y12655D01*
X629Y12657D01*
X645Y12659D01*
X664Y12659D01*
X676D01*
X681Y12659D01*
D02*
G37*
G36*
X1439Y15259D02*
X1444D01*
X1450Y15258D01*
X1462Y15257D01*
X1476Y15254D01*
X1490Y15250D01*
X1504Y15245D01*
X1510Y15241D01*
X1515Y15237D01*
X1516D01*
X1516Y15236D01*
X1519Y15233D01*
X1524Y15228D01*
X1529Y15222D01*
X1533Y15214D01*
X1538Y15204D01*
X1541Y15193D01*
X1542Y15188D01*
Y15181D01*
Y15180D01*
Y15178D01*
X1541Y15174D01*
X1541Y15169D01*
X1539Y15164D01*
X1537Y15158D01*
X1534Y15151D01*
X1531Y15145D01*
X1530Y15145D01*
X1529Y15142D01*
X1526Y15140D01*
X1523Y15136D01*
X1519Y15131D01*
X1513Y15127D01*
X1506Y15122D01*
X1499Y15117D01*
X1499D01*
X1502Y15117D01*
X1505Y15116D01*
X1509Y15114D01*
X1517Y15111D01*
X1521Y15110D01*
X1526Y15107D01*
X1526Y15107D01*
X1528Y15106D01*
X1531Y15104D01*
X1534Y15101D01*
X1538Y15097D01*
X1542Y15093D01*
X1545Y15088D01*
X1549Y15083D01*
X1550Y15082D01*
X1550Y15080D01*
X1552Y15077D01*
X1554Y15072D01*
X1555Y15067D01*
X1557Y15061D01*
X1557Y15054D01*
X1558Y15046D01*
Y15045D01*
Y15041D01*
X1557Y15037D01*
X1556Y15030D01*
X1554Y15022D01*
X1552Y15013D01*
X1548Y15004D01*
X1544Y14995D01*
X1543Y14994D01*
X1541Y14991D01*
X1538Y14987D01*
X1533Y14982D01*
X1528Y14975D01*
X1521Y14969D01*
X1513Y14963D01*
X1503Y14958D01*
X1502Y14957D01*
X1499Y14956D01*
X1493Y14954D01*
X1485Y14951D01*
X1475Y14949D01*
X1464Y14946D01*
X1450Y14945D01*
X1435Y14945D01*
X1428D01*
X1424Y14945D01*
X1420D01*
X1411Y14946D01*
X1400Y14947D01*
X1390Y14949D01*
X1379Y14951D01*
X1369Y14954D01*
X1368Y14955D01*
X1365Y14956D01*
X1361Y14958D01*
X1355Y14962D01*
X1349Y14965D01*
X1342Y14970D01*
X1336Y14976D01*
X1330Y14983D01*
X1330Y14984D01*
X1328Y14986D01*
X1325Y14990D01*
X1321Y14996D01*
X1318Y15003D01*
X1314Y15010D01*
X1310Y15020D01*
X1307Y15030D01*
X1391Y15041D01*
Y15040D01*
X1392Y15037D01*
X1393Y15032D01*
X1395Y15027D01*
X1399Y15016D01*
X1403Y15010D01*
X1406Y15006D01*
X1407Y15005D01*
X1408Y15004D01*
X1410Y15003D01*
X1414Y15001D01*
X1417Y14999D01*
X1422Y14998D01*
X1427Y14997D01*
X1433Y14996D01*
X1436D01*
X1439Y14997D01*
X1443Y14998D01*
X1447Y14999D01*
X1452Y15001D01*
X1457Y15004D01*
X1461Y15008D01*
X1462Y15009D01*
X1463Y15011D01*
X1465Y15014D01*
X1467Y15017D01*
X1469Y15022D01*
X1471Y15028D01*
X1472Y15034D01*
X1473Y15042D01*
Y15043D01*
Y15045D01*
X1472Y15049D01*
X1472Y15054D01*
X1470Y15059D01*
X1468Y15065D01*
X1465Y15070D01*
X1462Y15075D01*
X1461Y15075D01*
X1460Y15076D01*
X1457Y15078D01*
X1454Y15080D01*
X1450Y15083D01*
X1445Y15085D01*
X1438Y15086D01*
X1432Y15086D01*
X1428D01*
X1425Y15086D01*
X1421Y15085D01*
X1416Y15084D01*
X1411Y15083D01*
X1405Y15081D01*
X1409Y15141D01*
X1413D01*
X1417Y15141D01*
X1423D01*
X1426Y15141D01*
X1430Y15142D01*
X1434Y15143D01*
X1439Y15145D01*
X1444Y15148D01*
X1448Y15151D01*
X1448Y15152D01*
X1450Y15153D01*
X1451Y15155D01*
X1454Y15158D01*
X1455Y15162D01*
X1457Y15166D01*
X1458Y15171D01*
X1459Y15176D01*
Y15176D01*
Y15178D01*
X1458Y15180D01*
X1458Y15184D01*
X1457Y15188D01*
X1455Y15191D01*
X1453Y15195D01*
X1450Y15198D01*
X1450Y15199D01*
X1448Y15199D01*
X1447Y15201D01*
X1444Y15203D01*
X1441Y15204D01*
X1437Y15206D01*
X1433Y15206D01*
X1427Y15207D01*
X1425D01*
X1422Y15206D01*
X1419Y15206D01*
X1415Y15204D01*
X1411Y15203D01*
X1407Y15200D01*
X1403Y15197D01*
X1403Y15197D01*
X1402Y15196D01*
X1400Y15193D01*
X1398Y15190D01*
X1396Y15186D01*
X1394Y15180D01*
X1392Y15174D01*
X1391Y15166D01*
X1311Y15180D01*
Y15181D01*
X1312Y15182D01*
X1313Y15184D01*
X1313Y15187D01*
X1316Y15193D01*
X1320Y15202D01*
X1325Y15211D01*
X1331Y15221D01*
X1340Y15231D01*
X1349Y15239D01*
X1349D01*
X1350Y15240D01*
X1352Y15241D01*
X1354Y15243D01*
X1357Y15244D01*
X1361Y15245D01*
X1365Y15247D01*
X1370Y15250D01*
X1375Y15251D01*
X1381Y15253D01*
X1388Y15255D01*
X1395Y15257D01*
X1411Y15259D01*
X1429Y15259D01*
X1435D01*
X1439Y15259D01*
D02*
G37*
G36*
X812Y15254D02*
X817D01*
X826Y15253D01*
X836Y15251D01*
X848Y15250D01*
X859Y15247D01*
X869Y15243D01*
X869D01*
X870Y15242D01*
X873Y15241D01*
X877Y15238D01*
X884Y15234D01*
X890Y15230D01*
X897Y15224D01*
X904Y15218D01*
X911Y15210D01*
X911Y15209D01*
X914Y15207D01*
X917Y15202D01*
X920Y15197D01*
X924Y15189D01*
X928Y15181D01*
X932Y15172D01*
X935Y15162D01*
Y15161D01*
X936Y15161D01*
X936Y15157D01*
X938Y15151D01*
X939Y15144D01*
X941Y15135D01*
X942Y15125D01*
X942Y15114D01*
X943Y15103D01*
Y15102D01*
Y15100D01*
Y15098D01*
Y15094D01*
X942Y15090D01*
Y15086D01*
X942Y15075D01*
X940Y15063D01*
X938Y15051D01*
X935Y15038D01*
X932Y15027D01*
X931Y15026D01*
X930Y15023D01*
X927Y15018D01*
X924Y15011D01*
X920Y15004D01*
X914Y14997D01*
X908Y14989D01*
X901Y14982D01*
X900Y14982D01*
X897Y14979D01*
X893Y14976D01*
X888Y14972D01*
X881Y14968D01*
X874Y14965D01*
X866Y14961D01*
X858Y14958D01*
X858D01*
X857Y14958D01*
X855D01*
X853Y14957D01*
X847Y14956D01*
X839Y14954D01*
X831Y14952D01*
X821Y14951D01*
X812Y14951D01*
X802Y14950D01*
X663D01*
Y15254D01*
X809D01*
X812Y15254D01*
D02*
G37*
G36*
X7094Y14250D02*
X7009D01*
Y14554D01*
X7094D01*
Y14250D01*
D02*
G37*
G36*
X6385D02*
X6301D01*
Y14470D01*
X6385D01*
Y14250D01*
D02*
G37*
G36*
X8533D02*
X8449D01*
Y14554D01*
X8533D01*
Y14250D01*
D02*
G37*
G36*
X7279Y14475D02*
X7288Y14474D01*
X7298Y14473D01*
X7308Y14472D01*
X7318Y14471D01*
X7319D01*
X7322Y14470D01*
X7326Y14469D01*
X7331Y14467D01*
X7338Y14465D01*
X7344Y14461D01*
X7350Y14458D01*
X7356Y14453D01*
X7357Y14452D01*
X7358Y14451D01*
X7360Y14449D01*
X7362Y14446D01*
X7365Y14442D01*
X7368Y14438D01*
X7371Y14433D01*
X7373Y14426D01*
X7374Y14425D01*
X7374Y14423D01*
X7376Y14420D01*
X7377Y14416D01*
X7378Y14411D01*
X7379Y14406D01*
X7380Y14400D01*
Y14394D01*
Y14297D01*
Y14296D01*
Y14294D01*
Y14292D01*
Y14288D01*
X7380Y14280D01*
X7381Y14276D01*
X7381Y14272D01*
Y14272D01*
X7382Y14270D01*
X7383Y14269D01*
X7383Y14266D01*
X7384Y14263D01*
X7386Y14259D01*
X7390Y14250D01*
X7311D01*
Y14251D01*
X7310Y14251D01*
X7308Y14255D01*
X7306Y14259D01*
X7304Y14262D01*
Y14263D01*
X7304Y14266D01*
X7303Y14270D01*
X7302Y14276D01*
X7301Y14276D01*
X7299Y14274D01*
X7296Y14271D01*
X7291Y14268D01*
X7286Y14264D01*
X7281Y14260D01*
X7275Y14256D01*
X7269Y14254D01*
X7267Y14253D01*
X7264Y14252D01*
X7260Y14251D01*
X7254Y14249D01*
X7246Y14248D01*
X7238Y14246D01*
X7228Y14245D01*
X7217Y14245D01*
X7214D01*
X7211Y14245D01*
X7207D01*
X7204Y14246D01*
X7195Y14247D01*
X7185Y14249D01*
X7175Y14252D01*
X7166Y14257D01*
X7157Y14263D01*
X7156Y14263D01*
X7154Y14266D01*
X7150Y14270D01*
X7147Y14275D01*
X7143Y14282D01*
X7140Y14290D01*
X7138Y14299D01*
X7137Y14308D01*
Y14309D01*
Y14309D01*
Y14312D01*
X7138Y14317D01*
X7139Y14323D01*
X7140Y14329D01*
X7143Y14336D01*
X7147Y14342D01*
X7152Y14349D01*
X7152Y14349D01*
X7155Y14352D01*
X7158Y14355D01*
X7164Y14358D01*
X7171Y14362D01*
X7180Y14366D01*
X7192Y14370D01*
X7205Y14373D01*
X7206D01*
X7208Y14373D01*
X7210Y14374D01*
X7213Y14375D01*
X7217Y14375D01*
X7221Y14376D01*
X7231Y14378D01*
X7241Y14380D01*
X7252Y14383D01*
X7260Y14385D01*
X7264Y14386D01*
X7267Y14386D01*
X7267D01*
X7269Y14387D01*
X7272Y14388D01*
X7276Y14389D01*
X7281Y14391D01*
X7286Y14393D01*
X7297Y14397D01*
Y14397D01*
Y14399D01*
X7297Y14402D01*
Y14405D01*
X7294Y14413D01*
X7293Y14416D01*
X7291Y14418D01*
Y14419D01*
X7290Y14420D01*
X7288Y14421D01*
X7286Y14422D01*
X7283Y14423D01*
X7279Y14424D01*
X7274Y14425D01*
X7264D01*
X7261Y14424D01*
X7256D01*
X7246Y14422D01*
X7241Y14420D01*
X7237Y14418D01*
X7236D01*
X7236Y14417D01*
X7234Y14416D01*
X7232Y14414D01*
X7231Y14411D01*
X7228Y14407D01*
X7226Y14403D01*
X7224Y14399D01*
X7143Y14407D01*
Y14409D01*
X7144Y14411D01*
X7145Y14414D01*
X7146Y14420D01*
X7150Y14430D01*
X7153Y14435D01*
X7156Y14440D01*
X7157Y14441D01*
X7158Y14442D01*
X7160Y14444D01*
X7163Y14447D01*
X7166Y14451D01*
X7170Y14454D01*
X7175Y14458D01*
X7181Y14461D01*
X7181Y14462D01*
X7183Y14462D01*
X7186Y14464D01*
X7189Y14465D01*
X7194Y14466D01*
X7200Y14468D01*
X7206Y14470D01*
X7213Y14471D01*
X7214D01*
X7217Y14472D01*
X7221Y14472D01*
X7226Y14473D01*
X7233Y14474D01*
X7240Y14475D01*
X7248Y14475D01*
X7270D01*
X7279Y14475D01*
D02*
G37*
G36*
X6849D02*
X6854Y14474D01*
X6860Y14473D01*
X6867Y14472D01*
X6875Y14471D01*
X6891Y14466D01*
X6899Y14463D01*
X6908Y14459D01*
X6916Y14455D01*
X6923Y14449D01*
X6931Y14444D01*
X6937Y14437D01*
X6938Y14436D01*
X6939Y14435D01*
X6940Y14434D01*
X6942Y14431D01*
X6944Y14428D01*
X6946Y14424D01*
X6952Y14416D01*
X6956Y14404D01*
X6961Y14392D01*
X6964Y14377D01*
X6965Y14369D01*
Y14361D01*
Y14360D01*
Y14358D01*
Y14356D01*
X6964Y14352D01*
X6964Y14348D01*
X6963Y14343D01*
X6962Y14337D01*
X6961Y14331D01*
X6957Y14318D01*
X6954Y14311D01*
X6951Y14304D01*
X6947Y14297D01*
X6942Y14290D01*
X6937Y14283D01*
X6931Y14277D01*
X6930Y14276D01*
X6929Y14276D01*
X6928Y14274D01*
X6925Y14272D01*
X6921Y14269D01*
X6917Y14267D01*
X6912Y14264D01*
X6906Y14261D01*
X6901Y14258D01*
X6894Y14255D01*
X6886Y14252D01*
X6877Y14250D01*
X6868Y14248D01*
X6859Y14246D01*
X6849Y14245D01*
X6838Y14245D01*
X6833D01*
X6829Y14245D01*
X6825D01*
X6819Y14246D01*
X6813Y14247D01*
X6808Y14248D01*
X6794Y14251D01*
X6780Y14256D01*
X6765Y14263D01*
X6758Y14267D01*
X6752Y14272D01*
X6751Y14272D01*
X6750Y14273D01*
X6749Y14275D01*
X6746Y14277D01*
X6743Y14281D01*
X6740Y14285D01*
X6736Y14290D01*
X6732Y14295D01*
X6729Y14301D01*
X6725Y14307D01*
X6722Y14315D01*
X6719Y14323D01*
X6716Y14331D01*
X6714Y14339D01*
X6713Y14349D01*
X6712Y14359D01*
Y14359D01*
Y14361D01*
Y14363D01*
X6713Y14368D01*
X6713Y14372D01*
X6714Y14377D01*
X6715Y14382D01*
X6716Y14389D01*
X6720Y14402D01*
X6723Y14409D01*
X6727Y14416D01*
X6730Y14423D01*
X6735Y14430D01*
X6740Y14436D01*
X6746Y14442D01*
X6747Y14443D01*
X6748Y14444D01*
X6750Y14445D01*
X6753Y14448D01*
X6756Y14450D01*
X6760Y14453D01*
X6765Y14456D01*
X6770Y14459D01*
X6777Y14462D01*
X6784Y14465D01*
X6791Y14468D01*
X6799Y14470D01*
X6808Y14472D01*
X6817Y14474D01*
X6827Y14475D01*
X6837Y14475D01*
X6844D01*
X6849Y14475D01*
D02*
G37*
G36*
X9220D02*
X9225Y14474D01*
X9231Y14473D01*
X9238Y14471D01*
X9245Y14469D01*
X9252Y14465D01*
X9253Y14465D01*
X9255Y14464D01*
X9258Y14462D01*
X9261Y14459D01*
X9266Y14455D01*
X9270Y14450D01*
X9276Y14444D01*
X9282Y14437D01*
Y14470D01*
X9362D01*
Y14166D01*
X9276D01*
Y14271D01*
X9276Y14270D01*
X9274Y14269D01*
X9272Y14266D01*
X9268Y14263D01*
X9263Y14261D01*
X9259Y14257D01*
X9253Y14254D01*
X9247Y14251D01*
X9246D01*
X9244Y14250D01*
X9241Y14249D01*
X9237Y14248D01*
X9232Y14247D01*
X9225Y14246D01*
X9219Y14245D01*
X9212Y14245D01*
X9208D01*
X9206Y14245D01*
X9202Y14246D01*
X9198Y14246D01*
X9189Y14248D01*
X9178Y14252D01*
X9167Y14257D01*
X9161Y14260D01*
X9156Y14264D01*
X9151Y14268D01*
X9145Y14273D01*
Y14274D01*
X9144Y14275D01*
X9143Y14276D01*
X9141Y14279D01*
X9139Y14282D01*
X9137Y14286D01*
X9135Y14290D01*
X9132Y14295D01*
X9130Y14300D01*
X9128Y14307D01*
X9125Y14313D01*
X9124Y14321D01*
X9122Y14329D01*
X9121Y14338D01*
X9120Y14347D01*
X9120Y14356D01*
Y14357D01*
Y14358D01*
Y14360D01*
Y14362D01*
X9120Y14366D01*
Y14369D01*
X9121Y14378D01*
X9122Y14388D01*
X9124Y14399D01*
X9127Y14410D01*
X9131Y14420D01*
Y14421D01*
X9132Y14421D01*
X9134Y14425D01*
X9136Y14430D01*
X9140Y14435D01*
X9145Y14442D01*
X9151Y14449D01*
X9157Y14455D01*
X9165Y14461D01*
X9166Y14462D01*
X9168Y14464D01*
X9173Y14466D01*
X9179Y14468D01*
X9185Y14471D01*
X9193Y14473D01*
X9202Y14475D01*
X9211Y14475D01*
X9215D01*
X9220Y14475D01*
D02*
G37*
G36*
X9822D02*
X9826D01*
X9837Y14473D01*
X9848Y14472D01*
X9861Y14469D01*
X9873Y14465D01*
X9884Y14461D01*
X9885D01*
X9885Y14460D01*
X9889Y14458D01*
X9893Y14455D01*
X9900Y14450D01*
X9906Y14444D01*
X9913Y14437D01*
X9920Y14428D01*
X9926Y14418D01*
Y14418D01*
X9926Y14417D01*
X9927Y14416D01*
X9928Y14414D01*
X9930Y14408D01*
X9933Y14400D01*
X9936Y14390D01*
X9938Y14378D01*
X9940Y14363D01*
X9940Y14348D01*
Y14339D01*
X9772D01*
Y14338D01*
X9772Y14335D01*
X9773Y14332D01*
X9774Y14327D01*
X9777Y14317D01*
X9779Y14313D01*
X9782Y14309D01*
X9783Y14308D01*
X9785Y14306D01*
X9787Y14304D01*
X9791Y14301D01*
X9795Y14299D01*
X9801Y14297D01*
X9807Y14295D01*
X9814Y14294D01*
X9816D01*
X9819Y14295D01*
X9822D01*
X9830Y14297D01*
X9838Y14300D01*
X9839D01*
X9839Y14301D01*
X9842Y14304D01*
X9847Y14308D01*
X9853Y14314D01*
X9936Y14307D01*
Y14306D01*
X9935Y14306D01*
X9934Y14304D01*
X9932Y14301D01*
X9928Y14296D01*
X9923Y14288D01*
X9916Y14280D01*
X9908Y14272D01*
X9899Y14265D01*
X9889Y14259D01*
X9889D01*
X9888Y14258D01*
X9886Y14258D01*
X9885Y14256D01*
X9882Y14255D01*
X9878Y14254D01*
X9874Y14253D01*
X9869Y14252D01*
X9864Y14251D01*
X9859Y14249D01*
X9846Y14247D01*
X9830Y14245D01*
X9812Y14245D01*
X9805D01*
X9801Y14245D01*
X9797D01*
X9787Y14246D01*
X9776Y14248D01*
X9765Y14250D01*
X9753Y14253D01*
X9743Y14257D01*
X9742Y14258D01*
X9739Y14259D01*
X9734Y14262D01*
X9729Y14266D01*
X9722Y14272D01*
X9716Y14279D01*
X9709Y14287D01*
X9702Y14296D01*
Y14297D01*
X9702Y14297D01*
X9700Y14301D01*
X9697Y14307D01*
X9694Y14314D01*
X9691Y14324D01*
X9688Y14334D01*
X9686Y14347D01*
X9686Y14359D01*
Y14360D01*
Y14362D01*
Y14365D01*
X9686Y14368D01*
X9687Y14372D01*
X9688Y14378D01*
X9690Y14389D01*
X9694Y14403D01*
X9700Y14416D01*
X9703Y14423D01*
X9708Y14430D01*
X9713Y14437D01*
X9719Y14443D01*
X9719Y14444D01*
X9720Y14444D01*
X9722Y14446D01*
X9724Y14448D01*
X9728Y14451D01*
X9732Y14453D01*
X9737Y14456D01*
X9743Y14459D01*
X9748Y14462D01*
X9755Y14465D01*
X9763Y14468D01*
X9771Y14470D01*
X9780Y14472D01*
X9789Y14474D01*
X9799Y14475D01*
X9810Y14475D01*
X9817D01*
X9822Y14475D01*
D02*
G37*
G36*
X8288D02*
X8292D01*
X8303Y14473D01*
X8315Y14472D01*
X8327Y14469D01*
X8339Y14465D01*
X8350Y14461D01*
X8351D01*
X8351Y14460D01*
X8355Y14458D01*
X8360Y14455D01*
X8366Y14450D01*
X8372Y14444D01*
X8380Y14437D01*
X8386Y14428D01*
X8392Y14418D01*
Y14418D01*
X8392Y14417D01*
X8393Y14416D01*
X8394Y14414D01*
X8396Y14408D01*
X8399Y14400D01*
X8402Y14390D01*
X8404Y14378D01*
X8406Y14363D01*
X8406Y14348D01*
Y14339D01*
X8238D01*
Y14338D01*
X8239Y14335D01*
X8239Y14332D01*
X8240Y14327D01*
X8243Y14317D01*
X8246Y14313D01*
X8248Y14309D01*
X8249Y14308D01*
X8251Y14306D01*
X8253Y14304D01*
X8257Y14301D01*
X8261Y14299D01*
X8267Y14297D01*
X8273Y14295D01*
X8280Y14294D01*
X8282D01*
X8285Y14295D01*
X8288D01*
X8296Y14297D01*
X8304Y14300D01*
X8305D01*
X8305Y14301D01*
X8308Y14304D01*
X8313Y14308D01*
X8319Y14314D01*
X8402Y14307D01*
Y14306D01*
X8401Y14306D01*
X8400Y14304D01*
X8398Y14301D01*
X8394Y14296D01*
X8389Y14288D01*
X8382Y14280D01*
X8374Y14272D01*
X8365Y14265D01*
X8356Y14259D01*
X8355D01*
X8354Y14258D01*
X8353Y14258D01*
X8351Y14256D01*
X8348Y14255D01*
X8344Y14254D01*
X8340Y14253D01*
X8336Y14252D01*
X8330Y14251D01*
X8325Y14249D01*
X8312Y14247D01*
X8296Y14245D01*
X8278Y14245D01*
X8271D01*
X8267Y14245D01*
X8263D01*
X8253Y14246D01*
X8242Y14248D01*
X8231Y14250D01*
X8219Y14253D01*
X8209Y14257D01*
X8208Y14258D01*
X8205Y14259D01*
X8200Y14262D01*
X8195Y14266D01*
X8188Y14272D01*
X8182Y14279D01*
X8175Y14287D01*
X8168Y14296D01*
Y14297D01*
X8168Y14297D01*
X8166Y14301D01*
X8163Y14307D01*
X8160Y14314D01*
X8157Y14324D01*
X8154Y14334D01*
X8153Y14347D01*
X8152Y14359D01*
Y14360D01*
Y14362D01*
Y14365D01*
X8153Y14368D01*
X8153Y14372D01*
X8154Y14378D01*
X8156Y14389D01*
X8160Y14403D01*
X8166Y14416D01*
X8169Y14423D01*
X8174Y14430D01*
X8179Y14437D01*
X8185Y14443D01*
X8185Y14444D01*
X8186Y14444D01*
X8188Y14446D01*
X8191Y14448D01*
X8194Y14451D01*
X8198Y14453D01*
X8203Y14456D01*
X8209Y14459D01*
X8215Y14462D01*
X8222Y14465D01*
X8229Y14468D01*
X8237Y14470D01*
X8246Y14472D01*
X8255Y14474D01*
X8265Y14475D01*
X8276Y14475D01*
X8284D01*
X8288Y14475D01*
D02*
G37*
G36*
X8718D02*
X8728Y14474D01*
X8738Y14473D01*
X8748Y14472D01*
X8757Y14471D01*
X8759D01*
X8762Y14470D01*
X8766Y14469D01*
X8771Y14467D01*
X8777Y14465D01*
X8784Y14461D01*
X8790Y14458D01*
X8796Y14453D01*
X8797Y14452D01*
X8798Y14451D01*
X8800Y14449D01*
X8802Y14446D01*
X8805Y14442D01*
X8808Y14438D01*
X8811Y14433D01*
X8813Y14426D01*
X8814Y14425D01*
X8814Y14423D01*
X8815Y14420D01*
X8816Y14416D01*
X8818Y14411D01*
X8818Y14406D01*
X8819Y14400D01*
Y14394D01*
Y14297D01*
Y14296D01*
Y14294D01*
Y14292D01*
Y14288D01*
X8820Y14280D01*
X8821Y14276D01*
X8821Y14272D01*
Y14272D01*
X8822Y14270D01*
X8822Y14269D01*
X8823Y14266D01*
X8824Y14263D01*
X8826Y14259D01*
X8830Y14250D01*
X8750D01*
Y14251D01*
X8750Y14251D01*
X8748Y14255D01*
X8746Y14259D01*
X8744Y14262D01*
Y14263D01*
X8743Y14266D01*
X8743Y14270D01*
X8742Y14276D01*
X8741Y14276D01*
X8739Y14274D01*
X8735Y14271D01*
X8731Y14268D01*
X8726Y14264D01*
X8721Y14260D01*
X8715Y14256D01*
X8708Y14254D01*
X8707Y14253D01*
X8704Y14252D01*
X8699Y14251D01*
X8694Y14249D01*
X8686Y14248D01*
X8677Y14246D01*
X8667Y14245D01*
X8657Y14245D01*
X8653D01*
X8650Y14245D01*
X8647D01*
X8643Y14246D01*
X8635Y14247D01*
X8625Y14249D01*
X8615Y14252D01*
X8605Y14257D01*
X8597Y14263D01*
X8596Y14263D01*
X8594Y14266D01*
X8590Y14270D01*
X8587Y14275D01*
X8583Y14282D01*
X8580Y14290D01*
X8577Y14299D01*
X8577Y14308D01*
Y14309D01*
Y14309D01*
Y14312D01*
X8577Y14317D01*
X8578Y14323D01*
X8580Y14329D01*
X8583Y14336D01*
X8587Y14342D01*
X8591Y14349D01*
X8592Y14349D01*
X8594Y14352D01*
X8598Y14355D01*
X8604Y14358D01*
X8611Y14362D01*
X8620Y14366D01*
X8632Y14370D01*
X8645Y14373D01*
X8646D01*
X8647Y14373D01*
X8650Y14374D01*
X8653Y14375D01*
X8657Y14375D01*
X8661Y14376D01*
X8671Y14378D01*
X8681Y14380D01*
X8691Y14383D01*
X8700Y14385D01*
X8704Y14386D01*
X8707Y14386D01*
X8707D01*
X8709Y14387D01*
X8712Y14388D01*
X8716Y14389D01*
X8721Y14391D01*
X8726Y14393D01*
X8737Y14397D01*
Y14397D01*
Y14399D01*
X8736Y14402D01*
Y14405D01*
X8734Y14413D01*
X8733Y14416D01*
X8731Y14418D01*
Y14419D01*
X8729Y14420D01*
X8728Y14421D01*
X8725Y14422D01*
X8722Y14423D01*
X8718Y14424D01*
X8714Y14425D01*
X8704D01*
X8701Y14424D01*
X8696D01*
X8686Y14422D01*
X8681Y14420D01*
X8677Y14418D01*
X8676D01*
X8676Y14417D01*
X8674Y14416D01*
X8672Y14414D01*
X8670Y14411D01*
X8668Y14407D01*
X8666Y14403D01*
X8664Y14399D01*
X8583Y14407D01*
Y14409D01*
X8584Y14411D01*
X8585Y14414D01*
X8586Y14420D01*
X8590Y14430D01*
X8593Y14435D01*
X8596Y14440D01*
X8597Y14441D01*
X8598Y14442D01*
X8599Y14444D01*
X8602Y14447D01*
X8606Y14451D01*
X8610Y14454D01*
X8615Y14458D01*
X8621Y14461D01*
X8621Y14462D01*
X8623Y14462D01*
X8625Y14464D01*
X8629Y14465D01*
X8633Y14466D01*
X8639Y14468D01*
X8646Y14470D01*
X8653Y14471D01*
X8654D01*
X8656Y14472D01*
X8660Y14472D01*
X8666Y14473D01*
X8673Y14474D01*
X8680Y14475D01*
X8688Y14475D01*
X8710D01*
X8718Y14475D01*
D02*
G37*
G36*
X7545D02*
X7553D01*
X7563Y14473D01*
X7572Y14472D01*
X7582Y14471D01*
X7589Y14469D01*
X7590D01*
X7593Y14468D01*
X7596Y14466D01*
X7600Y14464D01*
X7606Y14462D01*
X7611Y14458D01*
X7616Y14455D01*
X7621Y14450D01*
X7621Y14449D01*
X7623Y14448D01*
X7625Y14445D01*
X7628Y14441D01*
X7631Y14437D01*
X7635Y14431D01*
X7638Y14424D01*
X7642Y14417D01*
X7562Y14409D01*
Y14409D01*
X7561Y14410D01*
X7561Y14412D01*
X7559Y14414D01*
X7556Y14420D01*
X7551Y14424D01*
X7551Y14424D01*
X7549Y14425D01*
X7547Y14426D01*
X7545Y14427D01*
X7541Y14428D01*
X7537Y14430D01*
X7532Y14431D01*
X7522D01*
X7520Y14430D01*
X7513Y14428D01*
X7510Y14427D01*
X7507Y14425D01*
X7506Y14424D01*
X7504Y14422D01*
X7501Y14418D01*
X7501Y14416D01*
X7500Y14413D01*
Y14413D01*
Y14412D01*
X7501Y14409D01*
X7504Y14404D01*
X7506Y14403D01*
X7508Y14401D01*
X7509D01*
X7510Y14400D01*
X7513Y14400D01*
X7516Y14399D01*
X7521Y14397D01*
X7527Y14396D01*
X7535Y14394D01*
X7544Y14393D01*
X7546D01*
X7548Y14393D01*
X7551D01*
X7555Y14392D01*
X7559Y14392D01*
X7568Y14390D01*
X7578Y14388D01*
X7589Y14386D01*
X7598Y14383D01*
X7607Y14380D01*
X7608Y14379D01*
X7610Y14378D01*
X7614Y14376D01*
X7618Y14374D01*
X7624Y14371D01*
X7629Y14366D01*
X7634Y14362D01*
X7638Y14356D01*
X7639Y14355D01*
X7640Y14353D01*
X7642Y14350D01*
X7644Y14345D01*
X7646Y14341D01*
X7648Y14334D01*
X7649Y14328D01*
X7649Y14321D01*
Y14320D01*
Y14318D01*
X7649Y14314D01*
X7648Y14309D01*
X7646Y14304D01*
X7645Y14297D01*
X7642Y14291D01*
X7638Y14284D01*
X7637Y14283D01*
X7635Y14281D01*
X7632Y14277D01*
X7629Y14273D01*
X7624Y14269D01*
X7617Y14264D01*
X7610Y14259D01*
X7601Y14255D01*
X7600Y14255D01*
X7597Y14254D01*
X7592Y14252D01*
X7584Y14250D01*
X7574Y14248D01*
X7563Y14246D01*
X7549Y14245D01*
X7534Y14245D01*
X7524D01*
X7520Y14245D01*
X7514Y14246D01*
X7501Y14247D01*
X7486Y14249D01*
X7472Y14252D01*
X7459Y14256D01*
X7453Y14259D01*
X7448Y14262D01*
X7446Y14262D01*
X7444Y14265D01*
X7439Y14269D01*
X7434Y14274D01*
X7429Y14281D01*
X7424Y14290D01*
X7419Y14300D01*
X7415Y14311D01*
X7499Y14319D01*
Y14318D01*
X7500Y14317D01*
X7501Y14314D01*
X7503Y14311D01*
X7507Y14303D01*
X7510Y14300D01*
X7513Y14297D01*
X7514D01*
X7515Y14296D01*
X7517Y14296D01*
X7520Y14294D01*
X7524Y14293D01*
X7528Y14292D01*
X7532Y14292D01*
X7538Y14291D01*
X7541D01*
X7544Y14292D01*
X7548Y14292D01*
X7556Y14294D01*
X7561Y14296D01*
X7565Y14298D01*
X7565D01*
X7566Y14299D01*
X7569Y14301D01*
X7571Y14306D01*
X7572Y14309D01*
X7572Y14311D01*
Y14312D01*
Y14313D01*
X7571Y14317D01*
X7570Y14319D01*
X7568Y14321D01*
X7566Y14324D01*
X7562Y14325D01*
X7562D01*
X7561Y14326D01*
X7559Y14327D01*
X7555Y14328D01*
X7551Y14329D01*
X7544Y14331D01*
X7536Y14332D01*
X7526Y14334D01*
X7525D01*
X7524Y14335D01*
X7522D01*
X7519Y14335D01*
X7515Y14336D01*
X7511Y14337D01*
X7502Y14339D01*
X7492Y14341D01*
X7482Y14344D01*
X7473Y14346D01*
X7469Y14347D01*
X7465Y14348D01*
X7465Y14349D01*
X7462Y14349D01*
X7459Y14351D01*
X7455Y14354D01*
X7451Y14357D01*
X7446Y14361D01*
X7441Y14365D01*
X7436Y14371D01*
X7436Y14371D01*
X7435Y14373D01*
X7433Y14376D01*
X7431Y14381D01*
X7428Y14386D01*
X7427Y14392D01*
X7425Y14399D01*
X7425Y14406D01*
Y14407D01*
Y14410D01*
X7425Y14414D01*
X7427Y14419D01*
X7428Y14425D01*
X7430Y14431D01*
X7433Y14438D01*
X7437Y14444D01*
X7438Y14444D01*
X7439Y14446D01*
X7442Y14449D01*
X7446Y14452D01*
X7451Y14456D01*
X7457Y14460D01*
X7464Y14464D01*
X7472Y14467D01*
X7473Y14468D01*
X7476Y14468D01*
X7480Y14469D01*
X7487Y14471D01*
X7496Y14473D01*
X7506Y14474D01*
X7518Y14475D01*
X7531Y14475D01*
X7538D01*
X7545Y14475D01*
D02*
G37*
G36*
X6571D02*
X6576Y14474D01*
X6588Y14473D01*
X6601Y14471D01*
X6615Y14467D01*
X6627Y14462D01*
X6634Y14459D01*
X6639Y14456D01*
X6640D01*
X6640Y14455D01*
X6644Y14452D01*
X6649Y14448D01*
X6655Y14442D01*
X6661Y14434D01*
X6668Y14424D01*
X6674Y14413D01*
X6679Y14400D01*
X6600Y14389D01*
Y14390D01*
X6599Y14392D01*
X6598Y14394D01*
X6596Y14397D01*
X6592Y14404D01*
X6589Y14407D01*
X6586Y14410D01*
X6585Y14410D01*
X6584Y14411D01*
X6582Y14412D01*
X6579Y14414D01*
X6575Y14415D01*
X6571Y14416D01*
X6565Y14417D01*
X6560Y14417D01*
X6556D01*
X6553Y14417D01*
X6548Y14416D01*
X6543Y14414D01*
X6537Y14411D01*
X6531Y14407D01*
X6526Y14402D01*
X6526Y14402D01*
X6524Y14399D01*
X6522Y14396D01*
X6520Y14391D01*
X6517Y14385D01*
X6515Y14376D01*
X6514Y14367D01*
X6513Y14356D01*
Y14355D01*
Y14352D01*
X6514Y14347D01*
X6515Y14341D01*
X6516Y14335D01*
X6519Y14328D01*
X6522Y14321D01*
X6526Y14316D01*
X6526Y14315D01*
X6528Y14313D01*
X6531Y14311D01*
X6534Y14309D01*
X6539Y14306D01*
X6545Y14304D01*
X6551Y14302D01*
X6558Y14301D01*
X6561D01*
X6564Y14302D01*
X6568Y14303D01*
X6577Y14305D01*
X6582Y14307D01*
X6586Y14310D01*
X6586Y14310D01*
X6588Y14311D01*
X6590Y14313D01*
X6592Y14316D01*
X6595Y14320D01*
X6598Y14324D01*
X6601Y14330D01*
X6603Y14336D01*
X6684Y14327D01*
X6683Y14325D01*
X6682Y14323D01*
X6681Y14318D01*
X6678Y14312D01*
X6675Y14305D01*
X6671Y14297D01*
X6667Y14290D01*
X6661Y14283D01*
X6661Y14282D01*
X6658Y14280D01*
X6656Y14276D01*
X6651Y14272D01*
X6645Y14268D01*
X6639Y14263D01*
X6631Y14259D01*
X6623Y14255D01*
X6622Y14254D01*
X6619Y14253D01*
X6613Y14252D01*
X6606Y14250D01*
X6598Y14248D01*
X6588Y14246D01*
X6576Y14245D01*
X6563Y14245D01*
X6557D01*
X6551Y14245D01*
X6543D01*
X6533Y14246D01*
X6524Y14248D01*
X6514Y14249D01*
X6505Y14251D01*
X6503Y14252D01*
X6500Y14252D01*
X6496Y14254D01*
X6491Y14256D01*
X6485Y14259D01*
X6478Y14263D01*
X6471Y14267D01*
X6464Y14272D01*
X6464Y14273D01*
X6461Y14275D01*
X6458Y14278D01*
X6455Y14282D01*
X6451Y14287D01*
X6447Y14293D01*
X6443Y14299D01*
X6438Y14306D01*
X6438Y14307D01*
X6437Y14310D01*
X6436Y14314D01*
X6434Y14320D01*
X6432Y14328D01*
X6431Y14337D01*
X6430Y14347D01*
X6429Y14359D01*
Y14359D01*
Y14361D01*
Y14362D01*
Y14365D01*
X6430Y14371D01*
X6430Y14379D01*
X6432Y14387D01*
X6434Y14397D01*
X6437Y14407D01*
X6440Y14416D01*
X6441Y14416D01*
X6442Y14418D01*
X6444Y14421D01*
X6447Y14425D01*
X6450Y14430D01*
X6454Y14435D01*
X6458Y14440D01*
X6464Y14445D01*
X6464Y14445D01*
X6466Y14447D01*
X6469Y14449D01*
X6473Y14452D01*
X6478Y14455D01*
X6483Y14459D01*
X6488Y14462D01*
X6494Y14465D01*
X6495Y14465D01*
X6499Y14466D01*
X6504Y14468D01*
X6511Y14470D01*
X6520Y14472D01*
X6531Y14473D01*
X6543Y14475D01*
X6557Y14475D01*
X6566D01*
X6571Y14475D01*
D02*
G37*
G36*
X6385Y14496D02*
X6301D01*
Y14554D01*
X6385D01*
Y14496D01*
D02*
G37*
G36*
X8984Y14475D02*
X8993D01*
X9003Y14473D01*
X9012Y14472D01*
X9021Y14471D01*
X9029Y14469D01*
X9029D01*
X9032Y14468D01*
X9036Y14466D01*
X9040Y14464D01*
X9045Y14462D01*
X9050Y14458D01*
X9056Y14455D01*
X9060Y14450D01*
X9061Y14449D01*
X9063Y14448D01*
X9065Y14445D01*
X9067Y14441D01*
X9071Y14437D01*
X9074Y14431D01*
X9078Y14424D01*
X9082Y14417D01*
X9001Y14409D01*
Y14409D01*
X9001Y14410D01*
X9000Y14412D01*
X8999Y14414D01*
X8996Y14420D01*
X8991Y14424D01*
X8990Y14424D01*
X8989Y14425D01*
X8987Y14426D01*
X8984Y14427D01*
X8981Y14428D01*
X8977Y14430D01*
X8972Y14431D01*
X8962D01*
X8959Y14430D01*
X8952Y14428D01*
X8949Y14427D01*
X8946Y14425D01*
X8945Y14424D01*
X8943Y14422D01*
X8941Y14418D01*
X8941Y14416D01*
X8940Y14413D01*
Y14413D01*
Y14412D01*
X8941Y14409D01*
X8943Y14404D01*
X8945Y14403D01*
X8948Y14401D01*
X8949D01*
X8950Y14400D01*
X8952Y14400D01*
X8956Y14399D01*
X8960Y14397D01*
X8967Y14396D01*
X8974Y14394D01*
X8984Y14393D01*
X8986D01*
X8988Y14393D01*
X8991D01*
X8994Y14392D01*
X8998Y14392D01*
X9007Y14390D01*
X9018Y14388D01*
X9028Y14386D01*
X9038Y14383D01*
X9046Y14380D01*
X9048Y14379D01*
X9050Y14378D01*
X9053Y14376D01*
X9058Y14374D01*
X9063Y14371D01*
X9069Y14366D01*
X9073Y14362D01*
X9078Y14356D01*
X9079Y14355D01*
X9080Y14353D01*
X9082Y14350D01*
X9084Y14345D01*
X9086Y14341D01*
X9087Y14334D01*
X9089Y14328D01*
X9089Y14321D01*
Y14320D01*
Y14318D01*
X9089Y14314D01*
X9088Y14309D01*
X9086Y14304D01*
X9084Y14297D01*
X9082Y14291D01*
X9077Y14284D01*
X9077Y14283D01*
X9075Y14281D01*
X9072Y14277D01*
X9069Y14273D01*
X9063Y14269D01*
X9057Y14264D01*
X9050Y14259D01*
X9041Y14255D01*
X9040Y14255D01*
X9036Y14254D01*
X9031Y14252D01*
X9024Y14250D01*
X9014Y14248D01*
X9003Y14246D01*
X8989Y14245D01*
X8974Y14245D01*
X8964D01*
X8959Y14245D01*
X8953Y14246D01*
X8941Y14247D01*
X8926Y14249D01*
X8912Y14252D01*
X8898Y14256D01*
X8893Y14259D01*
X8887Y14262D01*
X8886Y14262D01*
X8883Y14265D01*
X8879Y14269D01*
X8874Y14274D01*
X8869Y14281D01*
X8863Y14290D01*
X8859Y14300D01*
X8855Y14311D01*
X8939Y14319D01*
Y14318D01*
X8940Y14317D01*
X8941Y14314D01*
X8942Y14311D01*
X8947Y14303D01*
X8949Y14300D01*
X8953Y14297D01*
X8953D01*
X8955Y14296D01*
X8957Y14296D01*
X8959Y14294D01*
X8963Y14293D01*
X8967Y14292D01*
X8972Y14292D01*
X8978Y14291D01*
X8981D01*
X8984Y14292D01*
X8988Y14292D01*
X8996Y14294D01*
X9001Y14296D01*
X9004Y14298D01*
X9005D01*
X9005Y14299D01*
X9008Y14301D01*
X9011Y14306D01*
X9011Y14309D01*
X9012Y14311D01*
Y14312D01*
Y14313D01*
X9011Y14317D01*
X9010Y14319D01*
X9008Y14321D01*
X9005Y14324D01*
X9002Y14325D01*
X9001D01*
X9000Y14326D01*
X8998Y14327D01*
X8995Y14328D01*
X8990Y14329D01*
X8984Y14331D01*
X8976Y14332D01*
X8966Y14334D01*
X8965D01*
X8964Y14335D01*
X8962D01*
X8959Y14335D01*
X8955Y14336D01*
X8951Y14337D01*
X8942Y14339D01*
X8932Y14341D01*
X8922Y14344D01*
X8912Y14346D01*
X8908Y14347D01*
X8905Y14348D01*
X8904Y14349D01*
X8902Y14349D01*
X8899Y14351D01*
X8895Y14354D01*
X8890Y14357D01*
X8886Y14361D01*
X8881Y14365D01*
X8876Y14371D01*
X8876Y14371D01*
X8874Y14373D01*
X8873Y14376D01*
X8870Y14381D01*
X8868Y14386D01*
X8866Y14392D01*
X8865Y14399D01*
X8864Y14406D01*
Y14407D01*
Y14410D01*
X8865Y14414D01*
X8866Y14419D01*
X8867Y14425D01*
X8870Y14431D01*
X8873Y14438D01*
X8877Y14444D01*
X8877Y14444D01*
X8879Y14446D01*
X8882Y14449D01*
X8886Y14452D01*
X8891Y14456D01*
X8897Y14460D01*
X8904Y14464D01*
X8911Y14467D01*
X8912Y14468D01*
X8915Y14468D01*
X8920Y14469D01*
X8927Y14471D01*
X8936Y14473D01*
X8946Y14474D01*
X8957Y14475D01*
X8971Y14475D01*
X8977D01*
X8984Y14475D01*
D02*
G37*
G36*
X9645Y14250D02*
X9566D01*
Y14285D01*
X9565Y14284D01*
X9563Y14282D01*
X9559Y14277D01*
X9555Y14273D01*
X9550Y14268D01*
X9544Y14263D01*
X9537Y14258D01*
X9530Y14254D01*
X9530Y14254D01*
X9527Y14253D01*
X9523Y14251D01*
X9518Y14249D01*
X9512Y14248D01*
X9504Y14246D01*
X9496Y14245D01*
X9486Y14245D01*
X9483D01*
X9480Y14245D01*
X9474Y14246D01*
X9466Y14247D01*
X9458Y14250D01*
X9448Y14254D01*
X9440Y14258D01*
X9431Y14265D01*
X9431Y14266D01*
X9428Y14269D01*
X9425Y14274D01*
X9422Y14281D01*
X9418Y14290D01*
X9415Y14301D01*
X9413Y14314D01*
X9412Y14330D01*
Y14470D01*
X9497D01*
Y14349D01*
Y14348D01*
Y14345D01*
X9497Y14342D01*
X9498Y14337D01*
X9500Y14327D01*
X9502Y14323D01*
X9504Y14319D01*
X9505Y14318D01*
X9506Y14318D01*
X9507Y14317D01*
X9510Y14315D01*
X9513Y14313D01*
X9517Y14312D01*
X9521Y14311D01*
X9526Y14311D01*
X9528D01*
X9531Y14311D01*
X9535Y14312D01*
X9538Y14314D01*
X9542Y14316D01*
X9547Y14318D01*
X9551Y14322D01*
X9551Y14323D01*
X9552Y14324D01*
X9554Y14327D01*
X9556Y14332D01*
X9558Y14337D01*
X9559Y14345D01*
X9560Y14354D01*
X9561Y14364D01*
Y14470D01*
X9645D01*
Y14250D01*
D02*
G37*
G36*
X10174Y14421D02*
X10062Y14307D01*
X10181D01*
Y14250D01*
X9961D01*
Y14304D01*
X10068Y14413D01*
X9970D01*
Y14470D01*
X10174D01*
Y14421D01*
D02*
G37*
G36*
X6241Y14250D02*
X6152D01*
X6038Y14417D01*
Y14250D01*
X5950D01*
Y14554D01*
X6037D01*
X6152Y14385D01*
Y14554D01*
X6241D01*
Y14250D01*
D02*
G37*
G36*
X8024D02*
X7921D01*
X7807Y14554D01*
X7904D01*
X7974Y14335D01*
X8041Y14554D01*
X8137D01*
X8024Y14250D01*
D02*
G37*
G36*
X8543Y15025D02*
X8548Y15023D01*
X8554Y15022D01*
X8561Y15020D01*
X8568Y15017D01*
X8577Y15013D01*
X8550Y14953D01*
X8550Y14954D01*
X8548Y14954D01*
X8545Y14956D01*
X8542Y14957D01*
X8534Y14959D01*
X8530Y14960D01*
X8524D01*
X8521Y14959D01*
X8518Y14958D01*
X8513Y14956D01*
X8509Y14954D01*
X8505Y14950D01*
X8501Y14946D01*
X8501Y14944D01*
X8499Y14942D01*
X8497Y14937D01*
X8496Y14933D01*
X8495Y14929D01*
X8494Y14925D01*
X8492Y14920D01*
X8491Y14913D01*
X8490Y14907D01*
X8489Y14900D01*
X8489Y14892D01*
X8488Y14883D01*
Y14874D01*
Y14800D01*
X8403D01*
Y15020D01*
X8482D01*
Y14984D01*
X8483Y14985D01*
X8484Y14988D01*
X8487Y14991D01*
X8489Y14997D01*
X8497Y15007D01*
X8501Y15012D01*
X8505Y15016D01*
X8506Y15016D01*
X8508Y15018D01*
X8510Y15019D01*
X8513Y15021D01*
X8518Y15022D01*
X8523Y15024D01*
X8529Y15025D01*
X8536Y15025D01*
X8539D01*
X8543Y15025D01*
D02*
G37*
G36*
X6977D02*
X6987Y15024D01*
X6997Y15023D01*
X7006Y15022D01*
X7016Y15021D01*
X7017D01*
X7020Y15020D01*
X7024Y15019D01*
X7029Y15017D01*
X7036Y15015D01*
X7042Y15011D01*
X7049Y15008D01*
X7054Y15003D01*
X7055Y15002D01*
X7056Y15001D01*
X7058Y14999D01*
X7060Y14996D01*
X7063Y14992D01*
X7066Y14988D01*
X7069Y14983D01*
X7071Y14976D01*
X7072Y14976D01*
X7073Y14973D01*
X7074Y14970D01*
X7075Y14966D01*
X7076Y14961D01*
X7077Y14956D01*
X7078Y14950D01*
Y14944D01*
Y14847D01*
Y14846D01*
Y14844D01*
Y14842D01*
Y14838D01*
X7078Y14830D01*
X7079Y14826D01*
X7080Y14822D01*
Y14822D01*
X7080Y14820D01*
X7081Y14819D01*
X7081Y14816D01*
X7083Y14813D01*
X7084Y14809D01*
X7088Y14800D01*
X7009D01*
Y14801D01*
X7008Y14801D01*
X7006Y14805D01*
X7004Y14809D01*
X7002Y14812D01*
Y14813D01*
X7002Y14816D01*
X7001Y14820D01*
X7000Y14826D01*
X6999Y14826D01*
X6997Y14824D01*
X6994Y14821D01*
X6990Y14818D01*
X6984Y14814D01*
X6979Y14810D01*
X6973Y14806D01*
X6967Y14804D01*
X6966Y14803D01*
X6963Y14802D01*
X6958Y14801D01*
X6952Y14799D01*
X6944Y14798D01*
X6936Y14796D01*
X6926Y14795D01*
X6915Y14795D01*
X6912D01*
X6909Y14795D01*
X6905D01*
X6902Y14796D01*
X6893Y14797D01*
X6883Y14799D01*
X6873Y14802D01*
X6864Y14807D01*
X6855Y14813D01*
X6854Y14813D01*
X6852Y14816D01*
X6849Y14820D01*
X6845Y14825D01*
X6841Y14832D01*
X6838Y14840D01*
X6836Y14849D01*
X6835Y14858D01*
Y14858D01*
Y14859D01*
Y14862D01*
X6836Y14867D01*
X6837Y14873D01*
X6839Y14879D01*
X6841Y14886D01*
X6845Y14892D01*
X6850Y14899D01*
X6850Y14899D01*
X6853Y14902D01*
X6856Y14905D01*
X6862Y14908D01*
X6869Y14912D01*
X6878Y14916D01*
X6890Y14920D01*
X6904Y14923D01*
X6904D01*
X6906Y14923D01*
X6908Y14924D01*
X6911Y14925D01*
X6915Y14925D01*
X6919Y14926D01*
X6929Y14928D01*
X6939Y14930D01*
X6950Y14933D01*
X6959Y14935D01*
X6962Y14936D01*
X6965Y14936D01*
X6966D01*
X6967Y14937D01*
X6970Y14938D01*
X6974Y14939D01*
X6979Y14941D01*
X6984Y14943D01*
X6995Y14947D01*
Y14947D01*
Y14949D01*
X6995Y14952D01*
Y14955D01*
X6992Y14963D01*
X6991Y14966D01*
X6989Y14968D01*
Y14969D01*
X6988Y14970D01*
X6986Y14971D01*
X6984Y14972D01*
X6981Y14973D01*
X6977Y14974D01*
X6972Y14975D01*
X6963D01*
X6959Y14974D01*
X6954D01*
X6944Y14972D01*
X6939Y14970D01*
X6935Y14968D01*
X6935D01*
X6934Y14967D01*
X6932Y14966D01*
X6930Y14964D01*
X6929Y14961D01*
X6926Y14957D01*
X6924Y14953D01*
X6922Y14949D01*
X6841Y14957D01*
Y14959D01*
X6842Y14961D01*
X6843Y14964D01*
X6844Y14970D01*
X6849Y14980D01*
X6851Y14985D01*
X6854Y14990D01*
X6855Y14991D01*
X6856Y14992D01*
X6858Y14994D01*
X6861Y14997D01*
X6864Y15001D01*
X6868Y15004D01*
X6873Y15008D01*
X6879Y15011D01*
X6880Y15012D01*
X6881Y15012D01*
X6884Y15014D01*
X6887Y15015D01*
X6892Y15016D01*
X6898Y15018D01*
X6904Y15020D01*
X6911Y15021D01*
X6912D01*
X6915Y15022D01*
X6919Y15022D01*
X6925Y15023D01*
X6931Y15024D01*
X6938Y15025D01*
X6946Y15025D01*
X6968D01*
X6977Y15025D01*
D02*
G37*
G36*
X8925Y14800D02*
X8822D01*
X8708Y15104D01*
X8805D01*
X8874Y14885D01*
X8942Y15104D01*
X9038D01*
X8925Y14800D01*
D02*
G37*
G36*
X9246D02*
X9161D01*
Y15002D01*
X9160Y15002D01*
X9158Y15000D01*
X9153Y14997D01*
X9148Y14993D01*
X9142Y14989D01*
X9135Y14985D01*
X9121Y14977D01*
X9120Y14976D01*
X9117Y14975D01*
X9113Y14973D01*
X9107Y14971D01*
X9100Y14968D01*
X9092Y14965D01*
X9083Y14962D01*
X9072Y14959D01*
Y15028D01*
X9073D01*
X9074Y15028D01*
X9076Y15029D01*
X9079Y15030D01*
X9083Y15031D01*
X9087Y15033D01*
X9097Y15037D01*
X9107Y15042D01*
X9118Y15047D01*
X9129Y15053D01*
X9139Y15060D01*
X9140Y15061D01*
X9143Y15064D01*
X9147Y15068D01*
X9152Y15074D01*
X9159Y15081D01*
X9165Y15090D01*
X9171Y15099D01*
X9176Y15109D01*
X9246D01*
Y14800D01*
D02*
G37*
G36*
X7216D02*
X7132D01*
Y15104D01*
X7216D01*
Y14800D01*
D02*
G37*
G36*
X6505Y15025D02*
X6515Y15024D01*
X6525Y15023D01*
X6535Y15022D01*
X6544Y15021D01*
X6545D01*
X6548Y15020D01*
X6553Y15019D01*
X6558Y15017D01*
X6564Y15015D01*
X6571Y15011D01*
X6577Y15008D01*
X6583Y15003D01*
X6584Y15002D01*
X6585Y15001D01*
X6586Y14999D01*
X6589Y14996D01*
X6592Y14992D01*
X6595Y14988D01*
X6598Y14983D01*
X6600Y14976D01*
X6600Y14976D01*
X6601Y14973D01*
X6602Y14970D01*
X6603Y14966D01*
X6605Y14961D01*
X6605Y14956D01*
X6606Y14950D01*
Y14944D01*
Y14847D01*
Y14846D01*
Y14844D01*
Y14842D01*
Y14838D01*
X6607Y14830D01*
X6607Y14826D01*
X6608Y14822D01*
Y14822D01*
X6609Y14820D01*
X6609Y14819D01*
X6610Y14816D01*
X6611Y14813D01*
X6613Y14809D01*
X6617Y14800D01*
X6537D01*
Y14801D01*
X6537Y14801D01*
X6535Y14805D01*
X6533Y14809D01*
X6531Y14812D01*
Y14813D01*
X6530Y14816D01*
X6530Y14820D01*
X6529Y14826D01*
X6528Y14826D01*
X6526Y14824D01*
X6522Y14821D01*
X6518Y14818D01*
X6513Y14814D01*
X6507Y14810D01*
X6502Y14806D01*
X6495Y14804D01*
X6494Y14803D01*
X6491Y14802D01*
X6486Y14801D01*
X6481Y14799D01*
X6473Y14798D01*
X6464Y14796D01*
X6454Y14795D01*
X6444Y14795D01*
X6440D01*
X6437Y14795D01*
X6434D01*
X6430Y14796D01*
X6421Y14797D01*
X6412Y14799D01*
X6402Y14802D01*
X6392Y14807D01*
X6383Y14813D01*
X6383Y14813D01*
X6381Y14816D01*
X6377Y14820D01*
X6374Y14825D01*
X6370Y14832D01*
X6366Y14840D01*
X6364Y14849D01*
X6364Y14858D01*
Y14858D01*
Y14859D01*
Y14862D01*
X6364Y14867D01*
X6365Y14873D01*
X6367Y14879D01*
X6370Y14886D01*
X6374Y14892D01*
X6378Y14899D01*
X6379Y14899D01*
X6381Y14902D01*
X6385Y14905D01*
X6390Y14908D01*
X6397Y14912D01*
X6407Y14916D01*
X6419Y14920D01*
X6432Y14923D01*
X6433D01*
X6434Y14923D01*
X6437Y14924D01*
X6440Y14925D01*
X6444Y14925D01*
X6448Y14926D01*
X6458Y14928D01*
X6468Y14930D01*
X6478Y14933D01*
X6487Y14935D01*
X6491Y14936D01*
X6493Y14936D01*
X6494D01*
X6496Y14937D01*
X6499Y14938D01*
X6503Y14939D01*
X6507Y14941D01*
X6513Y14943D01*
X6524Y14947D01*
Y14947D01*
Y14949D01*
X6523Y14952D01*
Y14955D01*
X6521Y14963D01*
X6520Y14966D01*
X6517Y14968D01*
Y14969D01*
X6516Y14970D01*
X6514Y14971D01*
X6512Y14972D01*
X6509Y14973D01*
X6505Y14974D01*
X6500Y14975D01*
X6491D01*
X6488Y14974D01*
X6483D01*
X6473Y14972D01*
X6468Y14970D01*
X6464Y14968D01*
X6463D01*
X6462Y14967D01*
X6461Y14966D01*
X6459Y14964D01*
X6457Y14961D01*
X6455Y14957D01*
X6452Y14953D01*
X6451Y14949D01*
X6370Y14957D01*
Y14959D01*
X6371Y14961D01*
X6372Y14964D01*
X6373Y14970D01*
X6377Y14980D01*
X6380Y14985D01*
X6383Y14990D01*
X6383Y14991D01*
X6385Y14992D01*
X6386Y14994D01*
X6389Y14997D01*
X6393Y15001D01*
X6397Y15004D01*
X6402Y15008D01*
X6407Y15011D01*
X6408Y15012D01*
X6410Y15012D01*
X6412Y15014D01*
X6416Y15015D01*
X6420Y15016D01*
X6426Y15018D01*
X6433Y15020D01*
X6440Y15021D01*
X6441D01*
X6443Y15022D01*
X6447Y15022D01*
X6453Y15023D01*
X6460Y15024D01*
X6467Y15025D01*
X6475Y15025D01*
X6497D01*
X6505Y15025D01*
D02*
G37*
G36*
X6200Y15104D02*
X6204D01*
X6213Y15103D01*
X6224Y15101D01*
X6235Y15100D01*
X6246Y15097D01*
X6256Y15093D01*
X6256D01*
X6257Y15092D01*
X6260Y15091D01*
X6265Y15088D01*
X6271Y15084D01*
X6278Y15080D01*
X6285Y15074D01*
X6292Y15068D01*
X6298Y15060D01*
X6299Y15059D01*
X6301Y15057D01*
X6304Y15052D01*
X6307Y15047D01*
X6311Y15039D01*
X6316Y15031D01*
X6319Y15022D01*
X6323Y15012D01*
Y15011D01*
X6323Y15011D01*
X6324Y15007D01*
X6325Y15001D01*
X6327Y14994D01*
X6328Y14985D01*
X6329Y14975D01*
X6330Y14964D01*
X6330Y14953D01*
Y14952D01*
Y14950D01*
Y14948D01*
Y14944D01*
X6330Y14940D01*
Y14936D01*
X6329Y14925D01*
X6327Y14913D01*
X6326Y14901D01*
X6323Y14888D01*
X6319Y14877D01*
X6319Y14876D01*
X6317Y14873D01*
X6314Y14868D01*
X6311Y14861D01*
X6307Y14854D01*
X6302Y14847D01*
X6295Y14839D01*
X6288Y14832D01*
X6287Y14832D01*
X6285Y14829D01*
X6280Y14826D01*
X6275Y14822D01*
X6269Y14818D01*
X6262Y14815D01*
X6254Y14811D01*
X6245Y14808D01*
X6245D01*
X6244Y14808D01*
X6242D01*
X6240Y14807D01*
X6234Y14806D01*
X6227Y14804D01*
X6218Y14802D01*
X6209Y14801D01*
X6199Y14801D01*
X6189Y14800D01*
X6050D01*
Y15104D01*
X6196D01*
X6200Y15104D01*
D02*
G37*
G36*
X8245Y15025D02*
X8250D01*
X8260Y15023D01*
X8272Y15022D01*
X8284Y15019D01*
X8296Y15015D01*
X8308Y15011D01*
X8308D01*
X8309Y15010D01*
X8312Y15008D01*
X8317Y15005D01*
X8323Y15000D01*
X8330Y14994D01*
X8337Y14987D01*
X8343Y14978D01*
X8349Y14968D01*
Y14968D01*
X8350Y14967D01*
X8350Y14966D01*
X8351Y14964D01*
X8354Y14958D01*
X8357Y14950D01*
X8359Y14940D01*
X8361Y14928D01*
X8363Y14913D01*
X8364Y14898D01*
Y14889D01*
X8195D01*
Y14888D01*
X8196Y14885D01*
X8196Y14882D01*
X8197Y14877D01*
X8200Y14867D01*
X8203Y14863D01*
X8206Y14858D01*
X8206Y14858D01*
X8208Y14856D01*
X8210Y14854D01*
X8214Y14851D01*
X8219Y14849D01*
X8224Y14847D01*
X8230Y14845D01*
X8237Y14844D01*
X8240D01*
X8242Y14845D01*
X8245D01*
X8253Y14847D01*
X8261Y14850D01*
X8262D01*
X8262Y14851D01*
X8265Y14854D01*
X8270Y14858D01*
X8276Y14864D01*
X8359Y14857D01*
Y14856D01*
X8358Y14856D01*
X8357Y14854D01*
X8355Y14851D01*
X8351Y14846D01*
X8346Y14838D01*
X8339Y14830D01*
X8332Y14822D01*
X8323Y14815D01*
X8313Y14809D01*
X8312D01*
X8312Y14808D01*
X8310Y14808D01*
X8308Y14806D01*
X8305Y14805D01*
X8302Y14804D01*
X8298Y14803D01*
X8293Y14802D01*
X8288Y14801D01*
X8282Y14799D01*
X8269Y14797D01*
X8253Y14795D01*
X8236Y14795D01*
X8229D01*
X8224Y14795D01*
X8220D01*
X8210Y14796D01*
X8199Y14798D01*
X8188Y14800D01*
X8176Y14803D01*
X8167Y14807D01*
X8165Y14808D01*
X8162Y14809D01*
X8158Y14812D01*
X8152Y14816D01*
X8145Y14822D01*
X8139Y14829D01*
X8132Y14837D01*
X8126Y14846D01*
Y14847D01*
X8125Y14847D01*
X8123Y14851D01*
X8120Y14857D01*
X8117Y14864D01*
X8114Y14874D01*
X8112Y14884D01*
X8110Y14897D01*
X8109Y14909D01*
Y14910D01*
Y14912D01*
Y14915D01*
X8110Y14918D01*
X8110Y14922D01*
X8111Y14928D01*
X8113Y14939D01*
X8117Y14953D01*
X8123Y14966D01*
X8127Y14973D01*
X8131Y14980D01*
X8136Y14987D01*
X8142Y14993D01*
X8143Y14994D01*
X8144Y14994D01*
X8145Y14996D01*
X8148Y14998D01*
X8151Y15001D01*
X8155Y15003D01*
X8160Y15006D01*
X8166Y15009D01*
X8172Y15012D01*
X8179Y15015D01*
X8186Y15018D01*
X8194Y15020D01*
X8203Y15022D01*
X8213Y15024D01*
X8223Y15025D01*
X8233Y15025D01*
X8241D01*
X8245Y15025D01*
D02*
G37*
%LPC*%
G36*
X9239Y14413D02*
X9237D01*
X9234Y14413D01*
X9230Y14411D01*
X9226Y14410D01*
X9222Y14408D01*
X9218Y14404D01*
X9214Y14400D01*
X9213Y14400D01*
X9212Y14398D01*
X9211Y14395D01*
X9209Y14390D01*
X9207Y14385D01*
X9206Y14378D01*
X9204Y14369D01*
X9204Y14358D01*
Y14357D01*
Y14354D01*
X9204Y14349D01*
X9205Y14344D01*
X9206Y14337D01*
X9208Y14331D01*
X9210Y14325D01*
X9214Y14320D01*
X9214Y14319D01*
X9215Y14318D01*
X9218Y14316D01*
X9221Y14314D01*
X9224Y14311D01*
X9228Y14310D01*
X9233Y14309D01*
X9238Y14308D01*
X9241D01*
X9244Y14309D01*
X9248Y14310D01*
X9252Y14311D01*
X9257Y14313D01*
X9262Y14316D01*
X9266Y14320D01*
X9266Y14321D01*
X9268Y14323D01*
X9269Y14325D01*
X9272Y14330D01*
X9273Y14335D01*
X9275Y14342D01*
X9276Y14350D01*
X9277Y14359D01*
Y14360D01*
Y14361D01*
Y14364D01*
X9276Y14369D01*
X9276Y14375D01*
X9274Y14382D01*
X9272Y14389D01*
X9269Y14395D01*
X9266Y14400D01*
X9265Y14401D01*
X9264Y14402D01*
X9262Y14404D01*
X9259Y14407D01*
X9255Y14409D01*
X9250Y14411D01*
X9245Y14413D01*
X9239Y14413D01*
D02*
G37*
G36*
X1964Y15175D02*
X1931Y15066D01*
X1998D01*
X1964Y15175D01*
D02*
G37*
G36*
X6524Y14904D02*
X6523D01*
X6521Y14903D01*
X6517Y14902D01*
X6513Y14901D01*
X6507Y14899D01*
X6501Y14897D01*
X6488Y14893D01*
X6486Y14892D01*
X6483Y14892D01*
X6479Y14891D01*
X6474Y14889D01*
X6468Y14887D01*
X6463Y14884D01*
X6458Y14882D01*
X6455Y14880D01*
Y14879D01*
X6454Y14878D01*
X6452Y14875D01*
X6450Y14870D01*
X6449Y14867D01*
X6448Y14864D01*
Y14863D01*
Y14862D01*
X6449Y14860D01*
Y14858D01*
X6451Y14853D01*
X6452Y14850D01*
X6455Y14847D01*
X6455D01*
X6456Y14846D01*
X6458Y14846D01*
X6460Y14844D01*
X6463Y14843D01*
X6467Y14843D01*
X6471Y14842D01*
X6478D01*
X6481Y14842D01*
X6484D01*
X6492Y14844D01*
X6496Y14846D01*
X6501Y14848D01*
X6502Y14849D01*
X6503Y14849D01*
X6505Y14851D01*
X6508Y14853D01*
X6514Y14858D01*
X6516Y14861D01*
X6519Y14865D01*
Y14866D01*
X6519Y14867D01*
X6520Y14869D01*
X6522Y14872D01*
X6522Y14875D01*
X6523Y14880D01*
X6524Y14885D01*
Y14890D01*
Y14904D01*
D02*
G37*
G36*
X1338Y12585D02*
X1315D01*
Y12419D01*
X1342D01*
X1348Y12420D01*
X1354D01*
X1368Y12422D01*
X1375Y12423D01*
X1380Y12425D01*
X1380Y12426D01*
X1382Y12427D01*
X1384Y12428D01*
X1387Y12431D01*
X1390Y12434D01*
X1393Y12438D01*
X1396Y12442D01*
X1399Y12448D01*
X1400Y12449D01*
X1400Y12451D01*
X1401Y12455D01*
X1403Y12461D01*
X1404Y12468D01*
X1406Y12478D01*
X1406Y12488D01*
X1407Y12501D01*
Y12502D01*
Y12503D01*
Y12506D01*
Y12509D01*
X1406Y12513D01*
Y12517D01*
X1405Y12527D01*
X1403Y12538D01*
X1400Y12549D01*
X1396Y12559D01*
X1393Y12564D01*
X1390Y12567D01*
X1390Y12568D01*
X1387Y12570D01*
X1383Y12573D01*
X1378Y12576D01*
X1370Y12579D01*
X1362Y12582D01*
X1351Y12585D01*
X1338Y12585D01*
D02*
G37*
G36*
X2280Y15185D02*
X2257D01*
Y15019D01*
X2284D01*
X2290Y15020D01*
X2296D01*
X2310Y15022D01*
X2317Y15023D01*
X2322Y15025D01*
X2322Y15026D01*
X2324Y15027D01*
X2326Y15028D01*
X2329Y15031D01*
X2332Y15034D01*
X2335Y15038D01*
X2338Y15042D01*
X2341Y15048D01*
X2342Y15049D01*
X2342Y15051D01*
X2343Y15055D01*
X2345Y15061D01*
X2346Y15068D01*
X2348Y15078D01*
X2348Y15088D01*
X2349Y15101D01*
Y15102D01*
Y15103D01*
Y15106D01*
Y15109D01*
X2348Y15113D01*
Y15117D01*
X2347Y15127D01*
X2345Y15138D01*
X2342Y15149D01*
X2338Y15159D01*
X2335Y15164D01*
X2332Y15167D01*
X2332Y15168D01*
X2329Y15170D01*
X2325Y15173D01*
X2320Y15176D01*
X2312Y15179D01*
X2304Y15182D01*
X2293Y15185D01*
X2280Y15185D01*
D02*
G37*
G36*
X2180Y12585D02*
X2157D01*
Y12419D01*
X2184D01*
X2190Y12420D01*
X2196D01*
X2210Y12422D01*
X2217Y12423D01*
X2222Y12425D01*
X2222Y12426D01*
X2224Y12427D01*
X2226Y12428D01*
X2229Y12431D01*
X2232Y12434D01*
X2235Y12438D01*
X2238Y12442D01*
X2241Y12448D01*
X2242Y12449D01*
X2242Y12451D01*
X2243Y12455D01*
X2245Y12461D01*
X2246Y12468D01*
X2248Y12478D01*
X2248Y12488D01*
X2249Y12501D01*
Y12502D01*
Y12503D01*
Y12506D01*
Y12509D01*
X2248Y12513D01*
Y12517D01*
X2247Y12527D01*
X2245Y12538D01*
X2242Y12549D01*
X2238Y12559D01*
X2235Y12564D01*
X2232Y12567D01*
X2232Y12568D01*
X2229Y12570D01*
X2225Y12573D01*
X2220Y12576D01*
X2212Y12579D01*
X2204Y12582D01*
X2193Y12585D01*
X2180Y12585D01*
D02*
G37*
G36*
X1864Y12575D02*
X1831Y12466D01*
X1898D01*
X1864Y12575D01*
D02*
G37*
G36*
X2854Y12568D02*
X2772Y12472D01*
X2854D01*
Y12568D01*
D02*
G37*
G36*
X8279Y14425D02*
X8276D01*
X8272Y14425D01*
X8268Y14424D01*
X8263Y14421D01*
X8257Y14418D01*
X8252Y14414D01*
X8247Y14409D01*
X8247Y14409D01*
X8246Y14407D01*
X8245Y14405D01*
X8243Y14402D01*
X8241Y14397D01*
X8240Y14392D01*
X8239Y14386D01*
X8238Y14379D01*
X8320D01*
Y14380D01*
X8320Y14383D01*
X8319Y14387D01*
X8317Y14393D01*
X8316Y14399D01*
X8313Y14404D01*
X8310Y14410D01*
X8307Y14414D01*
X8306Y14415D01*
X8305Y14416D01*
X8303Y14418D01*
X8299Y14420D01*
X8296Y14422D01*
X8291Y14424D01*
X8285Y14425D01*
X8279Y14425D01*
D02*
G37*
G36*
X9813D02*
X9810D01*
X9806Y14425D01*
X9802Y14424D01*
X9797Y14421D01*
X9791Y14418D01*
X9786Y14414D01*
X9781Y14409D01*
X9781Y14409D01*
X9780Y14407D01*
X9779Y14405D01*
X9777Y14402D01*
X9775Y14397D01*
X9774Y14392D01*
X9773Y14386D01*
X9772Y14379D01*
X9854D01*
Y14380D01*
X9854Y14383D01*
X9853Y14387D01*
X9851Y14393D01*
X9850Y14399D01*
X9847Y14404D01*
X9844Y14410D01*
X9841Y14414D01*
X9840Y14415D01*
X9839Y14416D01*
X9837Y14418D01*
X9833Y14420D01*
X9830Y14422D01*
X9825Y14424D01*
X9819Y14425D01*
X9813Y14425D01*
D02*
G37*
G36*
X6168Y15035D02*
X6144D01*
Y14869D01*
X6172D01*
X6177Y14870D01*
X6183D01*
X6197Y14872D01*
X6204Y14873D01*
X6209Y14875D01*
X6210Y14876D01*
X6211Y14877D01*
X6213Y14878D01*
X6216Y14881D01*
X6219Y14884D01*
X6223Y14888D01*
X6226Y14892D01*
X6228Y14898D01*
X6229Y14899D01*
X6230Y14901D01*
X6231Y14905D01*
X6233Y14911D01*
X6234Y14918D01*
X6235Y14928D01*
X6235Y14938D01*
X6236Y14951D01*
Y14952D01*
Y14953D01*
Y14956D01*
Y14959D01*
X6235Y14963D01*
Y14967D01*
X6234Y14977D01*
X6232Y14988D01*
X6229Y14999D01*
X6225Y15009D01*
X6223Y15014D01*
X6220Y15017D01*
X6219Y15018D01*
X6217Y15020D01*
X6213Y15023D01*
X6207Y15026D01*
X6200Y15029D01*
X6191Y15032D01*
X6180Y15035D01*
X6168Y15035D01*
D02*
G37*
G36*
X8237Y14976D02*
X8233D01*
X8230Y14975D01*
X8225Y14974D01*
X8220Y14971D01*
X8214Y14968D01*
X8209Y14964D01*
X8205Y14959D01*
X8204Y14959D01*
X8203Y14957D01*
X8202Y14955D01*
X8200Y14952D01*
X8199Y14947D01*
X8198Y14942D01*
X8196Y14936D01*
X8195Y14929D01*
X8278D01*
Y14930D01*
X8277Y14933D01*
X8277Y14937D01*
X8275Y14943D01*
X8273Y14949D01*
X8271Y14954D01*
X8268Y14960D01*
X8264Y14964D01*
X8264Y14965D01*
X8262Y14966D01*
X8260Y14968D01*
X8257Y14970D01*
X8253Y14972D01*
X8248Y14974D01*
X8243Y14975D01*
X8237Y14976D01*
D02*
G37*
G36*
X7662Y14964D02*
X7659D01*
X7656Y14963D01*
X7653Y14962D01*
X7649Y14961D01*
X7645Y14959D01*
X7641Y14956D01*
X7637Y14952D01*
X7636Y14951D01*
X7635Y14949D01*
X7634Y14946D01*
X7632Y14942D01*
X7630Y14937D01*
X7629Y14930D01*
X7628Y14922D01*
X7627Y14912D01*
Y14911D01*
Y14908D01*
X7628Y14904D01*
X7628Y14899D01*
X7630Y14893D01*
X7631Y14887D01*
X7634Y14881D01*
X7637Y14877D01*
X7638Y14876D01*
X7639Y14875D01*
X7641Y14873D01*
X7644Y14871D01*
X7648Y14869D01*
X7652Y14867D01*
X7658Y14866D01*
X7663Y14866D01*
X7666D01*
X7669Y14866D01*
X7673Y14867D01*
X7677Y14868D01*
X7681Y14870D01*
X7686Y14873D01*
X7690Y14877D01*
X7690Y14878D01*
X7692Y14880D01*
X7693Y14882D01*
X7696Y14887D01*
X7697Y14891D01*
X7699Y14898D01*
X7700Y14905D01*
X7701Y14913D01*
Y14915D01*
Y14918D01*
X7700Y14922D01*
X7700Y14928D01*
X7698Y14933D01*
X7696Y14940D01*
X7693Y14946D01*
X7689Y14951D01*
X7689Y14952D01*
X7687Y14953D01*
X7685Y14955D01*
X7682Y14957D01*
X7677Y14960D01*
X7673Y14962D01*
X7668Y14963D01*
X7662Y14964D01*
D02*
G37*
G36*
X7945D02*
X7942D01*
X7940Y14963D01*
X7936Y14962D01*
X7932Y14961D01*
X7928Y14959D01*
X7924Y14956D01*
X7920Y14952D01*
X7919Y14951D01*
X7918Y14949D01*
X7917Y14946D01*
X7915Y14942D01*
X7913Y14937D01*
X7912Y14930D01*
X7911Y14922D01*
X7910Y14912D01*
Y14911D01*
Y14908D01*
X7911Y14904D01*
X7911Y14899D01*
X7913Y14893D01*
X7914Y14887D01*
X7917Y14881D01*
X7920Y14877D01*
X7921Y14876D01*
X7922Y14875D01*
X7924Y14873D01*
X7927Y14871D01*
X7931Y14869D01*
X7935Y14867D01*
X7941Y14866D01*
X7947Y14866D01*
X7949D01*
X7952Y14866D01*
X7956Y14867D01*
X7960Y14868D01*
X7964Y14870D01*
X7969Y14873D01*
X7973Y14877D01*
X7973Y14878D01*
X7975Y14880D01*
X7976Y14882D01*
X7979Y14887D01*
X7980Y14891D01*
X7982Y14898D01*
X7983Y14905D01*
X7984Y14913D01*
Y14915D01*
Y14918D01*
X7983Y14922D01*
X7983Y14928D01*
X7981Y14933D01*
X7979Y14940D01*
X7976Y14946D01*
X7972Y14951D01*
X7972Y14952D01*
X7971Y14953D01*
X7968Y14955D01*
X7965Y14957D01*
X7961Y14960D01*
X7957Y14962D01*
X7951Y14963D01*
X7945Y14964D01*
D02*
G37*
G36*
X13086Y9175D02*
X13053Y9066D01*
X13120D01*
X13086Y9175D01*
D02*
G37*
G36*
X12741Y9185D02*
X12718D01*
Y9019D01*
X12745D01*
X12750Y9020D01*
X12757D01*
X12771Y9022D01*
X12777Y9023D01*
X12783Y9025D01*
X12783Y9026D01*
X12785Y9027D01*
X12787Y9028D01*
X12790Y9031D01*
X12793Y9034D01*
X12796Y9038D01*
X12799Y9042D01*
X12802Y9048D01*
X12803Y9049D01*
X12803Y9051D01*
X12804Y9055D01*
X12806Y9061D01*
X12807Y9068D01*
X12808Y9078D01*
X12809Y9088D01*
X12810Y9101D01*
Y9102D01*
Y9103D01*
Y9106D01*
Y9109D01*
X12809Y9113D01*
Y9117D01*
X12808Y9127D01*
X12805Y9138D01*
X12803Y9149D01*
X12798Y9159D01*
X12796Y9164D01*
X12793Y9167D01*
X12793Y9168D01*
X12790Y9170D01*
X12786Y9173D01*
X12781Y9176D01*
X12773Y9179D01*
X12764Y9182D01*
X12754Y9185D01*
X12741Y9185D01*
D02*
G37*
G36*
X3880Y15185D02*
X3857D01*
Y15019D01*
X3884D01*
X3890Y15020D01*
X3896D01*
X3910Y15022D01*
X3917Y15023D01*
X3922Y15025D01*
X3922Y15026D01*
X3924Y15027D01*
X3926Y15028D01*
X3929Y15031D01*
X3932Y15034D01*
X3935Y15038D01*
X3938Y15042D01*
X3941Y15048D01*
X3942Y15049D01*
X3942Y15051D01*
X3943Y15055D01*
X3945Y15061D01*
X3946Y15068D01*
X3948Y15078D01*
X3948Y15088D01*
X3949Y15101D01*
Y15102D01*
Y15103D01*
Y15106D01*
Y15109D01*
X3948Y15113D01*
Y15117D01*
X3947Y15127D01*
X3945Y15138D01*
X3942Y15149D01*
X3938Y15159D01*
X3935Y15164D01*
X3932Y15167D01*
X3932Y15168D01*
X3929Y15170D01*
X3925Y15173D01*
X3920Y15176D01*
X3912Y15179D01*
X3904Y15182D01*
X3893Y15185D01*
X3880Y15185D01*
D02*
G37*
G36*
X3564Y15175D02*
X3531Y15066D01*
X3598D01*
X3564Y15175D01*
D02*
G37*
G36*
X7297Y14354D02*
X7297D01*
X7294Y14353D01*
X7291Y14352D01*
X7286Y14351D01*
X7281Y14349D01*
X7274Y14347D01*
X7261Y14343D01*
X7260Y14342D01*
X7257Y14342D01*
X7252Y14341D01*
X7248Y14339D01*
X7242Y14337D01*
X7236Y14334D01*
X7232Y14332D01*
X7228Y14330D01*
Y14329D01*
X7227Y14328D01*
X7225Y14325D01*
X7223Y14320D01*
X7222Y14317D01*
X7222Y14314D01*
Y14313D01*
Y14312D01*
X7222Y14310D01*
Y14308D01*
X7225Y14303D01*
X7226Y14300D01*
X7228Y14297D01*
X7229D01*
X7229Y14296D01*
X7231Y14296D01*
X7233Y14294D01*
X7236Y14293D01*
X7240Y14293D01*
X7244Y14292D01*
X7251D01*
X7254Y14292D01*
X7257D01*
X7266Y14294D01*
X7270Y14296D01*
X7274Y14298D01*
X7275Y14299D01*
X7276Y14299D01*
X7279Y14301D01*
X7281Y14303D01*
X7287Y14308D01*
X7290Y14311D01*
X7292Y14315D01*
Y14316D01*
X7293Y14317D01*
X7294Y14319D01*
X7295Y14322D01*
X7296Y14325D01*
X7297Y14330D01*
X7297Y14335D01*
Y14340D01*
Y14354D01*
D02*
G37*
G36*
X780Y15185D02*
X757D01*
Y15019D01*
X784D01*
X790Y15020D01*
X796D01*
X810Y15022D01*
X817Y15023D01*
X822Y15025D01*
X822Y15026D01*
X824Y15027D01*
X826Y15028D01*
X829Y15031D01*
X832Y15034D01*
X835Y15038D01*
X838Y15042D01*
X841Y15048D01*
X842Y15049D01*
X842Y15051D01*
X843Y15055D01*
X845Y15061D01*
X846Y15068D01*
X848Y15078D01*
X848Y15088D01*
X849Y15101D01*
Y15102D01*
Y15103D01*
Y15106D01*
Y15109D01*
X848Y15113D01*
Y15117D01*
X847Y15127D01*
X845Y15138D01*
X842Y15149D01*
X838Y15159D01*
X835Y15164D01*
X832Y15167D01*
X832Y15168D01*
X829Y15170D01*
X825Y15173D01*
X820Y15176D01*
X812Y15179D01*
X804Y15182D01*
X793Y15185D01*
X780Y15185D01*
D02*
G37*
G36*
X6839Y14417D02*
X6836D01*
X6833Y14417D01*
X6829Y14416D01*
X6823Y14414D01*
X6819Y14411D01*
X6813Y14407D01*
X6809Y14403D01*
X6808Y14402D01*
X6807Y14400D01*
X6805Y14397D01*
X6803Y14392D01*
X6801Y14386D01*
X6799Y14379D01*
X6798Y14370D01*
X6797Y14359D01*
Y14359D01*
Y14358D01*
Y14355D01*
X6798Y14349D01*
X6799Y14343D01*
X6800Y14335D01*
X6802Y14328D01*
X6805Y14321D01*
X6809Y14316D01*
X6809Y14315D01*
X6811Y14313D01*
X6813Y14311D01*
X6817Y14309D01*
X6821Y14306D01*
X6826Y14304D01*
X6832Y14302D01*
X6839Y14301D01*
X6842D01*
X6845Y14302D01*
X6849Y14303D01*
X6854Y14305D01*
X6859Y14307D01*
X6864Y14310D01*
X6868Y14315D01*
X6869Y14316D01*
X6870Y14318D01*
X6872Y14321D01*
X6874Y14326D01*
X6877Y14332D01*
X6878Y14340D01*
X6880Y14349D01*
X6880Y14360D01*
Y14361D01*
Y14361D01*
Y14365D01*
X6880Y14370D01*
X6878Y14376D01*
X6877Y14383D01*
X6875Y14390D01*
X6872Y14397D01*
X6868Y14403D01*
X6867Y14403D01*
X6866Y14405D01*
X6863Y14407D01*
X6860Y14410D01*
X6856Y14413D01*
X6851Y14415D01*
X6845Y14417D01*
X6839Y14417D01*
D02*
G37*
G36*
X8737Y14354D02*
X8736D01*
X8734Y14353D01*
X8731Y14352D01*
X8726Y14351D01*
X8721Y14349D01*
X8714Y14347D01*
X8701Y14343D01*
X8699Y14342D01*
X8697Y14342D01*
X8692Y14341D01*
X8687Y14339D01*
X8681Y14337D01*
X8676Y14334D01*
X8671Y14332D01*
X8668Y14330D01*
Y14329D01*
X8667Y14328D01*
X8665Y14325D01*
X8663Y14320D01*
X8662Y14317D01*
X8661Y14314D01*
Y14313D01*
Y14312D01*
X8662Y14310D01*
Y14308D01*
X8664Y14303D01*
X8666Y14300D01*
X8668Y14297D01*
X8669D01*
X8669Y14296D01*
X8671Y14296D01*
X8673Y14294D01*
X8676Y14293D01*
X8680Y14293D01*
X8684Y14292D01*
X8691D01*
X8694Y14292D01*
X8697D01*
X8705Y14294D01*
X8709Y14296D01*
X8714Y14298D01*
X8715Y14299D01*
X8716Y14299D01*
X8718Y14301D01*
X8721Y14303D01*
X8727Y14308D01*
X8729Y14311D01*
X8732Y14315D01*
Y14316D01*
X8732Y14317D01*
X8733Y14319D01*
X8735Y14322D01*
X8735Y14325D01*
X8736Y14330D01*
X8737Y14335D01*
Y14340D01*
Y14354D01*
D02*
G37*
G36*
X7387Y14967D02*
X7384D01*
X7380Y14967D01*
X7376Y14966D01*
X7371Y14964D01*
X7366Y14961D01*
X7361Y14957D01*
X7356Y14953D01*
X7356Y14952D01*
X7355Y14950D01*
X7353Y14947D01*
X7350Y14942D01*
X7348Y14936D01*
X7346Y14929D01*
X7345Y14920D01*
X7345Y14909D01*
Y14909D01*
Y14908D01*
Y14905D01*
X7345Y14899D01*
X7346Y14893D01*
X7348Y14885D01*
X7349Y14878D01*
X7352Y14871D01*
X7356Y14866D01*
X7357Y14865D01*
X7359Y14863D01*
X7361Y14861D01*
X7364Y14858D01*
X7369Y14856D01*
X7374Y14854D01*
X7380Y14852D01*
X7386Y14851D01*
X7389D01*
X7393Y14852D01*
X7397Y14853D01*
X7401Y14855D01*
X7407Y14857D01*
X7411Y14860D01*
X7416Y14865D01*
X7417Y14866D01*
X7418Y14868D01*
X7419Y14871D01*
X7422Y14876D01*
X7424Y14882D01*
X7426Y14890D01*
X7427Y14899D01*
X7428Y14910D01*
Y14911D01*
Y14911D01*
Y14915D01*
X7427Y14920D01*
X7426Y14926D01*
X7425Y14933D01*
X7422Y14940D01*
X7419Y14947D01*
X7415Y14953D01*
X7415Y14953D01*
X7413Y14955D01*
X7411Y14957D01*
X7407Y14960D01*
X7403Y14963D01*
X7398Y14965D01*
X7393Y14967D01*
X7387Y14967D01*
D02*
G37*
G36*
X14638Y6585D02*
X14615D01*
Y6419D01*
X14642D01*
X14648Y6420D01*
X14654D01*
X14668Y6422D01*
X14675Y6423D01*
X14680Y6425D01*
X14680Y6426D01*
X14682Y6427D01*
X14684Y6428D01*
X14687Y6431D01*
X14690Y6434D01*
X14693Y6438D01*
X14696Y6442D01*
X14699Y6448D01*
X14700Y6449D01*
X14700Y6451D01*
X14701Y6455D01*
X14703Y6461D01*
X14704Y6468D01*
X14706Y6478D01*
X14706Y6488D01*
X14707Y6501D01*
Y6502D01*
Y6503D01*
Y6506D01*
Y6509D01*
X14706Y6513D01*
Y6517D01*
X14705Y6527D01*
X14703Y6538D01*
X14700Y6549D01*
X14696Y6559D01*
X14693Y6564D01*
X14690Y6567D01*
X14690Y6568D01*
X14687Y6570D01*
X14683Y6573D01*
X14678Y6576D01*
X14670Y6579D01*
X14662Y6582D01*
X14651Y6585D01*
X14638Y6585D01*
D02*
G37*
G36*
X464Y15175D02*
X431Y15066D01*
X498D01*
X464Y15175D01*
D02*
G37*
G36*
X6995Y14904D02*
X6995D01*
X6992Y14903D01*
X6989Y14902D01*
X6984Y14901D01*
X6979Y14899D01*
X6973Y14897D01*
X6959Y14893D01*
X6958Y14892D01*
X6955Y14892D01*
X6950Y14891D01*
X6946Y14889D01*
X6940Y14887D01*
X6935Y14884D01*
X6930Y14882D01*
X6926Y14880D01*
Y14879D01*
X6925Y14878D01*
X6923Y14875D01*
X6921Y14870D01*
X6920Y14867D01*
X6920Y14864D01*
Y14863D01*
Y14862D01*
X6920Y14860D01*
Y14858D01*
X6923Y14853D01*
X6924Y14850D01*
X6926Y14847D01*
X6927D01*
X6927Y14846D01*
X6929Y14846D01*
X6932Y14844D01*
X6935Y14843D01*
X6938Y14843D01*
X6942Y14842D01*
X6949D01*
X6952Y14842D01*
X6956D01*
X6964Y14844D01*
X6968Y14846D01*
X6973Y14848D01*
X6973Y14849D01*
X6974Y14849D01*
X6977Y14851D01*
X6980Y14853D01*
X6985Y14858D01*
X6988Y14861D01*
X6990Y14865D01*
Y14866D01*
X6991Y14867D01*
X6992Y14869D01*
X6993Y14872D01*
X6994Y14875D01*
X6995Y14880D01*
X6995Y14885D01*
Y14890D01*
Y14904D01*
D02*
G37*
%LPD*%
D38*
X14394Y13777D02*
G03*
X14394Y13777I-20J0D01*
G01*
D39*
X12122Y12222D02*
G03*
X12122Y12222I-49J0D01*
G01*
X6042Y12939D02*
G03*
X6042Y12939I-49J0D01*
G01*
X4705Y8759D02*
G03*
X4705Y8759I-49J0D01*
G01*
X2594Y5465D02*
G03*
X2594Y5465I-49J0D01*
G01*
X711Y2835D02*
G03*
X711Y2835I-49J0D01*
G01*
D40*
X7478Y1600D02*
G03*
X7478Y1600I-689J0D01*
G01*
X5600Y450D02*
X8050D01*
Y2750D01*
X5600D02*
X8050D01*
X5600Y450D02*
Y2750D01*
D41*
X5739Y8130D02*
G03*
X5739Y8130I-118J0D01*
G01*
X1764Y2439D02*
G03*
X1764Y2439I-118J0D01*
G01*
D42*
X13626Y12281D02*
Y13619D01*
X14374Y12281D02*
Y13619D01*
X11541Y12340D02*
X11659D01*
X11541Y13560D02*
X11659D01*
Y12340D02*
Y13560D01*
X11541Y12340D02*
Y13560D01*
X12500Y6850D02*
Y8850D01*
Y6850D02*
X14500D01*
X12500Y8850D02*
X14500D01*
Y6850D02*
Y8850D01*
X6426Y11640D02*
X7174D01*
X6426Y12860D02*
X7174D01*
Y11640D02*
Y12860D01*
X6426Y11640D02*
Y12860D01*
X5227Y5177D02*
Y8523D01*
X8573Y5177D02*
Y8523D01*
X5227D02*
X8573D01*
X5227Y5177D02*
X8573D01*
X1954Y5566D02*
Y7534D01*
X1246Y5566D02*
Y7534D01*
Y5566D02*
X1954D01*
X1246Y7534D02*
X1954D01*
X1252Y667D02*
Y2833D01*
X2748Y667D02*
Y2833D01*
X1252D02*
X2748D01*
X1252Y667D02*
X2748D01*
X800Y14850D02*
X2717D01*
X800D02*
X3800D01*
X800Y12850D02*
X3800D01*
Y14850D01*
X800Y12850D02*
Y14850D01*
D43*
X11490Y6180D02*
X11520D01*
X11470Y6170D02*
X11520D01*
X11460Y6160D02*
X11520D01*
X11450Y6150D02*
X11520D01*
X11440Y6140D02*
X11520D01*
X11430Y6130D02*
X11520D01*
X11420Y6120D02*
X11510D01*
X11410Y6110D02*
X11510D01*
X11390Y6100D02*
X11510D01*
X11380Y6090D02*
X11500D01*
X11370Y6080D02*
X11500D01*
X11350Y6070D02*
X11500D01*
X11330Y6060D02*
X11500D01*
X11320Y6050D02*
X11490D01*
X11300Y6040D02*
X11490D01*
X11280Y6030D02*
X11490D01*
X11270Y6020D02*
X11490D01*
X11260Y6010D02*
X11490D01*
X11250Y6000D02*
X11490D01*
X11240Y5990D02*
X11490D01*
X11230Y5980D02*
X11490D01*
X11230Y5970D02*
X11490D01*
X11220Y5960D02*
X11490D01*
X11210Y5950D02*
X11490D01*
X11210Y5940D02*
X11490D01*
X11210Y5930D02*
X11490D01*
X11200Y5920D02*
X11490D01*
X11200Y5910D02*
X11490D01*
X11200Y5900D02*
X11490D01*
X11200Y5890D02*
X11490D01*
X11200Y5880D02*
X11490D01*
X11200Y5870D02*
X11490D01*
X11200Y5860D02*
X11490D01*
X11200Y5850D02*
X11490D01*
X11210Y5840D02*
X11490D01*
X11210Y5830D02*
X11490D01*
X11210Y5820D02*
X11490D01*
X11220Y5810D02*
X11490D01*
X11220Y5800D02*
X11490D01*
X11220Y5790D02*
X11490D01*
X11220Y5780D02*
X11490D01*
X11220Y5770D02*
X11480D01*
X11220Y5760D02*
X11480D01*
X11210Y5750D02*
X11480D01*
X11200Y5740D02*
X11470D01*
X11200Y5730D02*
X11460D01*
X11190Y5720D02*
X11440D01*
X11180Y5710D02*
X11420D01*
X11180Y5700D02*
X11410D01*
X11170Y5690D02*
X11390D01*
X11170Y5680D02*
X11380D01*
X11160Y5670D02*
X11370D01*
X11150Y5660D02*
X11370D01*
X11150Y5650D02*
X11360D01*
X11140Y5640D02*
X11360D01*
X11140Y5630D02*
X11360D01*
X11130Y5620D02*
X11360D01*
X11130Y5610D02*
X11360D01*
X11120Y5600D02*
X11360D01*
X11120Y5590D02*
X11360D01*
X11110Y5580D02*
X11350D01*
X11110Y5570D02*
X11350D01*
X11110Y5560D02*
X11350D01*
X11100Y5550D02*
X11350D01*
X11100Y5540D02*
X11350D01*
X11090Y5530D02*
X11350D01*
X11090Y5520D02*
X11350D01*
X11080Y5510D02*
X11350D01*
X11080Y5500D02*
X11350D01*
X11080Y5490D02*
X11350D01*
X11070Y5480D02*
X11350D01*
X11070Y5470D02*
X11350D01*
X11060Y5460D02*
X11350D01*
X11060Y5450D02*
X11350D01*
X11050Y5440D02*
X11350D01*
X11050Y5430D02*
X11350D01*
X11050Y5420D02*
X11350D01*
X11040Y5410D02*
X11350D01*
X11040Y5400D02*
X11350D01*
X11030Y5390D02*
X11360D01*
X11030Y5380D02*
X11360D01*
X11030Y5370D02*
X11360D01*
X11020Y5360D02*
X11360D01*
X11020Y5350D02*
X11360D01*
X11020Y5340D02*
X11360D01*
X11010Y5330D02*
X11360D01*
X11010Y5320D02*
X11360D01*
X11010Y5310D02*
X11360D01*
X11010Y5300D02*
X11360D01*
X11000Y5290D02*
X11360D01*
X11000Y5280D02*
X11360D01*
X11000Y5270D02*
X11360D01*
X10990Y5260D02*
X11360D01*
X10990Y5250D02*
X11350D01*
X10990Y5240D02*
X11350D01*
X10980Y5230D02*
X11350D01*
X10980Y5220D02*
X11350D01*
X10980Y5210D02*
X11350D01*
X10970Y5200D02*
X11350D01*
X10970Y5190D02*
X11340D01*
X10970Y5180D02*
X11340D01*
X10960Y5170D02*
X11340D01*
X10960Y5160D02*
X11340D01*
X10960Y5150D02*
X11330D01*
X10950Y5140D02*
X11330D01*
X10950Y5130D02*
X11330D01*
X10950Y5120D02*
X11320D01*
X10940Y5110D02*
X11320D01*
X10940Y5100D02*
X11320D01*
X10940Y5090D02*
X11320D01*
X10930Y5080D02*
X11310D01*
X10930Y5070D02*
X11310D01*
X10930Y5060D02*
X11310D01*
X10920Y5050D02*
X11300D01*
X10920Y5040D02*
X11300D01*
X10920Y5030D02*
X11300D01*
X10920Y5020D02*
X11300D01*
X10920Y5010D02*
X11290D01*
X10920Y5000D02*
X11290D01*
X10920Y4990D02*
X11290D01*
X10930Y4980D02*
X11290D01*
X10950Y4970D02*
X11290D01*
X10950Y4960D02*
X11280D01*
X10940Y4950D02*
X11280D01*
X10940Y4940D02*
X11280D01*
X10930Y4930D02*
X11280D01*
X10930Y4920D02*
X11280D01*
X10930Y4910D02*
X11280D01*
X10930Y4900D02*
X11280D01*
X10930Y4890D02*
X11270D01*
X10920Y4880D02*
X11270D01*
X10930Y4870D02*
X11270D01*
X10930Y4860D02*
X11270D01*
X10930Y4850D02*
X11220D01*
X11230D02*
X11250D01*
X10930Y4840D02*
X11220D01*
X10930Y4830D02*
X11220D01*
X10930Y4820D02*
X11220D01*
X10930Y4810D02*
X11210D01*
X10930Y4800D02*
X11210D01*
X10930Y4790D02*
X11200D01*
X10930Y4780D02*
X11190D01*
X10920Y4770D02*
X11180D01*
X10920Y4760D02*
X11170D01*
X10920Y4750D02*
X11160D01*
X10910Y4740D02*
X11160D01*
X10900Y4730D02*
X11160D01*
X10890Y4720D02*
X11150D01*
X10880Y4710D02*
X11160D01*
X10860Y4700D02*
X11160D01*
X10840Y4690D02*
X11160D01*
X10820Y4680D02*
X11160D01*
X10810Y4670D02*
X11160D01*
X10790Y4660D02*
X11170D01*
X10760Y4650D02*
X11170D01*
X10740Y4640D02*
X11170D01*
X10710Y4630D02*
X11170D01*
X10660Y4620D02*
X10820D01*
X10840D02*
X11170D01*
X10590Y4610D02*
X10800D01*
X10830D02*
X11180D01*
X10520Y4600D02*
X10780D01*
X10820D02*
X11180D01*
X10470Y4590D02*
X10760D01*
X10810D02*
X11180D01*
X10430Y4580D02*
X10730D01*
X10800D02*
X11000D01*
X11010D02*
X11180D01*
X10410Y4570D02*
X10700D01*
X10790D02*
X11000D01*
X11010D02*
X11180D01*
X10390Y4560D02*
X10650D01*
X10780D02*
X10990D01*
X11010D02*
X11180D01*
X10370Y4550D02*
X10470D01*
X10770D02*
X10990D01*
X11000D02*
X11180D01*
X10360Y4540D02*
X10440D01*
X10760D02*
X10990D01*
X11000D02*
X11180D01*
X10350Y4530D02*
X10410D01*
X10750D02*
X10990D01*
X11000D02*
X11180D01*
X10330Y4520D02*
X10390D01*
X10740D02*
X10980D01*
X11000D02*
X11180D01*
X10320Y4510D02*
X10380D01*
X10730D02*
X10980D01*
X11000D02*
X11180D01*
X10310Y4500D02*
X10360D01*
X10720D02*
X10980D01*
X11000D02*
X11180D01*
X10300Y4490D02*
X10350D01*
X10710D02*
X10970D01*
X11000D02*
X11180D01*
X10300Y4480D02*
X10340D01*
X10700D02*
X10970D01*
X10990D02*
X11180D01*
X10290Y4470D02*
X10330D01*
X10690D02*
X10970D01*
X10990D02*
X11180D01*
X10280Y4460D02*
X10320D01*
X10680D02*
X10960D01*
X10990D02*
X11170D01*
X10270Y4450D02*
X10310D01*
X10670D02*
X10770D01*
X10780D02*
X10960D01*
X10990D02*
X11170D01*
X10270Y4440D02*
X10300D01*
X10660D02*
X10760D01*
X10770D02*
X10950D01*
X10990D02*
X11170D01*
X10260Y4430D02*
X10300D01*
X10650D02*
X10750D01*
X10760D02*
X10950D01*
X10980D02*
X11110D01*
X11120D02*
X11170D01*
X10250Y4420D02*
X10290D01*
X10630D02*
X10740D01*
X10760D02*
X10940D01*
X10980D02*
X11090D01*
X11120D02*
X11170D01*
X10250Y4410D02*
X10280D01*
X10620D02*
X10720D01*
X10750D02*
X10940D01*
X10980D02*
X11080D01*
X11120D02*
X11160D01*
X10240Y4400D02*
X10280D01*
X10600D02*
X10710D01*
X10740D02*
X10840D01*
X10850D02*
X10930D01*
X10970D02*
X11060D01*
X11120D02*
X11160D01*
X10240Y4390D02*
X10270D01*
X10500D02*
X10520D01*
X10580D02*
X10690D01*
X10730D02*
X10840D01*
X10850D02*
X10930D01*
X10970D02*
X11050D01*
X11110D02*
X11150D01*
X10230Y4380D02*
X10260D01*
X10510D02*
X10530D01*
X10560D02*
X10680D01*
X10730D02*
X10830D01*
X10850D02*
X10920D01*
X10970D02*
X11030D01*
X11110D02*
X11150D01*
X10230Y4370D02*
X10260D01*
X10510D02*
X10670D01*
X10720D02*
X10820D01*
X10850D02*
X10920D01*
X10960D02*
X11030D01*
X11110D02*
X11150D01*
X10220Y4360D02*
X10250D01*
X10510D02*
X10650D01*
X10710D02*
X10820D01*
X10860D02*
X10920D01*
X10960D02*
X11020D01*
X11100D02*
X11150D01*
X10220Y4350D02*
X10250D01*
X10520D02*
X10640D01*
X10700D02*
X10810D01*
X10850D02*
X10910D01*
X10950D02*
X11010D01*
X11100D02*
X11140D01*
X10210Y4340D02*
X10250D01*
X10520D02*
X10620D01*
X10680D02*
X10800D01*
X10850D02*
X10910D01*
X10950D02*
X11010D01*
X11100D02*
X11140D01*
X10210Y4330D02*
X10240D01*
X10560D02*
X10590D01*
X10660D02*
X10790D01*
X10840D02*
X10920D01*
X10940D02*
X11000D01*
X11090D02*
X11140D01*
X10210Y4320D02*
X10240D01*
X10640D02*
X10780D01*
X10830D02*
X10920D01*
X10940D02*
X11000D01*
X11080D02*
X11140D01*
X10200Y4310D02*
X10240D01*
X10460D02*
X10470D01*
X10630D02*
X10770D01*
X10830D02*
X10920D01*
X10930D02*
X10990D01*
X11080D02*
X11140D01*
X10200Y4300D02*
X10230D01*
X10460D02*
X10480D01*
X10610D02*
X10760D01*
X10820D02*
X10920D01*
X10930D02*
X10990D01*
X11070D02*
X11130D01*
X10200Y4290D02*
X10230D01*
X10460D02*
X10490D01*
X10590D02*
X10750D01*
X10820D02*
X10990D01*
X11070D02*
X11130D01*
X10200Y4280D02*
X10230D01*
X10460D02*
X10500D01*
X10570D02*
X10740D01*
X10820D02*
X10980D01*
X11060D02*
X11130D01*
X10190Y4270D02*
X10220D01*
X10460D02*
X10520D01*
X10550D02*
X10720D01*
X10810D02*
X10980D01*
X11060D02*
X11130D01*
X10190Y4260D02*
X10220D01*
X10470D02*
X10710D01*
X10800D02*
X10970D01*
X11050D02*
X11130D01*
X10190Y4250D02*
X10220D01*
X10470D02*
X10700D01*
X10800D02*
X10850D01*
X10860D02*
X10970D01*
X11040D02*
X11130D01*
X10190Y4240D02*
X10220D01*
X10480D02*
X10680D01*
X10790D02*
X10840D01*
X10850D02*
X10960D01*
X11030D02*
X11120D01*
X10180Y4230D02*
X10220D01*
X10480D02*
X10650D01*
X10780D02*
X10830D01*
X10850D02*
X10960D01*
X11020D02*
X11120D01*
X10180Y4220D02*
X10220D01*
X10490D02*
X10640D01*
X10770D02*
X10820D01*
X10850D02*
X10950D01*
X11010D02*
X11120D01*
X10180Y4210D02*
X10220D01*
X10500D02*
X10610D01*
X10760D02*
X10820D01*
X10850D02*
X10950D01*
X11000D02*
X11070D01*
X11080D02*
X11120D01*
X10180Y4200D02*
X10220D01*
X10520D02*
X10590D01*
X10750D02*
X10810D01*
X10850D02*
X10940D01*
X10990D02*
X11070D01*
X11080D02*
X11120D01*
X10180Y4190D02*
X10220D01*
X10740D02*
X10800D01*
X10840D02*
X10940D01*
X10990D02*
X11060D01*
X11080D02*
X11120D01*
X10180Y4180D02*
X10220D01*
X10720D02*
X10790D01*
X10840D02*
X10930D01*
X10980D02*
X11050D01*
X11080D02*
X11120D01*
X10180Y4170D02*
X10220D01*
X10700D02*
X10780D01*
X10840D02*
X10930D01*
X10970D02*
X11040D01*
X11080D02*
X11120D01*
X10180Y4160D02*
X10220D01*
X10680D02*
X10770D01*
X10840D02*
X10920D01*
X10960D02*
X11030D01*
X11080D02*
X11120D01*
X10180Y4150D02*
X10230D01*
X10670D02*
X10760D01*
X10840D02*
X10920D01*
X10950D02*
X11030D01*
X11080D02*
X11120D01*
X10190Y4140D02*
X10230D01*
X10640D02*
X10740D01*
X10840D02*
X10910D01*
X10940D02*
X11020D01*
X11080D02*
X11120D01*
X10190Y4130D02*
X10230D01*
X10630D02*
X10730D01*
X10840D02*
X10910D01*
X10930D02*
X11010D01*
X11080D02*
X11120D01*
X10190Y4120D02*
X10240D01*
X10620D02*
X10710D01*
X10840D02*
X10900D01*
X10920D02*
X11000D01*
X11080D02*
X11120D01*
X10190Y4110D02*
X10250D01*
X10610D02*
X10690D01*
X10840D02*
X10900D01*
X10910D02*
X10990D01*
X11080D02*
X11120D01*
X10190Y4100D02*
X10260D01*
X10600D02*
X10660D01*
X10840D02*
X10980D01*
X11080D02*
X11120D01*
X10200Y4090D02*
X10270D01*
X10600D02*
X10640D01*
X10840D02*
X10970D01*
X11080D02*
X11120D01*
X10200Y4080D02*
X10270D01*
X10590D02*
X10620D01*
X10840D02*
X10960D01*
X11070D02*
X11120D01*
X10200Y4070D02*
X10280D01*
X10840D02*
X10950D01*
X11070D02*
X11120D01*
X10200Y4060D02*
X10280D01*
X10850D02*
X10930D01*
X11070D02*
X11110D01*
X10200Y4050D02*
X10290D01*
X10840D02*
X10920D01*
X11070D02*
X11110D01*
X10210Y4040D02*
X10290D01*
X10820D02*
X10910D01*
X11070D02*
X11110D01*
X10210Y4030D02*
X10300D01*
X10800D02*
X10890D01*
X11070D02*
X11110D01*
X10210Y4020D02*
X10300D01*
X10780D02*
X10880D01*
X11070D02*
X11110D01*
X10210Y4010D02*
X10310D01*
X10760D02*
X10860D01*
X11060D02*
X11110D01*
X10220Y4000D02*
X10310D01*
X10760D02*
X10840D01*
X11060D02*
X11100D01*
X10220Y3990D02*
X10320D01*
X10790D02*
X10810D01*
X11060D02*
X11100D01*
X10220Y3980D02*
X10320D01*
X11060D02*
X11100D01*
X10220Y3970D02*
X10330D01*
X11050D02*
X11100D01*
X10230Y3960D02*
X10340D01*
X11050D02*
X11090D01*
X10230Y3950D02*
X10340D01*
X11050D02*
X11090D01*
X10240Y3940D02*
X10340D01*
X11040D02*
X11080D01*
X10250Y3930D02*
X10350D01*
X11040D02*
X11080D01*
X10250Y3920D02*
X10350D01*
X11030D02*
X11080D01*
X10270Y3910D02*
X10350D01*
X11020D02*
X11070D01*
X10280Y3900D02*
X10350D01*
X11020D02*
X11060D01*
X10290Y3890D02*
X10350D01*
X11010D02*
X11060D01*
X10290Y3880D02*
X10340D01*
X11000D02*
X11050D01*
X10300Y3870D02*
X10340D01*
X10990D02*
X11040D01*
X10300Y3860D02*
X10330D01*
X10980D02*
X11030D01*
X10300Y3850D02*
X10320D01*
X10600D02*
X10640D01*
X10970D02*
X11020D01*
X10490Y3840D02*
X10510D01*
X10570D02*
X10680D01*
X10950D02*
X11010D01*
X10490Y3830D02*
X10700D01*
X10930D02*
X11000D01*
X10490Y3820D02*
X10740D01*
X10900D02*
X10980D01*
X10500Y3810D02*
X10970D01*
X10500Y3800D02*
X10950D01*
X10510Y3790D02*
X10920D01*
X10520Y3780D02*
X10890D01*
X10550Y3770D02*
X10590D01*
X10610D02*
X10830D01*
X10640Y3760D02*
X10770D01*
X10680Y3750D02*
X10730D01*
M02*
