%FSLAX24Y24*%
%MOIN*%
G70*
G01*
G75*
G04 Layer_Color=8388736*
%ADD10C,0.0150*%
%ADD11C,0.0200*%
%ADD12C,0.0120*%
%ADD13R,0.0394X0.0394*%
%ADD14R,0.0472X0.0768*%
%ADD15R,0.0374X0.0394*%
%ADD16R,0.0394X0.0394*%
%ADD17R,0.0512X0.0276*%
G04:AMPARAMS|DCode=18|XSize=94.5mil|YSize=59.1mil|CornerRadius=14.8mil|HoleSize=0mil|Usage=FLASHONLY|Rotation=0.000|XOffset=0mil|YOffset=0mil|HoleType=Round|Shape=RoundedRectangle|*
%AMROUNDEDRECTD18*
21,1,0.0945,0.0295,0,0,0.0*
21,1,0.0650,0.0591,0,0,0.0*
1,1,0.0295,0.0325,-0.0148*
1,1,0.0295,-0.0325,-0.0148*
1,1,0.0295,-0.0325,0.0148*
1,1,0.0295,0.0325,0.0148*
%
%ADD18ROUNDEDRECTD18*%
%ADD19R,0.0433X0.0236*%
%ADD20R,0.0394X0.0374*%
%ADD21R,0.0551X0.0197*%
%ADD22R,0.1496X0.0984*%
G04:AMPARAMS|DCode=23|XSize=83mil|YSize=55mil|CornerRadius=13.8mil|HoleSize=0mil|Usage=FLASHONLY|Rotation=180.000|XOffset=0mil|YOffset=0mil|HoleType=Round|Shape=RoundedRectangle|*
%AMROUNDEDRECTD23*
21,1,0.0830,0.0275,0,0,180.0*
21,1,0.0555,0.0550,0,0,180.0*
1,1,0.0275,-0.0278,0.0138*
1,1,0.0275,0.0278,0.0138*
1,1,0.0275,0.0278,-0.0138*
1,1,0.0275,-0.0278,-0.0138*
%
%ADD23ROUNDEDRECTD23*%
%ADD24O,0.0551X0.0177*%
%ADD25O,0.0807X0.0236*%
%ADD26O,0.0236X0.0807*%
%ADD27O,0.0866X0.0236*%
%ADD28R,0.0591X0.0591*%
%ADD29C,0.0591*%
%ADD30R,0.0591X0.0591*%
%ADD31C,0.0500*%
%ADD32R,0.0591X0.0315*%
%ADD33R,0.0787X0.0571*%
%ADD34R,0.1378X0.0394*%
%ADD35R,0.1339X0.0591*%
%ADD36R,0.0472X0.1260*%
%ADD37R,0.0472X0.0866*%
%ADD38C,0.0039*%
%ADD39C,0.0098*%
%ADD40C,0.0100*%
%ADD41C,0.0236*%
%ADD42C,0.0079*%
%ADD43C,0.0010*%
%ADD44R,0.0474X0.0474*%
%ADD45R,0.0552X0.0848*%
%ADD46R,0.0454X0.0474*%
%ADD47R,0.0474X0.0474*%
%ADD48R,0.0592X0.0356*%
G04:AMPARAMS|DCode=49|XSize=102.5mil|YSize=67.1mil|CornerRadius=18.8mil|HoleSize=0mil|Usage=FLASHONLY|Rotation=0.000|XOffset=0mil|YOffset=0mil|HoleType=Round|Shape=RoundedRectangle|*
%AMROUNDEDRECTD49*
21,1,0.1025,0.0295,0,0,0.0*
21,1,0.0650,0.0671,0,0,0.0*
1,1,0.0375,0.0325,-0.0148*
1,1,0.0375,-0.0325,-0.0148*
1,1,0.0375,-0.0325,0.0148*
1,1,0.0375,0.0325,0.0148*
%
%ADD49ROUNDEDRECTD49*%
%ADD50R,0.0513X0.0316*%
%ADD51R,0.0474X0.0454*%
%ADD52R,0.0631X0.0277*%
%ADD53R,0.1576X0.1064*%
G04:AMPARAMS|DCode=54|XSize=91mil|YSize=63mil|CornerRadius=17.8mil|HoleSize=0mil|Usage=FLASHONLY|Rotation=180.000|XOffset=0mil|YOffset=0mil|HoleType=Round|Shape=RoundedRectangle|*
%AMROUNDEDRECTD54*
21,1,0.0910,0.0275,0,0,180.0*
21,1,0.0555,0.0630,0,0,180.0*
1,1,0.0355,-0.0278,0.0138*
1,1,0.0355,0.0278,0.0138*
1,1,0.0355,0.0278,-0.0138*
1,1,0.0355,-0.0278,-0.0138*
%
%ADD54ROUNDEDRECTD54*%
%ADD55O,0.0631X0.0257*%
%ADD56O,0.0887X0.0316*%
%ADD57O,0.0316X0.0887*%
%ADD58O,0.0946X0.0316*%
%ADD59R,0.0671X0.0671*%
%ADD60C,0.0671*%
%ADD61R,0.0671X0.0671*%
D44*
X10825Y11050D02*
D03*
X10175D02*
D03*
X6725Y13450D02*
D03*
X6075D02*
D03*
X10825Y11750D02*
D03*
X10175D02*
D03*
D45*
X14000Y12468D02*
D03*
Y13432D02*
D03*
D46*
X13000Y13265D02*
D03*
Y12635D02*
D03*
X10200Y13265D02*
D03*
Y12635D02*
D03*
X5000Y12365D02*
D03*
Y11735D02*
D03*
X8600Y12265D02*
D03*
Y11635D02*
D03*
X12300Y1465D02*
D03*
Y835D02*
D03*
X10400Y8265D02*
D03*
Y7635D02*
D03*
D47*
X12100Y11775D02*
D03*
Y11125D02*
D03*
X3900Y11475D02*
D03*
Y10825D02*
D03*
X2500Y11475D02*
D03*
Y10825D02*
D03*
X1800Y11475D02*
D03*
Y10825D02*
D03*
X1100Y11475D02*
D03*
Y10825D02*
D03*
X3200Y11475D02*
D03*
Y10825D02*
D03*
X400Y11475D02*
D03*
Y10825D02*
D03*
X10100Y1475D02*
D03*
Y825D02*
D03*
X10800Y1475D02*
D03*
Y825D02*
D03*
X11500Y1475D02*
D03*
Y825D02*
D03*
X9400Y2325D02*
D03*
Y2975D02*
D03*
X10100Y2325D02*
D03*
Y2975D02*
D03*
X10800Y2325D02*
D03*
Y2975D02*
D03*
X11500Y2325D02*
D03*
Y2975D02*
D03*
X9400Y1475D02*
D03*
Y825D02*
D03*
D48*
X12072Y12576D02*
D03*
Y12950D02*
D03*
Y13324D02*
D03*
X11128D02*
D03*
Y12576D02*
D03*
D49*
X1235Y3427D02*
D03*
D50*
X3400Y3604D02*
D03*
Y3250D02*
D03*
D51*
X585Y5150D02*
D03*
X1215D02*
D03*
X585Y4150D02*
D03*
X1215D02*
D03*
X7515Y3350D02*
D03*
X6885D02*
D03*
D52*
X13000Y2950D02*
D03*
Y3265D02*
D03*
Y3580D02*
D03*
Y2635D02*
D03*
Y2320D02*
D03*
D53*
X13945Y1296D02*
D03*
Y4604D02*
D03*
D54*
X8600Y750D02*
D03*
Y2520D02*
D03*
X5020Y750D02*
D03*
Y2520D02*
D03*
D55*
X7607Y11866D02*
D03*
Y12122D02*
D03*
Y12378D02*
D03*
Y12634D02*
D03*
X5993Y11866D02*
D03*
Y12122D02*
D03*
Y12378D02*
D03*
Y12634D02*
D03*
D56*
X4656Y8425D02*
D03*
Y8110D02*
D03*
Y7795D02*
D03*
Y7480D02*
D03*
Y7165D02*
D03*
Y6850D02*
D03*
Y6535D02*
D03*
Y6220D02*
D03*
Y5905D02*
D03*
Y5590D02*
D03*
Y5275D02*
D03*
X9144D02*
D03*
Y5590D02*
D03*
Y5905D02*
D03*
Y6220D02*
D03*
Y6535D02*
D03*
Y6850D02*
D03*
Y7165D02*
D03*
Y7480D02*
D03*
Y7795D02*
D03*
Y8110D02*
D03*
Y8425D02*
D03*
D57*
X5325Y4606D02*
D03*
X5640D02*
D03*
X5955D02*
D03*
X6270D02*
D03*
X6585D02*
D03*
X6900D02*
D03*
X7215D02*
D03*
X7530D02*
D03*
X7845D02*
D03*
X8160D02*
D03*
X8475D02*
D03*
Y9094D02*
D03*
X8160D02*
D03*
X7845D02*
D03*
X7530D02*
D03*
X7215D02*
D03*
X6900D02*
D03*
X6585D02*
D03*
X6270D02*
D03*
X5955D02*
D03*
X5640D02*
D03*
X5325D02*
D03*
D58*
X2545Y5800D02*
D03*
Y6300D02*
D03*
Y6800D02*
D03*
Y7300D02*
D03*
X655Y5800D02*
D03*
Y6300D02*
D03*
Y6800D02*
D03*
Y7300D02*
D03*
X661Y2500D02*
D03*
Y2000D02*
D03*
Y1500D02*
D03*
Y1000D02*
D03*
X3339Y2500D02*
D03*
Y2000D02*
D03*
Y1500D02*
D03*
Y1000D02*
D03*
D59*
X13000Y8350D02*
D03*
D60*
X14000D02*
D03*
X13000Y7350D02*
D03*
X14000D02*
D03*
X1300Y13350D02*
D03*
Y14350D02*
D03*
X2300Y13350D02*
D03*
Y14350D02*
D03*
X3300Y13350D02*
D03*
D61*
Y14350D02*
D03*
M02*
