%FSLAX24Y24*%
%MOIN*%
G70*
G01*
G75*
G04 Layer_Physical_Order=1*
G04 Layer_Color=255*
%ADD10C,0.0150*%
%ADD11C,0.0200*%
%ADD12C,0.0120*%
%ADD13R,0.0394X0.0394*%
%ADD14R,0.0472X0.0768*%
%ADD15R,0.0374X0.0394*%
%ADD16R,0.0394X0.0394*%
%ADD17R,0.0512X0.0276*%
G04:AMPARAMS|DCode=18|XSize=94.5mil|YSize=59.1mil|CornerRadius=14.8mil|HoleSize=0mil|Usage=FLASHONLY|Rotation=0.000|XOffset=0mil|YOffset=0mil|HoleType=Round|Shape=RoundedRectangle|*
%AMROUNDEDRECTD18*
21,1,0.0945,0.0295,0,0,0.0*
21,1,0.0650,0.0591,0,0,0.0*
1,1,0.0295,0.0325,-0.0148*
1,1,0.0295,-0.0325,-0.0148*
1,1,0.0295,-0.0325,0.0148*
1,1,0.0295,0.0325,0.0148*
%
%ADD18ROUNDEDRECTD18*%
%ADD19R,0.0433X0.0236*%
%ADD20R,0.0394X0.0374*%
%ADD21R,0.0551X0.0197*%
%ADD22R,0.1496X0.0984*%
G04:AMPARAMS|DCode=23|XSize=83mil|YSize=55mil|CornerRadius=13.8mil|HoleSize=0mil|Usage=FLASHONLY|Rotation=180.000|XOffset=0mil|YOffset=0mil|HoleType=Round|Shape=RoundedRectangle|*
%AMROUNDEDRECTD23*
21,1,0.0830,0.0275,0,0,180.0*
21,1,0.0555,0.0550,0,0,180.0*
1,1,0.0275,-0.0278,0.0138*
1,1,0.0275,0.0278,0.0138*
1,1,0.0275,0.0278,-0.0138*
1,1,0.0275,-0.0278,-0.0138*
%
%ADD23ROUNDEDRECTD23*%
%ADD24O,0.0551X0.0177*%
%ADD25O,0.0807X0.0236*%
%ADD26O,0.0236X0.0807*%
%ADD27O,0.0866X0.0236*%
%ADD28R,0.0591X0.0591*%
%ADD29C,0.0591*%
%ADD30R,0.0591X0.0591*%
%ADD31C,0.0500*%
G36*
X8648Y7537D02*
X8646Y7530D01*
X9144D01*
Y7430D01*
X8646D01*
X8653Y7395D01*
X8701Y7323D01*
X8701Y7323D01*
X8723Y7301D01*
X8681Y7238D01*
X8667Y7165D01*
X8681Y7092D01*
X8723Y7029D01*
Y6986D01*
X8681Y6923D01*
X8667Y6850D01*
X8681Y6777D01*
X8723Y6714D01*
Y6671D01*
X8681Y6608D01*
X8667Y6535D01*
X8681Y6462D01*
X8723Y6399D01*
Y6356D01*
X8681Y6293D01*
X8667Y6220D01*
X8681Y6147D01*
X8723Y6084D01*
Y6041D01*
X8681Y5979D01*
X8667Y5905D01*
X8681Y5832D01*
X8723Y5770D01*
Y5726D01*
X8681Y5664D01*
X8667Y5590D01*
X8681Y5517D01*
X8723Y5455D01*
Y5411D01*
X8681Y5349D01*
X8667Y5275D01*
X8681Y5202D01*
X8723Y5140D01*
X8785Y5098D01*
X8859Y5083D01*
X9084D01*
X9323Y4844D01*
X9323Y4844D01*
Y4844D01*
X9323Y4844D01*
X9336Y4831D01*
X9317Y4784D01*
X8667D01*
Y4891D01*
X8652Y4965D01*
X8610Y5027D01*
X8548Y5069D01*
X8475Y5083D01*
X8401Y5069D01*
X8339Y5027D01*
X8295D01*
X8233Y5069D01*
X8160Y5083D01*
X8086Y5069D01*
X8024Y5027D01*
X7980D01*
X7918Y5069D01*
X7845Y5083D01*
X7772Y5069D01*
X7734Y5100D01*
Y6795D01*
X8514Y7576D01*
X8616D01*
X8648Y7537D01*
D02*
G37*
G36*
X7261Y12391D02*
X7258Y12378D01*
X7271Y12316D01*
X7306Y12264D01*
Y12236D01*
X7271Y12184D01*
X7258Y12122D01*
X7271Y12060D01*
X7306Y12008D01*
Y11980D01*
X7271Y11928D01*
X7258Y11866D01*
X7271Y11804D01*
X7306Y11752D01*
X7358Y11717D01*
X7420Y11704D01*
X7534D01*
X7539Y11701D01*
X7607Y11688D01*
X7910D01*
X8174Y11424D01*
X8174Y11424D01*
X8207Y11402D01*
X8192Y11354D01*
X7065D01*
X7050Y11400D01*
X7106Y11473D01*
X7141Y11559D01*
X7146Y11600D01*
X6454D01*
X6459Y11559D01*
X6494Y11473D01*
X6550Y11400D01*
X6535Y11354D01*
X4784D01*
X4746Y11392D01*
X4766Y11438D01*
X4950D01*
Y11735D01*
X5000D01*
Y11785D01*
X5287D01*
Y12032D01*
D01*
Y12032D01*
X5287Y12032D01*
Y12068D01*
X5287D01*
Y12200D01*
X5620D01*
X5652Y12161D01*
X5644Y12122D01*
X5657Y12060D01*
X5676Y12031D01*
X5670Y12002D01*
X5628Y11940D01*
X5624Y11916D01*
X6374D01*
X6396Y11944D01*
X6528D01*
X6550Y11899D01*
X6494Y11827D01*
X6459Y11741D01*
X6454Y11700D01*
X7146D01*
X7141Y11741D01*
X7106Y11827D01*
X7050Y11900D01*
X6977Y11956D01*
X6891Y11991D01*
X6861Y11995D01*
X6845Y12042D01*
X7217Y12415D01*
X7261Y12391D01*
D02*
G37*
G36*
X15600Y100D02*
X4097D01*
X4081Y147D01*
X4150Y200D01*
X4206Y273D01*
X4241Y359D01*
X4253Y450D01*
X4241Y541D01*
X4206Y627D01*
X4150Y700D01*
X4077Y756D01*
X3991Y791D01*
X3900Y803D01*
X3817Y792D01*
X3802Y806D01*
X3783Y852D01*
X3784Y861D01*
X3789Y864D01*
X3831Y927D01*
X3845Y1000D01*
X3831Y1073D01*
X3789Y1136D01*
X3727Y1177D01*
X3654Y1192D01*
X3024D01*
X2950Y1177D01*
X2888Y1136D01*
X2846Y1073D01*
X2832Y1000D01*
X2846Y927D01*
X2888Y864D01*
X2950Y823D01*
X3024Y808D01*
X3278D01*
X3557Y529D01*
X3547Y450D01*
X3559Y359D01*
X3594Y273D01*
X3650Y200D01*
X3719Y147D01*
X3703Y100D01*
X100D01*
Y890D01*
X148Y905D01*
X189Y843D01*
X261Y795D01*
X346Y778D01*
X611D01*
Y1000D01*
Y1222D01*
X346D01*
X261Y1205D01*
X189Y1157D01*
X148Y1095D01*
X100Y1110D01*
Y2715D01*
X148Y2729D01*
X156Y2717D01*
X213Y2660D01*
X211Y2636D01*
X169Y2573D01*
X155Y2500D01*
X169Y2427D01*
X211Y2364D01*
X273Y2323D01*
X346Y2308D01*
X600D01*
X661Y2296D01*
X722Y2308D01*
X976D01*
X1050Y2323D01*
X1112Y2364D01*
X1154Y2427D01*
X1168Y2500D01*
X1154Y2573D01*
X1112Y2636D01*
X1050Y2677D01*
X976Y2692D01*
X758D01*
X504Y2946D01*
Y3780D01*
X564Y3840D01*
X564Y3840D01*
X564Y3840D01*
X583Y3860D01*
X587Y3862D01*
X595Y3863D01*
X834D01*
X839Y3813D01*
X813Y3808D01*
X731Y3753D01*
X677Y3671D01*
X657Y3575D01*
Y3280D01*
X677Y3183D01*
X731Y3101D01*
X813Y3046D01*
X910Y3027D01*
X1559D01*
X1656Y3046D01*
X1738Y3101D01*
X1793Y3183D01*
X1812Y3280D01*
Y3575D01*
X1793Y3671D01*
X1738Y3753D01*
X1656Y3808D01*
X1559Y3827D01*
X1512D01*
Y3863D01*
X1512D01*
Y4100D01*
X1215D01*
Y4200D01*
X1512D01*
Y4411D01*
X1512Y4411D01*
D01*
D01*
X1512Y4437D01*
D01*
X1521Y4446D01*
X1735D01*
X1750Y4400D01*
X1694Y4327D01*
X1659Y4241D01*
X1654Y4200D01*
X2346D01*
X2341Y4241D01*
X2306Y4327D01*
X2250Y4400D01*
X2265Y4446D01*
X3000D01*
X3078Y4462D01*
X3144Y4506D01*
X3144Y4506D01*
X3144Y4506D01*
X3444Y4806D01*
X3444Y4806D01*
X3467Y4840D01*
X3477Y4844D01*
X3550Y4900D01*
X3597Y4884D01*
Y4025D01*
X3597Y4025D01*
X3597D01*
X3610Y3957D01*
X3649Y3899D01*
X3679Y3869D01*
X3660Y3822D01*
X3384D01*
X3354Y3828D01*
X3090D01*
X3087Y3829D01*
Y3828D01*
X2500D01*
X2432Y3815D01*
X2374Y3776D01*
X2074Y3476D01*
X2035Y3418D01*
X2022Y3350D01*
X2022Y3350D01*
X2022D01*
X2022Y3350D01*
X2022D01*
Y2924D01*
X1276Y2178D01*
X1044D01*
X976Y2192D01*
X346D01*
X273Y2177D01*
X211Y2136D01*
X169Y2073D01*
X155Y2000D01*
X169Y1927D01*
X211Y1864D01*
X273Y1823D01*
X346Y1808D01*
X976D01*
X1044Y1822D01*
X1254D01*
X1273Y1775D01*
X1176Y1678D01*
X1044D01*
X976Y1692D01*
X346D01*
X273Y1677D01*
X211Y1636D01*
X169Y1573D01*
X155Y1500D01*
X169Y1427D01*
X211Y1364D01*
X273Y1323D01*
X346Y1308D01*
X976D01*
X1044Y1322D01*
X1250D01*
X1318Y1335D01*
X1376Y1374D01*
X2006Y2004D01*
X2051Y1982D01*
X2047Y1950D01*
X2059Y1859D01*
X2094Y1773D01*
X2150Y1700D01*
X2223Y1644D01*
X2309Y1609D01*
X2400Y1597D01*
X2491Y1609D01*
X2577Y1644D01*
X2650Y1700D01*
X2706Y1773D01*
X2741Y1859D01*
X2753Y1950D01*
X2741Y2039D01*
X2808Y2106D01*
X2847Y2074D01*
X2846Y2073D01*
X2832Y2000D01*
X2846Y1927D01*
X2888Y1864D01*
X2950Y1823D01*
X3024Y1808D01*
X3654D01*
X3721Y1822D01*
X3850D01*
X3918Y1835D01*
X3976Y1874D01*
X4025Y1923D01*
X4051Y1912D01*
X4061Y1863D01*
X3876Y1678D01*
X3721D01*
X3654Y1692D01*
X3024D01*
X2950Y1677D01*
X2888Y1636D01*
X2846Y1573D01*
X2832Y1500D01*
X2846Y1427D01*
X2888Y1364D01*
X2950Y1323D01*
X3024Y1308D01*
X3654D01*
X3721Y1322D01*
X3950D01*
X4018Y1335D01*
X4076Y1374D01*
X4376Y1674D01*
X4415Y1732D01*
X4428Y1800D01*
X4428Y1800D01*
X4428Y1800D01*
Y1800D01*
Y3776D01*
X5080Y4427D01*
X5133D01*
Y4320D01*
X5148Y4247D01*
X5190Y4185D01*
X5252Y4143D01*
X5325Y4129D01*
X5399Y4143D01*
X5418Y4156D01*
X5462Y4132D01*
Y3214D01*
X5147Y2900D01*
X4742D01*
X4650Y2881D01*
X4571Y2829D01*
X4519Y2750D01*
X4500Y2657D01*
Y2383D01*
X4519Y2290D01*
X4571Y2211D01*
X4650Y2159D01*
X4742Y2140D01*
X5297D01*
X5390Y2159D01*
X5469Y2211D01*
X5521Y2290D01*
X5532Y2342D01*
X5870D01*
X5938Y2355D01*
X5996Y2394D01*
X6111Y2509D01*
X6200Y2497D01*
X6289Y2509D01*
X6404Y2394D01*
X6404Y2394D01*
X6462Y2355D01*
X6530Y2342D01*
X8088D01*
X8099Y2290D01*
X8151Y2211D01*
X8230Y2159D01*
X8322Y2140D01*
X8878D01*
X8970Y2159D01*
X9049Y2211D01*
X9055Y2221D01*
X9103Y2207D01*
Y2028D01*
X9222D01*
Y1772D01*
X9103D01*
Y1178D01*
X9697D01*
Y1772D01*
X9578D01*
Y2028D01*
X9697D01*
Y2622D01*
X9149D01*
X9128Y2667D01*
X9136Y2678D01*
X9697D01*
Y3272D01*
X9574D01*
X9565Y3318D01*
X9546Y3347D01*
X9526Y3376D01*
X9526Y3376D01*
X9326Y3576D01*
X9268Y3615D01*
X9233Y3622D01*
X9238Y3672D01*
X9826D01*
X9922Y3576D01*
Y3272D01*
X9803D01*
Y2678D01*
X10397D01*
Y3272D01*
X10278D01*
Y3650D01*
X10278Y3650D01*
X10265Y3718D01*
X10246Y3747D01*
X10226Y3776D01*
X10226Y3776D01*
X10077Y3925D01*
X10096Y3972D01*
X10426D01*
X10622Y3776D01*
Y3272D01*
X10503D01*
Y2678D01*
X11097D01*
Y3272D01*
X10978D01*
Y3850D01*
X10978Y3850D01*
X10978Y3850D01*
Y3850D01*
X10978D01*
X10978Y3850D01*
X10965Y3918D01*
X10926Y3976D01*
X10626Y4276D01*
X10568Y4315D01*
X10533Y4322D01*
X10538Y4372D01*
X10826D01*
X11322Y3876D01*
Y3272D01*
X11203D01*
Y2678D01*
X11797D01*
Y3272D01*
X11678D01*
Y3950D01*
X11678Y3950D01*
X11678Y3950D01*
Y3950D01*
X11678D01*
X11678Y3950D01*
X11665Y4018D01*
X11626Y4076D01*
X11026Y4676D01*
X10968Y4715D01*
X10900Y4728D01*
X9943D01*
X9831Y4841D01*
X9831Y4841D01*
X9831Y4841D01*
X9831Y4841D01*
X9821Y4851D01*
X9754Y4933D01*
X9697Y5039D01*
X9662Y5155D01*
X9650Y5274D01*
X9651Y5275D01*
X9651D01*
X9637Y5343D01*
X9599Y5401D01*
X9580Y5414D01*
X9571Y5463D01*
X9607Y5517D01*
X9621Y5590D01*
X9607Y5664D01*
X9565Y5726D01*
Y5770D01*
X9607Y5832D01*
X9621Y5905D01*
X9607Y5979D01*
X9594Y5998D01*
X9618Y6042D01*
X9756D01*
X11972Y3826D01*
Y3000D01*
X11985Y2932D01*
X12024Y2874D01*
X12254Y2644D01*
X12232Y2599D01*
X12200Y2603D01*
X12109Y2591D01*
X12023Y2556D01*
X11950Y2500D01*
X11894Y2427D01*
X11859Y2341D01*
X11847Y2250D01*
X11859Y2159D01*
X11894Y2073D01*
X11950Y2000D01*
X12023Y1944D01*
X12096Y1914D01*
Y1762D01*
X12013D01*
Y1168D01*
X12013Y1168D01*
X12013Y1132D01*
X12013D01*
Y885D01*
X12587D01*
Y1132D01*
D01*
Y1132D01*
X12587Y1132D01*
Y1168D01*
X12587D01*
Y1619D01*
X12844Y1876D01*
X12844Y1876D01*
D01*
X13090Y2122D01*
X13376D01*
Y2437D01*
Y2752D01*
Y3067D01*
Y3381D01*
Y3530D01*
X13000D01*
Y3580D01*
X12950D01*
Y3778D01*
X12624D01*
Y3778D01*
X12614D01*
X12578Y3814D01*
Y4004D01*
X12578Y4004D01*
X12578Y4004D01*
Y4004D01*
X12578D01*
X12578Y4004D01*
X12565Y4072D01*
X12549Y4095D01*
X12526Y4130D01*
X12526Y4130D01*
X10031Y6625D01*
X10050Y6672D01*
X10226D01*
X10374Y6524D01*
X10432Y6485D01*
X10500Y6472D01*
X13300D01*
X13368Y6485D01*
X13426Y6524D01*
X13626Y6724D01*
X13626Y6724D01*
X13646Y6753D01*
X13665Y6782D01*
X13678Y6850D01*
X13678Y6850D01*
Y7042D01*
X13723Y7064D01*
X13801Y7005D01*
X13897Y6965D01*
X13950Y6958D01*
Y7350D01*
Y7742D01*
X13897Y7735D01*
X13801Y7695D01*
X13723Y7636D01*
X13678Y7658D01*
Y7850D01*
X13678Y7850D01*
X13665Y7918D01*
X13646Y7947D01*
X13626Y7976D01*
X13626Y7976D01*
X13395Y8207D01*
Y8745D01*
X12605D01*
Y7955D01*
X13143D01*
X13322Y7776D01*
Y7658D01*
X13277Y7636D01*
X13199Y7695D01*
X13103Y7735D01*
X13000Y7749D01*
X12897Y7735D01*
X12801Y7695D01*
X12718Y7632D01*
X12655Y7549D01*
X12615Y7453D01*
X12601Y7350D01*
X12594Y7342D01*
X10687D01*
Y7585D01*
X10400D01*
Y7685D01*
X10687D01*
Y7932D01*
D01*
Y7932D01*
X10687Y7932D01*
Y7968D01*
X10687D01*
Y8562D01*
X10604D01*
Y8950D01*
X10588Y9028D01*
X10544Y9094D01*
X8346Y11292D01*
X8352Y11306D01*
X8374Y11338D01*
X8887D01*
Y11932D01*
D01*
Y11932D01*
X8887Y11932D01*
Y11968D01*
X8887D01*
Y12562D01*
X8313D01*
Y12443D01*
X8247Y12430D01*
X8189Y12391D01*
X8098Y12300D01*
X7980D01*
X7948Y12339D01*
X7956Y12378D01*
X7943Y12440D01*
X7908Y12492D01*
Y12520D01*
X7943Y12572D01*
X7956Y12634D01*
X7943Y12696D01*
X7908Y12748D01*
X7856Y12783D01*
X7811Y12792D01*
Y13246D01*
X9116D01*
X9196Y13166D01*
Y11350D01*
X9196Y11350D01*
X9196D01*
X9212Y11272D01*
X9256Y11206D01*
X9556Y10906D01*
X9622Y10862D01*
X9700Y10846D01*
X9878D01*
Y10753D01*
X9976D01*
X9987Y10697D01*
X10031Y10631D01*
X10356Y10306D01*
X10422Y10262D01*
X10500Y10246D01*
X13216D01*
X13796Y9666D01*
Y8692D01*
X13718Y8632D01*
X13655Y8549D01*
X13615Y8453D01*
X13601Y8350D01*
X13615Y8247D01*
X13655Y8151D01*
X13718Y8068D01*
X13801Y8005D01*
X13897Y7965D01*
X14000Y7951D01*
X14103Y7965D01*
X14199Y8005D01*
X14282Y8068D01*
X14345Y8151D01*
X14385Y8247D01*
X14399Y8350D01*
X14385Y8453D01*
X14345Y8549D01*
X14282Y8632D01*
X14204Y8692D01*
Y9750D01*
X14204Y9750D01*
X14204Y9750D01*
Y9750D01*
X14204D01*
X14204Y9750D01*
X14188Y9828D01*
X14171Y9855D01*
X14144Y9894D01*
X14144Y9894D01*
X13444Y10594D01*
X13378Y10638D01*
X13300Y10654D01*
X10584D01*
X10531Y10707D01*
X10542Y10731D01*
D01*
X10551Y10753D01*
X11122D01*
Y10882D01*
X11155Y10886D01*
Y10886D01*
X11155D01*
X11155Y10887D01*
X11200D01*
X11262Y10899D01*
X11315Y10935D01*
X11343Y10962D01*
X11770D01*
X11770Y10961D01*
X11770D01*
Y10961D01*
X11803Y10957D01*
Y10828D01*
X12397D01*
Y11422D01*
X11803D01*
Y11294D01*
X11770Y11289D01*
Y11289D01*
X11770D01*
X11770Y11288D01*
X11275D01*
X11213Y11276D01*
X11166Y11244D01*
X11145Y11256D01*
X11122Y11279D01*
Y11347D01*
X10528D01*
Y10776D01*
X10514Y10770D01*
X10472Y10798D01*
Y11347D01*
X9878D01*
Y11254D01*
X9784D01*
X9604Y11434D01*
Y13246D01*
X9913D01*
Y12968D01*
X9913Y12968D01*
X9913Y12932D01*
X9913D01*
Y12685D01*
X10487D01*
Y12932D01*
D01*
Y12932D01*
X10487Y12932D01*
Y12968D01*
X10487D01*
Y13114D01*
X10517Y13120D01*
X10802D01*
Y13116D01*
X11453D01*
Y13532D01*
X10802D01*
Y13528D01*
X10529D01*
Y13529D01*
X10525Y13528D01*
X10487Y13561D01*
Y13562D01*
X10192D01*
X10159Y13594D01*
X10093Y13638D01*
X10015Y13654D01*
X7022D01*
Y13747D01*
X6428D01*
Y13153D01*
X7022D01*
Y13246D01*
X7316D01*
X7403Y13158D01*
Y12828D01*
X7200D01*
X7200Y12828D01*
X7132Y12815D01*
X7074Y12776D01*
X6598Y12300D01*
X6366D01*
X6334Y12339D01*
X6342Y12378D01*
X6329Y12440D01*
X6294Y12492D01*
Y12520D01*
X6329Y12572D01*
X6342Y12634D01*
X6329Y12696D01*
X6294Y12748D01*
X6242Y12783D01*
X6180Y12796D01*
X6171D01*
Y12971D01*
X6183Y13060D01*
X6222Y13153D01*
X6372D01*
Y13747D01*
X5778D01*
Y13153D01*
X5814D01*
Y12959D01*
X5814Y12957D01*
X5814D01*
Y12796D01*
X5806D01*
X5744Y12783D01*
X5692Y12748D01*
X5657Y12696D01*
X5644Y12634D01*
X5652Y12595D01*
X5620Y12556D01*
X5287D01*
Y12662D01*
X5204D01*
Y12765D01*
X5250Y12800D01*
X5306Y12873D01*
X5341Y12959D01*
X5353Y13050D01*
X5341Y13141D01*
X5306Y13227D01*
X5250Y13300D01*
X5177Y13356D01*
X5091Y13391D01*
X5000Y13403D01*
X4909Y13391D01*
X4823Y13356D01*
X4750Y13300D01*
X4694Y13227D01*
X4659Y13141D01*
X4647Y13050D01*
X4659Y12959D01*
X4694Y12873D01*
X4750Y12800D01*
X4796Y12765D01*
Y12662D01*
X4713D01*
Y12569D01*
X4615D01*
X4537Y12553D01*
X4471Y12509D01*
X4425Y12463D01*
X4378Y12482D01*
Y14050D01*
X4365Y14118D01*
X4326Y14176D01*
X4026Y14476D01*
X3968Y14515D01*
X3900Y14528D01*
X3695D01*
Y14745D01*
X2978D01*
Y14850D01*
X2965Y14918D01*
X2926Y14976D01*
X2926Y14976D01*
X2826Y15076D01*
X2768Y15115D01*
X2700Y15128D01*
X1500D01*
X1500Y15128D01*
X1432Y15115D01*
X1403Y15096D01*
X1374Y15076D01*
X1374Y15076D01*
X1174Y14876D01*
X1135Y14818D01*
X1122Y14750D01*
X1122Y14750D01*
X1122D01*
X1122D01*
X1122Y14750D01*
X1121D01*
X1121Y14750D01*
X1116Y14721D01*
X1100Y14697D01*
X1086Y14688D01*
X1088Y14685D01*
X1069Y14671D01*
X1056Y14662D01*
X1054Y14660D01*
X1018Y14632D01*
X990Y14596D01*
X988Y14594D01*
X979Y14581D01*
X965Y14562D01*
X962Y14564D01*
X953Y14550D01*
X928Y14534D01*
X900Y14529D01*
X900Y14529D01*
D01*
D01*
X900D01*
X900Y14528D01*
X832Y14515D01*
X803Y14496D01*
X774Y14476D01*
X774Y14476D01*
X574Y14276D01*
X535Y14218D01*
X522Y14150D01*
X522Y14150D01*
X522D01*
X522Y14150D01*
X522D01*
Y12950D01*
X522Y12950D01*
X522D01*
X535Y12882D01*
X574Y12824D01*
X698Y12700D01*
X670Y12658D01*
X591Y12691D01*
X500Y12703D01*
X409Y12691D01*
X323Y12656D01*
X250Y12600D01*
X194Y12527D01*
X159Y12441D01*
X150Y12372D01*
X100Y12375D01*
Y15350D01*
X15600D01*
Y100D01*
D02*
G37*
G36*
X10196Y8866D02*
Y8562D01*
X10113D01*
Y8417D01*
X10102Y8409D01*
X9692Y7999D01*
X9639D01*
X9607Y8037D01*
X9621Y8110D01*
X9607Y8183D01*
X9565Y8245D01*
Y8289D01*
X9607Y8351D01*
X9621Y8425D01*
X9607Y8498D01*
X9565Y8560D01*
X9503Y8602D01*
X9430Y8617D01*
X8859D01*
X8785Y8602D01*
X8723Y8560D01*
X8681Y8498D01*
X8667Y8425D01*
X8681Y8351D01*
X8723Y8289D01*
Y8245D01*
X8681Y8183D01*
X8667Y8110D01*
X8681Y8036D01*
X8687Y8028D01*
X8664Y7984D01*
X8430D01*
X8352Y7968D01*
X8286Y7924D01*
X7386Y7024D01*
X7342Y6958D01*
X7326Y6880D01*
Y5131D01*
X7287Y5099D01*
X7265Y5104D01*
Y4606D01*
Y4108D01*
X7287Y4112D01*
X7326Y4081D01*
Y3637D01*
X7218D01*
D01*
D01*
X7218Y3637D01*
X7182D01*
Y3637D01*
X6935D01*
Y3350D01*
Y3063D01*
X7182D01*
Y3063D01*
X7182D01*
X7182Y3063D01*
X7218D01*
Y3063D01*
X7548D01*
X7646Y3050D01*
X7646Y3050D01*
X7646D01*
X7649Y3037D01*
X7659Y2959D01*
X7694Y2873D01*
X7750Y2800D01*
X7822Y2746D01*
X7810Y2711D01*
X7804Y2698D01*
X6604D01*
X6541Y2761D01*
X6553Y2850D01*
X6541Y2941D01*
X6506Y3027D01*
X6450Y3100D01*
X6377Y3156D01*
X6291Y3191D01*
X6200Y3203D01*
X6109Y3191D01*
X6023Y3156D01*
X5950Y3100D01*
X5894Y3027D01*
X5859Y2941D01*
X5847Y2850D01*
X5859Y2761D01*
X5796Y2698D01*
X5532D01*
X5521Y2750D01*
X5514Y2761D01*
X5766Y3014D01*
X5805Y3072D01*
X5819Y3140D01*
X5819Y3140D01*
Y3578D01*
X5868Y3588D01*
X5894Y3523D01*
X5950Y3450D01*
X6023Y3394D01*
X6109Y3359D01*
X6150Y3354D01*
Y3700D01*
Y4046D01*
X6109Y4041D01*
X6023Y4006D01*
X5950Y3950D01*
X5894Y3877D01*
X5868Y3812D01*
X5819Y3822D01*
Y4132D01*
X5863Y4156D01*
X5882Y4143D01*
X5955Y4129D01*
X6029Y4143D01*
X6091Y4185D01*
X6134D01*
X6197Y4143D01*
X6270Y4129D01*
X6343Y4143D01*
X6406Y4185D01*
X6449D01*
X6512Y4143D01*
X6585Y4129D01*
X6658Y4143D01*
X6721Y4185D01*
X6764D01*
X6827Y4143D01*
X6900Y4129D01*
X6973Y4143D01*
X7036Y4185D01*
X7058Y4163D01*
X7058Y4163D01*
X7130Y4115D01*
X7165Y4108D01*
Y4606D01*
Y5104D01*
X7130Y5097D01*
X7123Y5092D01*
X7078Y5115D01*
Y6786D01*
X7080D01*
X7078Y6797D01*
Y7148D01*
X7080D01*
X7078Y7160D01*
Y7238D01*
X7106Y7273D01*
X7141Y7359D01*
X7153Y7450D01*
X7141Y7541D01*
X7106Y7627D01*
X7050Y7700D01*
X6977Y7756D01*
X6891Y7791D01*
X6800Y7803D01*
X6709Y7791D01*
X6623Y7756D01*
X6550Y7700D01*
X6507Y7643D01*
X6453Y7650D01*
X6441Y7741D01*
X6406Y7827D01*
X6350Y7900D01*
X6277Y7956D01*
X6191Y7991D01*
X6100Y8003D01*
X6009Y7991D01*
X5923Y7956D01*
X5850Y7900D01*
X5794Y7827D01*
X5759Y7741D01*
X5747Y7650D01*
X5759Y7559D01*
X5794Y7473D01*
X5850Y7400D01*
X5922Y7346D01*
Y7050D01*
X5922Y7050D01*
X5922D01*
X5935Y6982D01*
X5947Y6964D01*
X5911Y6929D01*
X5877Y6956D01*
X5791Y6991D01*
X5700Y7003D01*
X5609Y6991D01*
X5523Y6956D01*
X5450Y6900D01*
X5394Y6827D01*
X5359Y6741D01*
X5347Y6650D01*
X5359Y6559D01*
X5394Y6473D01*
X5450Y6400D01*
X5523Y6344D01*
X5609Y6309D01*
X5700Y6297D01*
X5789Y6309D01*
X6092Y6006D01*
Y5676D01*
X6045Y5657D01*
X5941Y5761D01*
X5953Y5850D01*
X5941Y5941D01*
X5906Y6027D01*
X5850Y6100D01*
X5777Y6156D01*
X5691Y6191D01*
X5600Y6203D01*
X5509Y6191D01*
X5423Y6156D01*
X5350Y6100D01*
X5294Y6027D01*
X5259Y5941D01*
X5247Y5850D01*
X5259Y5759D01*
X5294Y5673D01*
X5350Y5600D01*
X5423Y5544D01*
X5509Y5509D01*
X5600Y5497D01*
X5689Y5509D01*
X5755Y5443D01*
Y5091D01*
X5714Y5069D01*
X5640Y5083D01*
X5567Y5069D01*
X5505Y5027D01*
X5461D01*
X5399Y5069D01*
X5325Y5083D01*
X5252Y5069D01*
X5190Y5027D01*
X5148Y4965D01*
X5133Y4891D01*
Y4784D01*
X5006D01*
X5006Y4784D01*
X4938Y4771D01*
X4880Y4732D01*
X4880Y4732D01*
X4124Y3976D01*
X4080Y3972D01*
X3953Y4099D01*
Y4442D01*
X3998Y4464D01*
X4023Y4444D01*
X4109Y4409D01*
X4200Y4397D01*
X4291Y4409D01*
X4377Y4444D01*
X4450Y4500D01*
X4506Y4573D01*
X4541Y4659D01*
X4553Y4750D01*
X4541Y4841D01*
X4521Y4888D01*
X4716Y5083D01*
X4941D01*
X5015Y5098D01*
X5077Y5140D01*
X5119Y5202D01*
X5133Y5275D01*
X5119Y5349D01*
X5077Y5411D01*
Y5455D01*
X5119Y5517D01*
X5133Y5590D01*
X5119Y5664D01*
X5077Y5726D01*
Y5770D01*
X5119Y5832D01*
X5133Y5905D01*
X5119Y5979D01*
X5077Y6041D01*
X5099Y6063D01*
X5099Y6063D01*
X5099D01*
X5147Y6135D01*
X5154Y6170D01*
X4158D01*
X4162Y6148D01*
X4131Y6109D01*
X3655D01*
X3577Y6094D01*
X3511Y6049D01*
X3156Y5694D01*
X3112Y5628D01*
X3096Y5550D01*
Y5435D01*
X3050Y5400D01*
X2994Y5327D01*
X2959Y5241D01*
X2947Y5150D01*
X2959Y5059D01*
X2994Y4973D01*
X3012Y4950D01*
X2916Y4854D01*
X2265D01*
X2250Y4900D01*
X2306Y4973D01*
X2341Y5059D01*
X2346Y5100D01*
X1654D01*
X1659Y5059D01*
X1694Y4973D01*
X1750Y4900D01*
X1735Y4854D01*
X1512D01*
Y4854D01*
Y4863D01*
X1512Y4889D01*
X1512Y4889D01*
X1512D01*
Y5100D01*
X1215D01*
Y5150D01*
X1165D01*
Y5437D01*
X918D01*
D01*
D01*
X918Y5437D01*
X882D01*
Y5437D01*
X789D01*
Y5578D01*
X970D01*
X1055Y5595D01*
X1127Y5643D01*
X1176Y5715D01*
X1192Y5800D01*
X1176Y5885D01*
X1127Y5957D01*
X1055Y6005D01*
X970Y6022D01*
X340D01*
X255Y6005D01*
X183Y5957D01*
X148Y5905D01*
X100Y5919D01*
Y6181D01*
X148Y6195D01*
X183Y6143D01*
X255Y6095D01*
X340Y6078D01*
X970D01*
X1055Y6095D01*
X1096Y6122D01*
X1250D01*
X1318Y6135D01*
X1376Y6174D01*
X1525Y6323D01*
X1572Y6304D01*
Y5900D01*
X1585Y5832D01*
X1624Y5774D01*
X1724Y5674D01*
X1724Y5674D01*
X1782Y5635D01*
X1850Y5622D01*
X2104D01*
X2145Y5595D01*
X2230Y5578D01*
X2860D01*
X2945Y5595D01*
X3017Y5643D01*
X3065Y5715D01*
X3082Y5800D01*
X3065Y5885D01*
X3017Y5957D01*
X2945Y6005D01*
X2860Y6022D01*
X2230D01*
X2145Y6005D01*
X2104Y5978D01*
X1928D01*
Y7276D01*
X1961Y7309D01*
X2009Y7294D01*
X2024Y7215D01*
X2073Y7143D01*
X2145Y7095D01*
X2230Y7078D01*
X2495D01*
Y7300D01*
Y7522D01*
X2240D01*
X2221Y7569D01*
X2274Y7622D01*
X3226D01*
X3510Y7337D01*
X3502Y7317D01*
X3489Y7291D01*
X3450Y7296D01*
Y6950D01*
Y6564D01*
X3454Y6556D01*
X3376Y6478D01*
X2985D01*
X2945Y6505D01*
X2860Y6522D01*
X2230D01*
X2145Y6505D01*
X2073Y6457D01*
X2024Y6385D01*
X2008Y6300D01*
X2024Y6215D01*
X2073Y6143D01*
X2145Y6095D01*
X2230Y6078D01*
X2860D01*
X2945Y6095D01*
X2985Y6122D01*
X3450D01*
X3518Y6135D01*
X3576Y6174D01*
X4074Y6672D01*
X4182D01*
X4206Y6627D01*
X4193Y6608D01*
X4179Y6535D01*
X4193Y6462D01*
X4235Y6399D01*
D01*
X4213Y6377D01*
X4213Y6377D01*
X4165Y6305D01*
X4158Y6270D01*
X5154D01*
X5147Y6305D01*
X5099Y6377D01*
X5099Y6377D01*
X5077Y6399D01*
D01*
X5119Y6462D01*
X5133Y6535D01*
X5119Y6608D01*
X5077Y6671D01*
Y6714D01*
X5119Y6777D01*
X5133Y6850D01*
X5119Y6923D01*
X5077Y6986D01*
Y7029D01*
X5119Y7092D01*
X5133Y7165D01*
X5119Y7238D01*
X5077Y7301D01*
Y7344D01*
X5119Y7407D01*
X5133Y7480D01*
X5119Y7553D01*
X5077Y7616D01*
Y7659D01*
X5119Y7721D01*
X5133Y7795D01*
X5119Y7868D01*
X5077Y7930D01*
Y7974D01*
X5119Y8036D01*
X5133Y8110D01*
X5119Y8183D01*
X5077Y8245D01*
Y8289D01*
X5119Y8351D01*
X5133Y8425D01*
X5119Y8498D01*
X5077Y8560D01*
X5015Y8602D01*
X4941Y8617D01*
X4370D01*
X4297Y8602D01*
X4235Y8560D01*
X4193Y8498D01*
X4179Y8425D01*
X4193Y8351D01*
X4235Y8289D01*
Y8245D01*
X4193Y8183D01*
X4179Y8110D01*
X4193Y8036D01*
X4235Y7974D01*
Y7930D01*
X4193Y7868D01*
X4179Y7795D01*
X4193Y7721D01*
X4206Y7702D01*
X4189Y7670D01*
X4139Y7663D01*
X3626Y8176D01*
X3568Y8215D01*
X3500Y8228D01*
X1800D01*
X1732Y8215D01*
X1674Y8176D01*
X1374Y7876D01*
X1335Y7818D01*
X1322Y7750D01*
X1322Y7750D01*
X1322D01*
X1322Y7750D01*
X1322D01*
Y6624D01*
X1176Y6478D01*
X1096D01*
X1055Y6505D01*
X970Y6522D01*
X340D01*
X255Y6505D01*
X183Y6457D01*
X148Y6405D01*
X100Y6419D01*
Y6681D01*
X148Y6695D01*
X183Y6643D01*
X255Y6595D01*
X340Y6578D01*
X970D01*
X1055Y6595D01*
X1127Y6643D01*
X1176Y6715D01*
X1192Y6800D01*
X1176Y6885D01*
X1127Y6957D01*
X1055Y7005D01*
X970Y7022D01*
X340D01*
X255Y7005D01*
X183Y6957D01*
X148Y6905D01*
X100Y6919D01*
Y7181D01*
X148Y7195D01*
X183Y7143D01*
X255Y7095D01*
X340Y7078D01*
X970D01*
X1055Y7095D01*
X1127Y7143D01*
X1176Y7215D01*
X1192Y7300D01*
X1176Y7385D01*
X1127Y7457D01*
X1055Y7505D01*
X970Y7522D01*
X340D01*
X255Y7505D01*
X183Y7457D01*
X148Y7405D01*
X100Y7419D01*
Y10528D01*
X103D01*
Y10528D01*
X222D01*
Y9850D01*
X235Y9782D01*
X274Y9724D01*
X1030Y8968D01*
X1088Y8929D01*
X1156Y8916D01*
X5133D01*
Y8809D01*
X5148Y8735D01*
X5190Y8673D01*
X5252Y8631D01*
X5325Y8617D01*
X5399Y8631D01*
X5461Y8673D01*
X5505D01*
X5567Y8631D01*
X5640Y8617D01*
X5714Y8631D01*
X5776Y8673D01*
X5820D01*
X5882Y8631D01*
X5955Y8617D01*
X6029Y8631D01*
X6091Y8673D01*
X6134D01*
X6197Y8631D01*
X6270Y8617D01*
X6343Y8631D01*
X6406Y8673D01*
X6449D01*
X6512Y8631D01*
X6585Y8617D01*
X6658Y8631D01*
X6721Y8673D01*
X6764D01*
X6827Y8631D01*
X6900Y8617D01*
X6973Y8631D01*
X7036Y8673D01*
X7058Y8651D01*
X7058Y8651D01*
X7130Y8603D01*
X7165Y8596D01*
Y9094D01*
X7265D01*
Y8596D01*
X7300Y8603D01*
X7372Y8651D01*
X7372Y8651D01*
X7394Y8673D01*
X7457Y8631D01*
X7530Y8617D01*
X7603Y8631D01*
X7666Y8673D01*
X7709D01*
X7771Y8631D01*
X7845Y8617D01*
X7918Y8631D01*
X7980Y8673D01*
X8024D01*
X8086Y8631D01*
X8160Y8617D01*
X8233Y8631D01*
X8295Y8673D01*
X8339D01*
X8401Y8631D01*
X8475Y8617D01*
X8548Y8631D01*
X8610Y8673D01*
X8652Y8735D01*
X8667Y8809D01*
Y9380D01*
X8653Y9447D01*
Y10029D01*
X8653Y10029D01*
X8640Y10097D01*
X8601Y10155D01*
X8601Y10155D01*
X7856Y10900D01*
X7875Y10946D01*
X8116D01*
X10196Y8866D01*
D02*
G37*
G36*
X2166Y14723D02*
X2101Y14695D01*
X2018Y14632D01*
X1955Y14549D01*
X1915Y14453D01*
X1901Y14350D01*
X1915Y14247D01*
X1924Y14226D01*
X1674Y13976D01*
X1635Y13918D01*
X1622Y13850D01*
X1622Y13850D01*
X1622D01*
X1622Y13850D01*
X1622D01*
Y13658D01*
X1577Y13636D01*
X1499Y13695D01*
X1403Y13735D01*
X1350Y13742D01*
Y13350D01*
Y12958D01*
X1403Y12965D01*
X1499Y13005D01*
X1577Y13064D01*
X1622Y13042D01*
Y11772D01*
X1503D01*
Y11178D01*
X2097D01*
Y11772D01*
X1978D01*
Y13042D01*
X2023Y13064D01*
X2101Y13005D01*
X2197Y12965D01*
X2300Y12951D01*
X2403Y12965D01*
X2499Y13005D01*
X2582Y13068D01*
X2589Y13077D01*
X2639Y13076D01*
X2674Y13024D01*
X3022Y12676D01*
Y12584D01*
X2974Y12568D01*
X2950Y12600D01*
X2877Y12656D01*
X2791Y12691D01*
X2700Y12703D01*
X2609Y12691D01*
X2523Y12656D01*
X2450Y12600D01*
X2394Y12527D01*
X2359Y12441D01*
X2347Y12350D01*
X2349Y12337D01*
X2339Y12315D01*
X2320Y12170D01*
X2322D01*
X2324Y12160D01*
X2322Y12150D01*
Y11821D01*
X2321Y11811D01*
X2321D01*
Y11807D01*
X2285Y11772D01*
X2203D01*
Y11178D01*
X2797D01*
Y11772D01*
X2778D01*
X2752Y11815D01*
X2829Y11959D01*
X2939Y12092D01*
X2948Y12099D01*
X2948Y12099D01*
X2949Y12099D01*
X2951Y12103D01*
X2974Y12132D01*
X3022Y12116D01*
Y11772D01*
X2903D01*
Y11178D01*
X3497D01*
Y11772D01*
X3378D01*
Y12750D01*
X3365Y12818D01*
X3326Y12876D01*
X3326Y12876D01*
X3297Y12906D01*
X3313Y12953D01*
X3403Y12965D01*
X3499Y13005D01*
X3582Y13068D01*
X3645Y13151D01*
X3685Y13247D01*
X3699Y13350D01*
X3685Y13453D01*
X3645Y13549D01*
X3582Y13632D01*
X3499Y13695D01*
X3403Y13735D01*
X3300Y13749D01*
X3197Y13735D01*
X3101Y13695D01*
X3023Y13636D01*
X2978Y13658D01*
Y13955D01*
X3695D01*
Y14172D01*
X3826D01*
X4022Y13976D01*
Y12524D01*
X3774Y12276D01*
X3735Y12218D01*
X3722Y12150D01*
Y11772D01*
X3603D01*
Y11178D01*
X4197D01*
Y11308D01*
X4245Y11322D01*
X4256Y11306D01*
X4512Y11050D01*
X4493Y11004D01*
X4197D01*
Y11122D01*
X3603D01*
Y10528D01*
X4197D01*
Y10647D01*
X4479D01*
X4498Y10601D01*
X4226Y10328D01*
X3378D01*
Y10528D01*
X3497D01*
Y11122D01*
X2903D01*
Y10528D01*
X3022D01*
Y10250D01*
X3022Y10250D01*
X3022D01*
X3035Y10182D01*
X3074Y10124D01*
X3055Y10078D01*
X2774D01*
X2678Y10174D01*
Y10528D01*
X2797D01*
Y11122D01*
X2203D01*
Y10528D01*
X2322D01*
Y10100D01*
X2335Y10032D01*
X2374Y9974D01*
X2473Y9875D01*
X2454Y9828D01*
X1978D01*
Y10528D01*
X2097D01*
Y11122D01*
X1503D01*
Y10528D01*
X1622D01*
Y9750D01*
X1622Y9750D01*
X1622D01*
X1635Y9682D01*
X1674Y9624D01*
X1723Y9575D01*
X1704Y9528D01*
X1374D01*
X1278Y9624D01*
Y10528D01*
X1397D01*
Y11122D01*
X803D01*
Y10528D01*
X922D01*
Y9646D01*
X875Y9627D01*
X578Y9924D01*
Y10528D01*
X697D01*
Y11122D01*
X103D01*
D01*
X103D01*
X100Y11125D01*
Y11178D01*
X100D01*
X103D01*
X135Y11178D01*
X135Y11178D01*
Y11178D01*
X697D01*
Y11772D01*
X622D01*
X592Y11812D01*
X622Y11911D01*
X676Y12012D01*
X747Y12098D01*
X750Y12100D01*
X750Y12100D01*
X753Y12105D01*
X806Y12173D01*
X841Y12259D01*
X853Y12350D01*
X841Y12441D01*
X808Y12520D01*
X850Y12548D01*
X922Y12476D01*
Y11772D01*
X803D01*
Y11178D01*
X1397D01*
Y11772D01*
X1278D01*
Y12550D01*
X1265Y12618D01*
X1226Y12676D01*
X1226Y12676D01*
X878Y13024D01*
Y13207D01*
X927Y13216D01*
X955Y13151D01*
X1018Y13068D01*
X1101Y13005D01*
X1197Y12965D01*
X1250Y12958D01*
Y13350D01*
Y13742D01*
X1197Y13735D01*
X1101Y13695D01*
X1018Y13632D01*
X955Y13549D01*
X927Y13484D01*
X878Y13493D01*
Y14076D01*
X891Y14089D01*
X891Y14089D01*
X891Y14089D01*
X936Y14119D01*
X985Y14109D01*
X988Y14106D01*
X990Y14104D01*
X1018Y14068D01*
X1101Y14005D01*
X1197Y13965D01*
X1300Y13951D01*
X1403Y13965D01*
X1499Y14005D01*
X1582Y14068D01*
X1645Y14151D01*
X1685Y14247D01*
X1699Y14350D01*
X1685Y14453D01*
X1645Y14549D01*
X1582Y14632D01*
X1546Y14660D01*
X1544Y14662D01*
X1541Y14665D01*
X1531Y14714D01*
X1561Y14759D01*
X1574Y14772D01*
X2157D01*
X2166Y14723D01*
D02*
G37*
%LPC*%
G36*
X10050Y1122D02*
X9803D01*
Y875D01*
X10050D01*
Y1122D01*
D02*
G37*
G36*
X10397D02*
X10150D01*
Y875D01*
X10397D01*
Y1122D01*
D02*
G37*
G36*
X9697D02*
X9450D01*
Y875D01*
X9697D01*
Y1122D01*
D02*
G37*
G36*
X4970Y1130D02*
X4742D01*
X4650Y1111D01*
X4571Y1059D01*
X4519Y980D01*
X4500Y887D01*
Y800D01*
X4970D01*
Y1130D01*
D02*
G37*
G36*
X5297D02*
X5070D01*
Y800D01*
X5540D01*
Y887D01*
X5521Y980D01*
X5469Y1059D01*
X5390Y1111D01*
X5297Y1130D01*
D02*
G37*
G36*
X8550D02*
X8322D01*
X8230Y1111D01*
X8151Y1059D01*
X8099Y980D01*
X8080Y887D01*
Y800D01*
X8550D01*
Y1130D01*
D02*
G37*
G36*
X11097Y2622D02*
X10503D01*
Y2028D01*
X10622D01*
Y1772D01*
X10503D01*
Y1178D01*
X11097D01*
Y1772D01*
X10978D01*
Y2028D01*
X11097D01*
Y2622D01*
D02*
G37*
G36*
X10397D02*
X9803D01*
Y2028D01*
X9922D01*
Y1772D01*
X9803D01*
Y1178D01*
X10397D01*
Y1772D01*
X10278D01*
Y2028D01*
X10397D01*
Y2622D01*
D02*
G37*
G36*
X14793Y4554D02*
X13097D01*
Y4011D01*
X13884D01*
Y1889D01*
X13097D01*
Y1346D01*
X14793D01*
Y1708D01*
X15502D01*
Y4192D01*
X14793D01*
Y4554D01*
D02*
G37*
G36*
X11797Y2622D02*
X11203D01*
Y2028D01*
X11322D01*
Y1772D01*
X11203D01*
Y1178D01*
X11797D01*
Y1772D01*
X11678D01*
Y2028D01*
X11797D01*
Y2622D01*
D02*
G37*
G36*
X976Y1222D02*
X711D01*
Y1050D01*
X1189D01*
X1182Y1085D01*
X1134Y1157D01*
X1061Y1205D01*
X976Y1222D01*
D02*
G37*
G36*
X11097Y1122D02*
X10850D01*
Y875D01*
X11097D01*
Y1122D01*
D02*
G37*
G36*
X10750D02*
X10503D01*
Y875D01*
X10750D01*
Y1122D01*
D02*
G37*
G36*
X11797D02*
X11550D01*
Y875D01*
X11797D01*
Y1122D01*
D02*
G37*
G36*
X11450D02*
X11203D01*
Y875D01*
X11450D01*
Y1122D01*
D02*
G37*
G36*
X10050Y775D02*
X9803D01*
Y528D01*
X10050D01*
Y775D01*
D02*
G37*
G36*
X9697D02*
X9450D01*
Y528D01*
X9697D01*
Y775D01*
D02*
G37*
G36*
X10750D02*
X10503D01*
Y528D01*
X10750D01*
Y775D01*
D02*
G37*
G36*
X10397D02*
X10150D01*
Y528D01*
X10397D01*
Y775D01*
D02*
G37*
G36*
X5540Y700D02*
X5070D01*
Y370D01*
X5297D01*
X5390Y389D01*
X5469Y441D01*
X5521Y520D01*
X5540Y613D01*
Y700D01*
D02*
G37*
G36*
X4970D02*
X4500D01*
Y613D01*
X4519Y520D01*
X4571Y441D01*
X4650Y389D01*
X4742Y370D01*
X4970D01*
Y700D01*
D02*
G37*
G36*
X8878Y1130D02*
X8650D01*
Y750D01*
Y370D01*
X8878D01*
X8970Y389D01*
X9049Y441D01*
X9101Y520D01*
X9103Y528D01*
X9103Y528D01*
X9103Y528D01*
X9103Y528D01*
X9350D01*
Y825D01*
Y1122D01*
X9103D01*
Y1063D01*
X9055Y1049D01*
X9049Y1059D01*
X8970Y1111D01*
X8878Y1130D01*
D02*
G37*
G36*
X8550Y700D02*
X8080D01*
Y613D01*
X8099Y520D01*
X8151Y441D01*
X8230Y389D01*
X8322Y370D01*
X8550D01*
Y700D01*
D02*
G37*
G36*
X13895Y1246D02*
X13097D01*
Y704D01*
X13895D01*
Y1246D01*
D02*
G37*
G36*
X12587Y785D02*
X12350D01*
Y538D01*
X12587D01*
Y785D01*
D02*
G37*
G36*
X1189Y950D02*
X711D01*
Y778D01*
X976D01*
X1061Y795D01*
X1134Y843D01*
X1182Y915D01*
X1189Y950D01*
D02*
G37*
G36*
X14793Y1246D02*
X13995D01*
Y704D01*
X14793D01*
Y1246D01*
D02*
G37*
G36*
X11450Y775D02*
X11203D01*
Y528D01*
X11450D01*
Y775D01*
D02*
G37*
G36*
X11097D02*
X10850D01*
Y528D01*
X11097D01*
Y775D01*
D02*
G37*
G36*
X12250Y785D02*
X12013D01*
Y538D01*
X12250D01*
Y785D01*
D02*
G37*
G36*
X11797Y775D02*
X11550D01*
Y528D01*
X11797D01*
Y775D01*
D02*
G37*
G36*
X6835Y3300D02*
X6588D01*
Y3063D01*
X6835D01*
Y3300D01*
D02*
G37*
G36*
X5943Y11816D02*
X5624D01*
X5628Y11793D01*
X5670Y11730D01*
X5732Y11688D01*
X5806Y11674D01*
X5943D01*
Y11816D01*
D02*
G37*
G36*
X6362D02*
X6043D01*
Y11674D01*
X6180D01*
X6253Y11688D01*
X6316Y11730D01*
X6358Y11793D01*
X6362Y11816D01*
D02*
G37*
G36*
X10125Y12047D02*
X9878D01*
Y11800D01*
X10125D01*
Y12047D01*
D02*
G37*
G36*
X12428Y12900D02*
X11717D01*
Y12712D01*
X11747D01*
Y12368D01*
X11909D01*
Y12072D01*
X11803D01*
Y11478D01*
X12397D01*
Y12072D01*
X12236D01*
Y12368D01*
X12398D01*
Y12712D01*
X12428D01*
Y12900D01*
D02*
G37*
G36*
X10125Y11700D02*
X9878D01*
Y11453D01*
X10125D01*
Y11700D01*
D02*
G37*
G36*
X10472D02*
X10225D01*
Y11453D01*
X10472D01*
Y11700D01*
D02*
G37*
G36*
X11453Y12784D02*
X10802D01*
Y12368D01*
X10964D01*
Y12120D01*
X10891Y12047D01*
X10528D01*
Y11453D01*
X11122D01*
Y11816D01*
X11243Y11937D01*
X11278Y11990D01*
X11291Y12053D01*
X11291Y12053D01*
X11291Y12053D01*
Y12053D01*
Y12368D01*
X11453D01*
Y12784D01*
D02*
G37*
G36*
X10472Y12047D02*
X10225D01*
Y11800D01*
X10472D01*
Y12047D01*
D02*
G37*
G36*
X12950Y12585D02*
X12713D01*
Y12338D01*
X12950D01*
Y12585D01*
D02*
G37*
G36*
X13287D02*
X13050D01*
Y12338D01*
X13287D01*
Y12585D01*
D02*
G37*
G36*
X14336Y13916D02*
X13664D01*
Y13443D01*
X13287D01*
Y13562D01*
X12713D01*
Y13502D01*
X12398D01*
Y13532D01*
X11747D01*
Y13188D01*
X11717D01*
Y13000D01*
X12428D01*
Y13146D01*
X12713D01*
Y12968D01*
X12713Y12968D01*
X12713Y12932D01*
X12713D01*
Y12685D01*
X13287D01*
Y12932D01*
D01*
Y12932D01*
X13287Y12932D01*
Y12968D01*
X13287D01*
Y13087D01*
X13664D01*
Y12948D01*
Y12518D01*
X14336D01*
Y12948D01*
Y13254D01*
X14444D01*
X14622Y13076D01*
Y12054D01*
X14550Y12000D01*
X14494Y11927D01*
X14459Y11841D01*
X14447Y11750D01*
X14459Y11659D01*
X14494Y11573D01*
X14550Y11500D01*
X14623Y11444D01*
X14709Y11409D01*
X14800Y11397D01*
X14891Y11409D01*
X14977Y11444D01*
X15050Y11500D01*
X15106Y11573D01*
X15141Y11659D01*
X15153Y11750D01*
X15141Y11841D01*
X15106Y11927D01*
X15050Y12000D01*
X14978Y12054D01*
Y13150D01*
X14965Y13218D01*
X14926Y13276D01*
X14926Y13276D01*
X14644Y13558D01*
X14586Y13597D01*
X14518Y13611D01*
X14336D01*
Y13916D01*
D02*
G37*
G36*
X10487Y12585D02*
X10250D01*
Y12338D01*
X10487D01*
Y12585D01*
D02*
G37*
G36*
X13950Y12418D02*
X13664D01*
Y11984D01*
X13950D01*
Y12418D01*
D02*
G37*
G36*
X14336D02*
X14050D01*
Y11984D01*
X14336D01*
Y12418D01*
D02*
G37*
G36*
X10150Y12585D02*
X9913D01*
Y12338D01*
X10150D01*
Y12585D01*
D02*
G37*
G36*
X5287Y11685D02*
X5050D01*
Y11438D01*
X5287D01*
Y11685D01*
D02*
G37*
G36*
X2346Y4100D02*
X2050D01*
Y3804D01*
X2091Y3809D01*
X2177Y3844D01*
X2250Y3900D01*
X2306Y3973D01*
X2341Y4059D01*
X2346Y4100D01*
D02*
G37*
G36*
X13895Y5196D02*
X13097D01*
Y4654D01*
X13895D01*
Y5196D01*
D02*
G37*
G36*
X14793D02*
X13995D01*
Y4654D01*
X14793D01*
Y5196D01*
D02*
G37*
G36*
X1950Y4100D02*
X1654D01*
X1659Y4059D01*
X1694Y3973D01*
X1750Y3900D01*
X1823Y3844D01*
X1909Y3809D01*
X1950Y3804D01*
Y4100D01*
D02*
G37*
G36*
X6571Y3650D02*
X6250D01*
Y3354D01*
X6291Y3359D01*
X6377Y3394D01*
X6450Y3450D01*
X6506Y3523D01*
X6539Y3604D01*
X6588Y3594D01*
Y3400D01*
X6835D01*
Y3637D01*
X6588D01*
X6588Y3637D01*
Y3637D01*
X6581Y3638D01*
X6571Y3650D01*
D02*
G37*
G36*
X13376Y3778D02*
X13050D01*
Y3630D01*
X13376D01*
Y3778D01*
D02*
G37*
G36*
X6250Y4046D02*
Y3750D01*
X6546D01*
X6541Y3791D01*
X6506Y3877D01*
X6450Y3950D01*
X6377Y4006D01*
X6291Y4041D01*
X6250Y4046D01*
D02*
G37*
G36*
X1512Y5437D02*
X1265D01*
Y5200D01*
X1512D01*
Y5437D01*
D02*
G37*
G36*
X3072Y7250D02*
X2595D01*
Y7078D01*
X2860D01*
X2945Y7095D01*
X3017Y7143D01*
X3065Y7215D01*
X3072Y7250D01*
D02*
G37*
G36*
X2860Y7522D02*
X2595D01*
Y7350D01*
X3072D01*
X3065Y7385D01*
X3017Y7457D01*
X2945Y7505D01*
X2860Y7522D01*
D02*
G37*
G36*
X14050Y7742D02*
Y7400D01*
X14392D01*
X14385Y7453D01*
X14345Y7549D01*
X14282Y7632D01*
X14199Y7695D01*
X14103Y7735D01*
X14050Y7742D01*
D02*
G37*
G36*
X3350Y7296D02*
X3309Y7291D01*
X3223Y7256D01*
X3150Y7200D01*
X3094Y7127D01*
X3059Y7041D01*
X3052Y6985D01*
X3006Y6965D01*
X2945Y7005D01*
X2860Y7022D01*
X2230D01*
X2145Y7005D01*
X2073Y6957D01*
X2024Y6885D01*
X2008Y6800D01*
X2024Y6715D01*
X2073Y6643D01*
X2145Y6595D01*
X2230Y6578D01*
X2860D01*
X2945Y6595D01*
X3017Y6643D01*
X3065Y6715D01*
X3069Y6732D01*
X3117Y6743D01*
X3150Y6700D01*
X3223Y6644D01*
X3309Y6609D01*
X3350Y6604D01*
Y6950D01*
Y7296D01*
D02*
G37*
G36*
X1950Y5496D02*
X1909Y5491D01*
X1823Y5456D01*
X1750Y5400D01*
X1694Y5327D01*
X1659Y5241D01*
X1654Y5200D01*
X1950D01*
Y5496D01*
D02*
G37*
G36*
X2050D02*
Y5200D01*
X2346D01*
X2341Y5241D01*
X2306Y5327D01*
X2250Y5400D01*
X2177Y5456D01*
X2091Y5491D01*
X2050Y5496D01*
D02*
G37*
G36*
X14392Y7300D02*
X14050D01*
Y6958D01*
X14103Y6965D01*
X14199Y7005D01*
X14282Y7068D01*
X14345Y7151D01*
X14385Y7247D01*
X14392Y7300D01*
D02*
G37*
%LPD*%
D10*
X518Y12332D02*
G03*
X400Y12048I284J-284D01*
G01*
X624Y12226D02*
G03*
X400Y11686I540J-540D01*
G01*
X2644Y12184D02*
G03*
X2500Y12150I-45J-134D01*
G01*
D02*
G03*
X2534Y12294I-100J100D01*
G01*
X2612Y12439D02*
G03*
X2500Y12170I265J-268D01*
G01*
X2718Y12332D02*
G03*
X2500Y11811I515J-521D01*
G01*
X2823Y12226D02*
G03*
X2500Y11452I764J-773D01*
G01*
X6900Y7148D02*
G03*
X6782Y7432I-402J0D01*
G01*
X6900Y6786D02*
G03*
X6676Y7326I-764J0D01*
G01*
X6625Y11650D02*
G03*
X6572Y11778I-181J0D01*
G01*
X6484Y11866D02*
G03*
X6737Y11813I167J167D01*
G01*
X1114Y14232D02*
G03*
X900Y14350I-214J-135D01*
G01*
D02*
G03*
X1114Y14468I0J253D01*
G01*
X1182Y14536D02*
G03*
X1300Y14750I-135J214D01*
G01*
D02*
G03*
X1418Y14536I253J0D01*
G01*
X3024Y2457D02*
G03*
X2824Y2374I0J-282D01*
G01*
X6218Y9609D02*
G03*
X6301Y9410I281J0D01*
G01*
X9173Y5275D02*
G03*
X9193Y5226I69J0D01*
G01*
X9323Y5275D02*
G03*
X9449Y4970I431J0D01*
G01*
X9473Y5275D02*
G03*
X9705Y4714I793J0D01*
G01*
X5933Y5048D02*
G03*
X5986Y4922I179J0D01*
G01*
X5457Y11735D02*
G03*
X5796Y11876I0J480D01*
G01*
X9314Y1561D02*
G03*
X9400Y1769I-208J208D01*
G01*
D02*
G03*
X9486Y1561I294J0D01*
G01*
X11414Y3061D02*
G03*
X11500Y3269I-208J208D01*
G01*
D02*
G03*
X11586Y3061I294J0D01*
G01*
Y2239D02*
G03*
X11500Y2031I208J-208D01*
G01*
D02*
G03*
X11414Y2239I-294J0D01*
G01*
X10714Y3061D02*
G03*
X10800Y3269I-208J208D01*
G01*
D02*
G03*
X10886Y3061I294J0D01*
G01*
Y2239D02*
G03*
X10800Y2031I208J-208D01*
G01*
D02*
G03*
X10714Y2239I-294J0D01*
G01*
X10014Y3061D02*
G03*
X10100Y3269I-208J208D01*
G01*
D02*
G03*
X10186Y3061I294J0D01*
G01*
Y2239D02*
G03*
X10100Y2031I208J-208D01*
G01*
D02*
G03*
X10014Y2239I-294J0D01*
G01*
X9318Y3065D02*
G03*
X9400Y3250I-168J185D01*
G01*
D02*
G03*
X9482Y3065I250J0D01*
G01*
X9486Y2239D02*
G03*
X9400Y2031I208J-208D01*
G01*
D02*
G03*
X9314Y2239I-294J0D01*
G01*
X3271Y3574D02*
G03*
X3087Y3650I-184J-184D01*
G01*
X11910Y12906D02*
G03*
X11803Y12950I-107J-107D01*
G01*
D02*
G03*
X11910Y12994I0J152D01*
G01*
X11414Y1561D02*
G03*
X11500Y1769I-208J208D01*
G01*
D02*
G03*
X11586Y1561I294J0D01*
G01*
X10714D02*
G03*
X10800Y1769I-208J208D01*
G01*
D02*
G03*
X10886Y1561I294J0D01*
G01*
X10014D02*
G03*
X10100Y1769I-208J208D01*
G01*
D02*
G03*
X10186Y1561I294J0D01*
G01*
X486Y10739D02*
G03*
X400Y10531I208J-208D01*
G01*
D02*
G03*
X314Y10739I-294J0D01*
G01*
Y11561D02*
G03*
X400Y11769I-208J208D01*
G01*
D02*
G03*
X486Y11561I294J0D01*
G01*
X3286Y10739D02*
G03*
X3200Y10531I208J-208D01*
G01*
D02*
G03*
X3114Y10739I-294J0D01*
G01*
Y11561D02*
G03*
X3200Y11769I-208J208D01*
G01*
D02*
G03*
X3286Y11561I294J0D01*
G01*
X1186Y10739D02*
G03*
X1100Y10531I208J-208D01*
G01*
D02*
G03*
X1014Y10739I-294J0D01*
G01*
Y11561D02*
G03*
X1100Y11769I-208J208D01*
G01*
D02*
G03*
X1186Y11561I294J0D01*
G01*
X1886Y10739D02*
G03*
X1800Y10531I208J-208D01*
G01*
D02*
G03*
X1714Y10739I-294J0D01*
G01*
Y11561D02*
G03*
X1800Y11769I-208J208D01*
G01*
D02*
G03*
X1886Y11561I294J0D01*
G01*
X2586Y10739D02*
G03*
X2500Y10531I208J-208D01*
G01*
D02*
G03*
X2414Y10739I-294J0D01*
G01*
Y11561D02*
G03*
X2500Y11769I-208J208D01*
G01*
D02*
G03*
X2586Y11561I294J0D01*
G01*
X3986Y10911D02*
G03*
X4194Y10825I208J208D01*
G01*
D02*
G03*
X3986Y10739I0J-294D01*
G01*
X3814Y11561D02*
G03*
X3900Y11769I-208J208D01*
G01*
D02*
G03*
X3986Y11561I294J0D01*
G01*
X10089Y11836D02*
G03*
X10200Y12104I-268J268D01*
G01*
Y11984D02*
G03*
X10261Y11836I209J0D01*
G01*
X6161Y13364D02*
G03*
X5993Y12957I407J-407D01*
G01*
X8300Y11550D02*
G03*
X8499Y11674I0J222D01*
G01*
X8521Y12186D02*
G03*
X8330Y12265I-191J-191D01*
G01*
D02*
G03*
X8521Y12344I0J270D01*
G01*
X5079Y11814D02*
G03*
X5270Y11735I191J191D01*
G01*
D02*
G03*
X5079Y11656I0J-270D01*
G01*
Y12454D02*
G03*
X5263Y12378I184J184D01*
G01*
X5278D02*
G03*
X5079Y12296I0J-281D01*
G01*
X10279Y12546D02*
G03*
X10200Y12355I191J-191D01*
G01*
D02*
G03*
X10121Y12546I-270J0D01*
G01*
X10279Y12714D02*
G03*
X10470Y12635I191J191D01*
G01*
D02*
G03*
X10279Y12556I0J-270D01*
G01*
X13079Y13344D02*
G03*
X13270Y13265I191J191D01*
G01*
D02*
G03*
X13079Y13186I0J-270D01*
G01*
X14000Y13432D02*
X14518D01*
X14800Y13150D01*
Y11750D02*
Y13150D01*
X6700Y11650D02*
X6800D01*
X6484Y11866D02*
X6700Y11650D01*
X5993Y11866D02*
X6484D01*
X6200Y2850D02*
X6530Y2520D01*
X8600D01*
X3935Y7165D02*
X4656D01*
X2200Y7800D02*
X3300D01*
X3935Y7165D01*
X4000Y6850D02*
X4656D01*
X2545Y6300D02*
X3450D01*
X4000Y6850D01*
X3775Y4025D02*
X4000Y3800D01*
X3775Y4025D02*
Y5225D01*
X4140Y5590D01*
X4656D01*
X4250Y1800D02*
Y3850D01*
X5006Y4606D01*
X5325D01*
X5870Y2520D02*
X6200Y2850D01*
X5020Y2520D02*
X5870D01*
X5020D02*
X5640Y3140D01*
Y4606D01*
X3339Y1000D02*
X3889Y450D01*
X3900D01*
X4200Y4750D02*
Y4819D01*
X4656Y5275D01*
X4000Y2150D02*
Y3800D01*
X3950Y1500D02*
X4250Y1800D01*
X3339Y1500D02*
X3950D01*
X3850Y2000D02*
X4000Y2150D01*
X3339Y2000D02*
X3850D01*
X2600Y3250D02*
X3400D01*
X2500Y3150D02*
X2600Y3250D01*
X2500Y2750D02*
Y3150D01*
X1250Y1500D02*
X2500Y2750D01*
X661Y1500D02*
X1250D01*
X3354Y3650D02*
X3400Y3604D01*
X2500Y3650D02*
X3354D01*
X2200Y3350D02*
X2500Y3650D01*
X2200Y2850D02*
Y3350D01*
X1350Y2000D02*
X2200Y2850D01*
X661Y2000D02*
X1350D01*
X2950Y2500D02*
X3339D01*
X2400Y1950D02*
X2950Y2500D01*
X6800Y7450D02*
X6900Y7350D01*
Y4606D02*
Y7350D01*
X2500Y12150D02*
X2700Y12350D01*
X2500Y11475D02*
Y12150D01*
X400Y12250D02*
X500Y12350D01*
X400Y11475D02*
Y12250D01*
X1800Y13850D02*
X2300Y14350D01*
X1800Y11475D02*
Y13850D01*
X900Y14350D02*
X1300D01*
X700Y14150D02*
X900Y14350D01*
X700Y12950D02*
Y14150D01*
Y12950D02*
X1100Y12550D01*
Y11475D02*
Y12550D01*
X1300Y14350D02*
Y14750D01*
X1500Y14950D01*
X2700D01*
X2800Y14850D01*
Y13150D02*
Y14850D01*
Y13150D02*
X3200Y12750D01*
Y11475D02*
Y12750D01*
X3300Y14350D02*
X3900D01*
X4200Y14050D01*
Y12450D02*
Y14050D01*
X3900Y12150D02*
X4200Y12450D01*
X3900Y11475D02*
Y12150D01*
Y10825D02*
X7678D01*
X8475Y10029D01*
Y9094D02*
Y10029D01*
X7650Y10500D02*
X8160Y9990D01*
Y9094D02*
Y9990D01*
X4650Y10500D02*
X7650D01*
X4300Y10150D02*
X4650Y10500D01*
X3300Y10150D02*
X4300D01*
X3200Y10250D02*
X3300Y10150D01*
X3200Y10250D02*
Y10825D01*
X6218Y9146D02*
Y9739D01*
X5707Y10250D02*
X6218Y9739D01*
Y9146D02*
X6270Y9094D01*
X4893Y10250D02*
X5707D01*
X4543Y9900D02*
X4893Y10250D01*
X2700Y9900D02*
X4543D01*
X2500Y10100D02*
X2700Y9900D01*
X2500Y10100D02*
Y10825D01*
X5903Y9146D02*
Y9700D01*
X5604Y10000D02*
X5903Y9700D01*
Y9146D02*
X5955Y9094D01*
X4996Y10000D02*
X5604D01*
X4646Y9650D02*
X4996Y10000D01*
X1900Y9650D02*
X4646D01*
X1800Y9750D02*
X1900Y9650D01*
X1800Y9750D02*
Y10825D01*
X5100Y9750D02*
X5500D01*
X5640Y9094D02*
Y9610D01*
X5500Y9750D02*
X5640Y9610D01*
X4700Y9350D02*
X5100Y9750D01*
X1300Y9350D02*
X4700D01*
X1100Y9550D02*
X1300Y9350D01*
X1100Y9550D02*
Y10825D01*
X1156Y9094D02*
X5325D01*
X400Y9850D02*
X1156Y9094D01*
X400Y9850D02*
Y10825D01*
X10200Y12635D02*
X10485D01*
X10800Y12950D01*
X12072D01*
X10175Y11750D02*
X10200Y11775D01*
Y12635D01*
X5862Y11735D02*
X5993Y11866D01*
X5000Y11735D02*
X5862D01*
X5000Y12365D02*
X5013Y12378D01*
X5993D01*
X7591Y12650D02*
X7607Y12634D01*
X7200Y12650D02*
X7591D01*
X6672Y12122D02*
X7200Y12650D01*
X5993Y12122D02*
X6672D01*
X5993Y13368D02*
X6075Y13450D01*
X5993Y12634D02*
Y13368D01*
X8515Y11550D02*
X8600Y11635D01*
X8300Y11550D02*
X8515D01*
X7984Y11866D02*
X8300Y11550D01*
X7607Y11866D02*
X7984D01*
X8315Y12265D02*
X8600D01*
X8172Y12122D02*
X8315Y12265D01*
X7607Y12122D02*
X8172D01*
X13833Y13265D02*
X14000Y13432D01*
X13000Y13265D02*
X13833D01*
X12941Y13324D02*
X13000Y13265D01*
X12072Y13324D02*
X12941D01*
X10300Y6850D02*
X10500Y6650D01*
X13300D02*
X13500Y6850D01*
X10500Y6650D02*
X13300D01*
X9144Y6850D02*
X10300D01*
X9144D02*
X9144Y6850D01*
X13500D02*
Y7850D01*
X13000Y8350D02*
X13500Y7850D01*
X12813Y7163D02*
X13000Y7350D01*
X9146Y7163D02*
X12813D01*
X9144Y7165D02*
X9146Y7163D01*
X6100Y7050D02*
Y7650D01*
Y7050D02*
X6585Y6565D01*
Y4606D02*
Y6565D01*
X6270Y4606D02*
Y6080D01*
X5700Y6650D02*
X6270Y6080D01*
X5933Y4628D02*
Y5517D01*
X5600Y5850D02*
X5933Y5517D01*
Y4628D02*
X5955Y4606D01*
X1750Y7350D02*
X2200Y7800D01*
X1850Y5800D02*
X2545D01*
X1750Y5900D02*
Y7350D01*
Y5900D02*
X1850Y5800D01*
X1500Y6550D02*
Y7750D01*
X655Y6300D02*
X1250D01*
X1500Y7750D02*
X1800Y8050D01*
X1250Y6300D02*
X1500Y6550D01*
X4070Y7480D02*
X4656D01*
X3500Y8050D02*
X4070Y7480D01*
X1800Y8050D02*
X3500D01*
X9830Y6220D02*
X12150Y3900D01*
Y3000D02*
Y3900D01*
Y3000D02*
X12515Y2635D01*
X12400Y3104D02*
X12554Y2950D01*
X9869Y6535D02*
X12400Y4004D01*
Y3104D02*
Y4004D01*
X12554Y2950D02*
X13000D01*
X9144Y6535D02*
X9869D01*
X9144Y6220D02*
X9830D01*
X12515Y2635D02*
X13000D01*
X11500Y1475D02*
Y2325D01*
X10800Y1475D02*
Y2325D01*
X10100Y1475D02*
Y2325D01*
X9400Y1475D02*
Y2325D01*
Y2975D02*
Y3250D01*
X9200Y3450D02*
X9400Y3250D01*
X8300Y3450D02*
X9200D01*
X7845Y3905D02*
X8300Y3450D01*
X7845Y3905D02*
Y4606D01*
X10100Y2975D02*
Y3650D01*
X9900Y3850D02*
X10100Y3650D01*
X8400Y3850D02*
X9900D01*
X8160Y4090D02*
X8400Y3850D01*
X8160Y4090D02*
Y4606D01*
X10800Y2975D02*
Y3850D01*
X10500Y4150D02*
X10800Y3850D01*
X9900Y4150D02*
X10500D01*
X9444Y4606D02*
X9900Y4150D01*
X8475Y4606D02*
X9444D01*
X11500Y2975D02*
Y3950D01*
X10900Y4550D02*
X11500Y3950D01*
X9869Y4550D02*
X10900D01*
X9144Y5275D02*
X9869Y4550D01*
D11*
X3250Y6950D02*
G03*
X3144Y7206I-362J0D01*
G01*
D02*
G03*
X3400Y7100I256J256D01*
G01*
X3254Y6985D02*
G03*
X3182Y7154I-149J36D01*
G01*
X3255Y6911D02*
G03*
X2979Y7271I-573J-153D01*
G01*
X7394Y9844D02*
G03*
X7138Y9950I-256J-256D01*
G01*
D02*
G03*
X7394Y10056I0J362D01*
G01*
X7380Y9860D02*
G03*
X7200Y9950I-180J-135D01*
G01*
D02*
G03*
X7380Y10040I0J225D01*
G01*
X7850Y3050D02*
G03*
X7744Y3306I-362J0D01*
G01*
D02*
G03*
X8000Y3200I256J256D01*
G01*
X1894Y5044D02*
G03*
X1638Y5150I-256J-256D01*
G01*
D02*
G03*
X1894Y5256I0J362D01*
G01*
Y4044D02*
G03*
X1638Y4150I-256J-256D01*
G01*
D02*
G03*
X1894Y4256I0J362D01*
G01*
X14138Y7212D02*
G03*
X14000Y6879I333J-333D01*
G01*
D02*
G03*
X13862Y7212I-471J0D01*
G01*
X7181Y3831D02*
G03*
X6982Y3350I481J-481D01*
G01*
X7463Y3412D02*
G03*
X7530Y3572I-161J161D01*
G01*
Y3548D02*
G03*
X7586Y3412I193J0D01*
G01*
X668Y5787D02*
G03*
X585Y5587I200J-200D01*
G01*
X3215Y7135D02*
G03*
X2860Y7282I-356J-356D01*
G01*
X6726Y9676D02*
G03*
X6603Y9380I296J-296D01*
G01*
X13809Y4739D02*
G03*
X14000Y5200I-461J461D01*
G01*
X13668Y4881D02*
G03*
X14000Y5683I-802J802D01*
G01*
Y5417D02*
G03*
X14222Y4881I758J0D01*
G01*
X12700Y2020D02*
G03*
X12824Y2320I-300J300D01*
G01*
X9839Y7480D02*
G03*
X10338Y7687I0J706D01*
G01*
X10400Y8168D02*
G03*
X9972Y7991I0J-605D01*
G01*
X10338Y8336D02*
G03*
X10400Y8485I-149J149D01*
G01*
D02*
G03*
X10462Y8336I210J0D01*
G01*
X1286Y4212D02*
G03*
X1435Y4150I149J149D01*
G01*
D02*
G03*
X1286Y4088I0J-210D01*
G01*
X575Y4063D02*
G03*
X443Y4008I0J-186D01*
G01*
X420Y3985D02*
G03*
X488Y4150I-165J165D01*
G01*
X533Y4212D02*
G03*
X600Y4372I-161J161D01*
G01*
Y4348D02*
G03*
X656Y4212I193J0D01*
G01*
X1286Y5212D02*
G03*
X1435Y5150I149J149D01*
G01*
D02*
G03*
X1286Y5088I0J-210D01*
G01*
X524Y5212D02*
G03*
X585Y5360I-149J149D01*
G01*
D02*
G03*
X647Y5212I210J0D01*
G01*
Y5088D02*
G03*
X585Y4940I149J-149D01*
G01*
D02*
G03*
X524Y5088I-210J0D01*
G01*
X6793Y13518D02*
G03*
X6959Y13450I165J165D01*
G01*
D02*
G03*
X6793Y13382I0J-234D01*
G01*
X12238Y1536D02*
G03*
X12300Y1685I-149J149D01*
G01*
D02*
G03*
X12362Y1536I210J0D01*
G01*
X4938Y12303D02*
G03*
X4790Y12365I-149J-149D01*
G01*
D02*
G03*
X4938Y12426I0J210D01*
G01*
Y12436D02*
G03*
X5000Y12585I-149J149D01*
G01*
D02*
G03*
X5062Y12436I210J0D01*
G01*
X10529Y13324D02*
G03*
X10262Y13213I0J-378D01*
G01*
X12920Y12545D02*
G03*
X13107Y12468I187J187D01*
G01*
X13062Y12687D02*
G03*
X13590Y12468I529J529D01*
G01*
X12519Y12931D02*
G03*
X13000Y12732I481J481D01*
G01*
X13904Y12371D02*
G03*
X13671Y12468I-233J-233D01*
G01*
D02*
G03*
X13904Y12564I0J329D01*
G01*
X10107Y10982D02*
G03*
X9941Y11050I-165J-165D01*
G01*
D02*
G03*
X10107Y11118I0J234D01*
G01*
X10244Y10982D02*
G03*
X10175Y10816I165J-165D01*
G01*
D02*
G03*
X10107Y10982I-234J0D01*
G01*
X1215Y4150D02*
X2000D01*
X1215Y5150D02*
X2000D01*
X7515Y3350D02*
X7700D01*
X8000Y3050D01*
X9129Y7780D02*
X9144Y7795D01*
X8430Y7780D02*
X9129D01*
X7530Y6880D02*
X8430Y7780D01*
X7530Y4606D02*
Y6880D01*
X12300Y1620D02*
Y2150D01*
X12200Y2250D02*
X12300Y2150D01*
X10400Y8265D02*
Y8950D01*
X8200Y11150D02*
X10400Y8950D01*
X4700Y11150D02*
X8200D01*
X4400Y11450D02*
X4700Y11150D01*
X4400Y11450D02*
Y12150D01*
X4615Y12365D01*
X5000D01*
X7000Y9950D02*
X7200D01*
X6585Y9535D02*
X7000Y9950D01*
X6585Y9094D02*
Y9535D01*
X6900Y9094D02*
Y9650D01*
X7200Y9950D01*
X14000Y4659D02*
Y7350D01*
X13945Y4604D02*
X14000Y4659D01*
X9776Y7795D02*
X10246Y8265D01*
X10400D01*
X9144Y7795D02*
X9776D01*
X10245Y7480D02*
X10400Y7635D01*
X9144Y7480D02*
X10245D01*
X6885Y3350D02*
Y3535D01*
X7215Y3865D01*
Y4606D01*
X7515Y3350D02*
X7530Y3365D01*
Y4606D01*
X585Y4765D02*
Y5150D01*
Y4765D02*
X700Y4650D01*
X3000D01*
X600Y4165D02*
Y4550D01*
X585Y4150D02*
X600Y4165D01*
Y4550D02*
X700Y4650D01*
X3000D02*
X3300Y4950D01*
Y5150D01*
X585Y5730D02*
X655Y5800D01*
X585Y5150D02*
Y5730D01*
X300Y3865D02*
X585Y4150D01*
X300Y2861D02*
Y3865D01*
Y2861D02*
X661Y2500D01*
X2545Y7300D02*
X3050D01*
X3400Y6950D01*
X3300Y5150D02*
Y5550D01*
X3655Y5905D01*
X4656D01*
X5000Y12365D02*
Y13050D01*
X13000Y3580D02*
Y4350D01*
X13254Y4604D01*
X13945D01*
X14000Y8350D02*
Y9750D01*
X13300Y10450D02*
X14000Y9750D01*
X10500Y10450D02*
X13300D01*
X10175Y10775D02*
X10500Y10450D01*
X10175Y10775D02*
Y11050D01*
X9200Y13450D02*
X10015D01*
X7400D02*
X9200D01*
X9400Y13250D01*
Y11350D02*
Y13250D01*
Y11350D02*
X9700Y11050D01*
X10175D01*
X6725Y13450D02*
X7400D01*
X7593Y13257D01*
X7607D01*
Y12634D02*
Y13257D01*
X10015Y13450D02*
X10200Y13265D01*
X7607Y12397D02*
Y12634D01*
X10200Y13265D02*
X10259Y13324D01*
X11128D01*
X12072Y12950D02*
X12500D01*
X12815Y12635D01*
X13000D01*
X13167Y12468D01*
X14000D01*
X12300Y1465D02*
Y1620D01*
X13000Y2320D01*
D12*
X11183Y12521D02*
G03*
X11128Y12388I133J-133D01*
G01*
D02*
G03*
X11073Y12521I-188J0D01*
G01*
X12127D02*
G03*
X12072Y12388I133J-133D01*
G01*
D02*
G03*
X12017Y12521I-188J0D01*
G01*
X12003Y11028D02*
G03*
X11770Y11125I-234J-234D01*
G01*
D02*
G03*
X12003Y11222I0J330D01*
G01*
X10922Y11147D02*
G03*
X11155Y11050I234J234D01*
G01*
D02*
G03*
X10922Y10953I0J-330D01*
G01*
X10825Y11050D02*
X11200D01*
X11275Y11125D01*
X12100D01*
X12072Y11802D02*
X12100Y11775D01*
X12072Y11802D02*
Y12576D01*
X10825Y11750D02*
X11128Y12053D01*
Y12576D01*
D13*
X10825Y11050D02*
D03*
X10175D02*
D03*
X6725Y13450D02*
D03*
X6075D02*
D03*
X10825Y11750D02*
D03*
X10175D02*
D03*
D14*
X14000Y12468D02*
D03*
Y13432D02*
D03*
D15*
X13000Y13265D02*
D03*
Y12635D02*
D03*
X10200Y13265D02*
D03*
Y12635D02*
D03*
X5000Y12365D02*
D03*
Y11735D02*
D03*
X8600Y12265D02*
D03*
Y11635D02*
D03*
X12300Y1465D02*
D03*
Y835D02*
D03*
X10400Y8265D02*
D03*
Y7635D02*
D03*
D16*
X12100Y11775D02*
D03*
Y11125D02*
D03*
X3900Y11475D02*
D03*
Y10825D02*
D03*
X2500Y11475D02*
D03*
Y10825D02*
D03*
X1800Y11475D02*
D03*
Y10825D02*
D03*
X1100Y11475D02*
D03*
Y10825D02*
D03*
X3200Y11475D02*
D03*
Y10825D02*
D03*
X400Y11475D02*
D03*
Y10825D02*
D03*
X10100Y1475D02*
D03*
Y825D02*
D03*
X10800Y1475D02*
D03*
Y825D02*
D03*
X11500Y1475D02*
D03*
Y825D02*
D03*
X9400Y2325D02*
D03*
Y2975D02*
D03*
X10100Y2325D02*
D03*
Y2975D02*
D03*
X10800Y2325D02*
D03*
Y2975D02*
D03*
X11500Y2325D02*
D03*
Y2975D02*
D03*
X9400Y1475D02*
D03*
Y825D02*
D03*
D17*
X12072Y12576D02*
D03*
Y12950D02*
D03*
Y13324D02*
D03*
X11128D02*
D03*
Y12576D02*
D03*
D18*
X1235Y3427D02*
D03*
D19*
X3400Y3604D02*
D03*
Y3250D02*
D03*
D20*
X585Y5150D02*
D03*
X1215D02*
D03*
X585Y4150D02*
D03*
X1215D02*
D03*
X7515Y3350D02*
D03*
X6885D02*
D03*
D21*
X13000Y2950D02*
D03*
Y3265D02*
D03*
Y3580D02*
D03*
Y2635D02*
D03*
Y2320D02*
D03*
D22*
X13945Y1296D02*
D03*
Y4604D02*
D03*
D23*
X8600Y750D02*
D03*
Y2520D02*
D03*
X5020Y750D02*
D03*
Y2520D02*
D03*
D24*
X7607Y11866D02*
D03*
Y12122D02*
D03*
Y12378D02*
D03*
Y12634D02*
D03*
X5993Y11866D02*
D03*
Y12122D02*
D03*
Y12378D02*
D03*
Y12634D02*
D03*
D25*
X4656Y8425D02*
D03*
Y8110D02*
D03*
Y7795D02*
D03*
Y7480D02*
D03*
Y7165D02*
D03*
Y6850D02*
D03*
Y6535D02*
D03*
Y6220D02*
D03*
Y5905D02*
D03*
Y5590D02*
D03*
Y5275D02*
D03*
X9144D02*
D03*
Y5590D02*
D03*
Y5905D02*
D03*
Y6220D02*
D03*
Y6535D02*
D03*
Y6850D02*
D03*
Y7165D02*
D03*
Y7480D02*
D03*
Y7795D02*
D03*
Y8110D02*
D03*
Y8425D02*
D03*
D26*
X5325Y4606D02*
D03*
X5640D02*
D03*
X5955D02*
D03*
X6270D02*
D03*
X6585D02*
D03*
X6900D02*
D03*
X7215D02*
D03*
X7530D02*
D03*
X7845D02*
D03*
X8160D02*
D03*
X8475D02*
D03*
Y9094D02*
D03*
X8160D02*
D03*
X7845D02*
D03*
X7530D02*
D03*
X7215D02*
D03*
X6900D02*
D03*
X6585D02*
D03*
X6270D02*
D03*
X5955D02*
D03*
X5640D02*
D03*
X5325D02*
D03*
D27*
X2545Y5800D02*
D03*
Y6300D02*
D03*
Y6800D02*
D03*
Y7300D02*
D03*
X655Y5800D02*
D03*
Y6300D02*
D03*
Y6800D02*
D03*
Y7300D02*
D03*
X661Y2500D02*
D03*
Y2000D02*
D03*
Y1500D02*
D03*
Y1000D02*
D03*
X3339Y2500D02*
D03*
Y2000D02*
D03*
Y1500D02*
D03*
Y1000D02*
D03*
D28*
X13000Y8350D02*
D03*
D29*
X14000D02*
D03*
X13000Y7350D02*
D03*
X14000D02*
D03*
X1300Y13350D02*
D03*
Y14350D02*
D03*
X2300Y13350D02*
D03*
Y14350D02*
D03*
X3300Y13350D02*
D03*
D30*
Y14350D02*
D03*
D31*
X6200Y3700D02*
D03*
X14800Y11750D02*
D03*
X6800Y11650D02*
D03*
X2000Y4150D02*
D03*
Y5150D02*
D03*
X8000Y3050D02*
D03*
X12200Y2250D02*
D03*
X7500Y9950D02*
D03*
X6200Y2850D02*
D03*
X3900Y450D02*
D03*
X4200Y4750D02*
D03*
X2400Y1950D02*
D03*
X6800Y7450D02*
D03*
X3400Y6950D02*
D03*
X3300Y5150D02*
D03*
X5000Y13050D02*
D03*
X2700Y12350D02*
D03*
X500D02*
D03*
X6100Y7650D02*
D03*
X5700Y6650D02*
D03*
X5600Y5850D02*
D03*
M02*
