%FSLAX24Y24*%
%MOIN*%
G70*
G01*
G75*
G04 Layer_Physical_Order=2*
G04 Layer_Color=16711680*
%ADD10C,0.0150*%
%ADD11C,0.0200*%
%ADD12C,0.0120*%
%ADD13R,0.0394X0.0394*%
%ADD14R,0.0472X0.0768*%
%ADD15R,0.0374X0.0394*%
%ADD16R,0.0394X0.0394*%
%ADD17R,0.0512X0.0276*%
G04:AMPARAMS|DCode=18|XSize=94.5mil|YSize=59.1mil|CornerRadius=14.8mil|HoleSize=0mil|Usage=FLASHONLY|Rotation=0.000|XOffset=0mil|YOffset=0mil|HoleType=Round|Shape=RoundedRectangle|*
%AMROUNDEDRECTD18*
21,1,0.0945,0.0295,0,0,0.0*
21,1,0.0650,0.0591,0,0,0.0*
1,1,0.0295,0.0325,-0.0148*
1,1,0.0295,-0.0325,-0.0148*
1,1,0.0295,-0.0325,0.0148*
1,1,0.0295,0.0325,0.0148*
%
%ADD18ROUNDEDRECTD18*%
%ADD19R,0.0433X0.0236*%
%ADD20R,0.0394X0.0374*%
%ADD21R,0.0551X0.0197*%
%ADD22R,0.1496X0.0984*%
G04:AMPARAMS|DCode=23|XSize=83mil|YSize=55mil|CornerRadius=13.8mil|HoleSize=0mil|Usage=FLASHONLY|Rotation=180.000|XOffset=0mil|YOffset=0mil|HoleType=Round|Shape=RoundedRectangle|*
%AMROUNDEDRECTD23*
21,1,0.0830,0.0275,0,0,180.0*
21,1,0.0555,0.0550,0,0,180.0*
1,1,0.0275,-0.0278,0.0138*
1,1,0.0275,0.0278,0.0138*
1,1,0.0275,0.0278,-0.0138*
1,1,0.0275,-0.0278,-0.0138*
%
%ADD23ROUNDEDRECTD23*%
%ADD24O,0.0551X0.0177*%
%ADD25O,0.0807X0.0236*%
%ADD26O,0.0236X0.0807*%
%ADD27O,0.0866X0.0236*%
%ADD28R,0.0591X0.0591*%
%ADD29C,0.0591*%
%ADD30R,0.0591X0.0591*%
%ADD31C,0.0500*%
%ADD32R,0.0591X0.0315*%
%ADD33R,0.0787X0.0571*%
%ADD34R,0.1378X0.0394*%
%ADD35R,0.1339X0.0591*%
%ADD36R,0.0472X0.1260*%
%ADD37R,0.0472X0.0866*%
G36*
X15600Y100D02*
X4097D01*
X4086Y131D01*
X4115Y172D01*
X4600D01*
X4668Y185D01*
X4726Y224D01*
X5226Y724D01*
X5226Y724D01*
X5246Y753D01*
X5265Y782D01*
X5278Y850D01*
X5278Y850D01*
Y3850D01*
X5265Y3918D01*
X5226Y3976D01*
X4541Y4661D01*
X4553Y4750D01*
X4541Y4841D01*
X4506Y4927D01*
X4450Y5000D01*
X4377Y5056D01*
X4291Y5091D01*
X4200Y5103D01*
X4109Y5091D01*
X4023Y5056D01*
X3950Y5000D01*
X3894Y4927D01*
X3859Y4841D01*
X3847Y4750D01*
X3859Y4659D01*
X3894Y4573D01*
X3950Y4500D01*
X4023Y4444D01*
X4109Y4409D01*
X4200Y4397D01*
X4289Y4409D01*
X4922Y3776D01*
Y924D01*
X4526Y528D01*
X4243D01*
X4241Y541D01*
X4206Y627D01*
X4150Y700D01*
X4077Y756D01*
X3991Y791D01*
X3900Y803D01*
X3809Y791D01*
X3723Y756D01*
X3650Y700D01*
X3594Y627D01*
X3559Y541D01*
X3547Y450D01*
X3559Y359D01*
X3594Y273D01*
X3650Y200D01*
X3719Y147D01*
X3703Y100D01*
X100D01*
Y12325D01*
X106Y12325D01*
Y12325D01*
X150Y12328D01*
X159Y12259D01*
X194Y12173D01*
X250Y12100D01*
X323Y12044D01*
X409Y12009D01*
X500Y11997D01*
X591Y12009D01*
X677Y12044D01*
X750Y12100D01*
X804Y12172D01*
X1900D01*
X1968Y12185D01*
X2026Y12224D01*
X2350Y12548D01*
X2392Y12520D01*
X2359Y12441D01*
X2347Y12350D01*
X2359Y12259D01*
X2394Y12173D01*
X2450Y12100D01*
X2523Y12044D01*
X2609Y12009D01*
X2700Y11997D01*
X2791Y12009D01*
X2877Y12044D01*
X2950Y12100D01*
X3006Y12173D01*
X3041Y12259D01*
X3053Y12350D01*
X3041Y12441D01*
X3006Y12527D01*
X2978Y12562D01*
Y12640D01*
X2980Y12652D01*
X2978D01*
Y13003D01*
X2980Y13014D01*
X2978D01*
Y13042D01*
X3023Y13064D01*
X3101Y13005D01*
X3197Y12965D01*
X3300Y12951D01*
X3403Y12965D01*
X3499Y13005D01*
X3582Y13068D01*
X3642Y13146D01*
X4616D01*
X4654Y13107D01*
X4647Y13050D01*
X4659Y12959D01*
X4694Y12873D01*
X4750Y12800D01*
X4796Y12765D01*
Y11334D01*
X3471Y10009D01*
X3427Y9943D01*
X3425Y9937D01*
X3318D01*
D01*
D01*
X3318Y9937D01*
X3282D01*
Y9937D01*
X3035D01*
Y9650D01*
Y9363D01*
X3282D01*
Y9363D01*
X3282D01*
X3282Y9363D01*
X3318D01*
Y9363D01*
X3411D01*
Y9247D01*
X3378D01*
Y8653D01*
X3471D01*
Y7875D01*
X3471Y7875D01*
X3471D01*
X3487Y7797D01*
X3531Y7731D01*
X3956Y7306D01*
X3956D01*
X3956Y7306D01*
X4296Y6966D01*
Y6034D01*
X4201Y5939D01*
X3987D01*
Y6032D01*
D01*
Y6032D01*
X3987Y6032D01*
Y6068D01*
X3987D01*
Y6315D01*
X3413D01*
Y6068D01*
X3413Y6068D01*
X3413Y6032D01*
X3413D01*
Y5736D01*
X3156Y5479D01*
X3146Y5465D01*
X3123Y5456D01*
X3050Y5400D01*
X2994Y5327D01*
X2959Y5241D01*
X2947Y5150D01*
X2959Y5059D01*
X2994Y4973D01*
X3050Y4900D01*
X3123Y4844D01*
X3209Y4809D01*
X3300Y4797D01*
X3391Y4809D01*
X3477Y4844D01*
X3550Y4900D01*
X3606Y4973D01*
X3641Y5059D01*
X3653Y5150D01*
X3641Y5241D01*
X3606Y5327D01*
X3594Y5341D01*
X3692Y5438D01*
X3987D01*
Y5531D01*
X4285D01*
X4363Y5547D01*
X4429Y5591D01*
X4644Y5806D01*
X4688Y5872D01*
X4704Y5950D01*
Y7050D01*
X4688Y7128D01*
X4644Y7194D01*
X4638Y7200D01*
X4658Y7246D01*
X5579D01*
X5786Y7039D01*
X5764Y6995D01*
X5700Y7003D01*
X5609Y6991D01*
X5523Y6956D01*
X5450Y6900D01*
X5394Y6827D01*
X5359Y6741D01*
X5347Y6650D01*
X5359Y6559D01*
X5394Y6473D01*
X5450Y6400D01*
X5523Y6344D01*
X5609Y6309D01*
X5700Y6297D01*
X5789Y6309D01*
X6406Y5692D01*
X6464Y5653D01*
X6532Y5640D01*
X7228D01*
Y5563D01*
X6139D01*
X5941Y5761D01*
X5953Y5850D01*
X5941Y5941D01*
X5906Y6027D01*
X5850Y6100D01*
X5777Y6156D01*
X5691Y6191D01*
X5600Y6203D01*
X5509Y6191D01*
X5423Y6156D01*
X5350Y6100D01*
X5294Y6027D01*
X5259Y5941D01*
X5247Y5850D01*
X5259Y5759D01*
X5294Y5673D01*
X5350Y5600D01*
X5423Y5544D01*
X5509Y5509D01*
X5600Y5497D01*
X5689Y5509D01*
X5939Y5259D01*
X5997Y5220D01*
X6065Y5207D01*
X7228D01*
Y5128D01*
X8019D01*
Y5561D01*
Y5994D01*
Y6201D01*
X7228D01*
Y6076D01*
Y5997D01*
X6606D01*
X6041Y6561D01*
X6053Y6650D01*
X6045Y6714D01*
X6089Y6736D01*
X6285Y6540D01*
X6351Y6496D01*
X6429Y6480D01*
X7228D01*
Y6427D01*
Y6301D01*
X8019D01*
Y6427D01*
Y6860D01*
Y7293D01*
Y7500D01*
X7624D01*
Y7600D01*
X8019D01*
Y7726D01*
Y8159D01*
Y8674D01*
X7228D01*
Y8162D01*
X6433D01*
X6365Y8148D01*
X6307Y8110D01*
X6307Y8110D01*
X6189Y7991D01*
X6100Y8003D01*
X6011Y7991D01*
X4926Y9076D01*
X4868Y9115D01*
X4800Y9128D01*
X4622D01*
Y9247D01*
X4028D01*
Y8653D01*
X4622D01*
Y8772D01*
X4726D01*
X5759Y7739D01*
X5751Y7677D01*
X5710Y7648D01*
X5682Y7654D01*
X4184D01*
X3879Y7959D01*
Y8653D01*
X3972D01*
Y9247D01*
X3819D01*
Y9363D01*
X3912D01*
Y9873D01*
X5000Y10962D01*
X5456Y10506D01*
X5522Y10462D01*
X5600Y10446D01*
X5978D01*
Y10353D01*
X6572D01*
Y10947D01*
X5978D01*
Y10854D01*
X5684D01*
X5204Y11334D01*
Y12765D01*
X5250Y12800D01*
X5306Y12873D01*
X5341Y12959D01*
X5353Y13050D01*
X5341Y13141D01*
X5306Y13227D01*
X5250Y13300D01*
X5177Y13356D01*
X5091Y13391D01*
X5000Y13403D01*
X4943Y13396D01*
X4844Y13494D01*
X4778Y13538D01*
X4700Y13554D01*
X3642D01*
X3582Y13632D01*
X3499Y13695D01*
X3403Y13735D01*
X3300Y13749D01*
X3197Y13735D01*
X3101Y13695D01*
X3023Y13636D01*
X2978Y13658D01*
Y13776D01*
X3157Y13955D01*
X3695D01*
Y14745D01*
X2905D01*
Y14207D01*
X2674Y13976D01*
X2635Y13918D01*
X2622Y13850D01*
Y13658D01*
X2577Y13636D01*
X2499Y13695D01*
X2403Y13735D01*
X2300Y13749D01*
X2197Y13735D01*
X2101Y13695D01*
X2018Y13632D01*
X1955Y13549D01*
X1915Y13453D01*
X1901Y13350D01*
X1915Y13247D01*
X1955Y13151D01*
X2018Y13068D01*
X2101Y13005D01*
X2122Y12996D01*
Y12824D01*
X1826Y12528D01*
X804D01*
X750Y12600D01*
X677Y12656D01*
X591Y12691D01*
X500Y12703D01*
X409Y12691D01*
X323Y12656D01*
X250Y12600D01*
X194Y12527D01*
X159Y12441D01*
X150Y12372D01*
X106Y12375D01*
Y12375D01*
X100Y12375D01*
Y15350D01*
X15600D01*
Y100D01*
D02*
G37*
%LPC*%
G36*
X9818Y4835D02*
X9374D01*
Y4500D01*
X9818D01*
Y4835D01*
D02*
G37*
G36*
X10361D02*
X9918D01*
Y4500D01*
X10361D01*
Y4835D01*
D02*
G37*
G36*
X1950Y5100D02*
X1654D01*
X1659Y5059D01*
X1694Y4973D01*
X1750Y4900D01*
X1823Y4844D01*
X1909Y4809D01*
X1950Y4804D01*
Y5100D01*
D02*
G37*
G36*
X7094Y4835D02*
X6650D01*
Y4500D01*
X7094D01*
Y4835D01*
D02*
G37*
G36*
X2050Y4496D02*
Y4200D01*
X2346D01*
X2341Y4241D01*
X2306Y4327D01*
X2250Y4400D01*
X2177Y4456D01*
X2091Y4491D01*
X2050Y4496D01*
D02*
G37*
G36*
X6550Y4835D02*
X6106D01*
Y4500D01*
X6550D01*
Y4835D01*
D02*
G37*
G36*
X1950Y4496D02*
X1909Y4491D01*
X1823Y4456D01*
X1750Y4400D01*
X1694Y4327D01*
X1659Y4241D01*
X1654Y4200D01*
X1950D01*
Y4496D01*
D02*
G37*
G36*
X2346Y5100D02*
X2050D01*
Y4804D01*
X2091Y4809D01*
X2177Y4844D01*
X2250Y4900D01*
X2306Y4973D01*
X2341Y5059D01*
X2346Y5100D01*
D02*
G37*
G36*
X13950Y7300D02*
X13608D01*
X13615Y7247D01*
X13655Y7151D01*
X13718Y7068D01*
X13801Y7005D01*
X13897Y6965D01*
X13950Y6958D01*
Y7300D01*
D02*
G37*
G36*
X13000Y7749D02*
X12897Y7735D01*
X12801Y7695D01*
X12718Y7632D01*
X12655Y7549D01*
X12615Y7453D01*
X12601Y7350D01*
X12615Y7247D01*
X12655Y7151D01*
X12718Y7068D01*
X12801Y7005D01*
X12897Y6965D01*
X13000Y6951D01*
X13103Y6965D01*
X13199Y7005D01*
X13282Y7068D01*
X13345Y7151D01*
X13385Y7247D01*
X13399Y7350D01*
X13385Y7453D01*
X13345Y7549D01*
X13282Y7632D01*
X13199Y7695D01*
X13103Y7735D01*
X13000Y7749D01*
D02*
G37*
G36*
X3350Y7296D02*
X3309Y7291D01*
X3223Y7256D01*
X3150Y7200D01*
X3094Y7127D01*
X3059Y7041D01*
X3054Y7000D01*
X3350D01*
Y7296D01*
D02*
G37*
G36*
X14392Y7300D02*
X14050D01*
Y6958D01*
X14103Y6965D01*
X14199Y7005D01*
X14282Y7068D01*
X14345Y7151D01*
X14385Y7247D01*
X14392Y7300D01*
D02*
G37*
G36*
X2050Y5496D02*
Y5200D01*
X2346D01*
X2341Y5241D01*
X2306Y5327D01*
X2250Y5400D01*
X2177Y5456D01*
X2091Y5491D01*
X2050Y5496D01*
D02*
G37*
G36*
X1950D02*
X1909Y5491D01*
X1823Y5456D01*
X1750Y5400D01*
X1694Y5327D01*
X1659Y5241D01*
X1654Y5200D01*
X1950D01*
Y5496D01*
D02*
G37*
G36*
X3746Y6900D02*
X3054D01*
X3059Y6859D01*
X3094Y6773D01*
X3150Y6700D01*
X3223Y6644D01*
X3309Y6609D01*
X3400Y6597D01*
X3413Y6586D01*
Y6415D01*
X3987D01*
Y6662D01*
X3677D01*
X3654Y6707D01*
X3706Y6773D01*
X3741Y6859D01*
X3746Y6900D01*
D02*
G37*
G36*
X14000Y8749D02*
X13897Y8735D01*
X13801Y8695D01*
X13718Y8632D01*
X13655Y8549D01*
X13615Y8453D01*
X13601Y8350D01*
X13615Y8247D01*
X13655Y8151D01*
X13718Y8068D01*
X13801Y8005D01*
X13897Y7965D01*
X14000Y7951D01*
X14097Y7964D01*
X14596Y7466D01*
Y6434D01*
X14216Y6054D01*
X13200D01*
X13200Y6054D01*
X13122Y6038D01*
X13056Y5994D01*
X13056Y5994D01*
X12056Y4994D01*
X12012Y4928D01*
X11996Y4850D01*
Y2535D01*
X11950Y2500D01*
X11894Y2427D01*
X11859Y2341D01*
X11847Y2250D01*
X11859Y2159D01*
X11894Y2073D01*
X11950Y2000D01*
X12023Y1944D01*
X12109Y1909D01*
X12200Y1897D01*
X12291Y1909D01*
X12377Y1944D01*
X12450Y2000D01*
X12506Y2073D01*
X12541Y2159D01*
X12553Y2250D01*
X12541Y2341D01*
X12506Y2427D01*
X12450Y2500D01*
X12404Y2535D01*
Y4766D01*
X13284Y5646D01*
X14300D01*
X14378Y5662D01*
X14444Y5706D01*
X14444Y5706D01*
X14444Y5706D01*
X14944Y6206D01*
X14988Y6272D01*
X15004Y6350D01*
X15004Y6350D01*
X15004Y6350D01*
Y6350D01*
Y7550D01*
X14988Y7628D01*
X14944Y7694D01*
X14386Y8253D01*
X14399Y8350D01*
X14385Y8453D01*
X14345Y8549D01*
X14282Y8632D01*
X14199Y8695D01*
X14103Y8735D01*
X14000Y8749D01*
D02*
G37*
G36*
X4707Y2656D02*
X4180D01*
Y2183D01*
X4063D01*
Y1700D01*
X4735D01*
Y2183D01*
X4707D01*
Y2656D01*
D02*
G37*
G36*
X2137Y2380D02*
X1465D01*
Y920D01*
X2137D01*
Y1479D01*
X2168Y1485D01*
X2226Y1524D01*
X2311Y1609D01*
X2400Y1597D01*
X2491Y1609D01*
X2577Y1644D01*
X2650Y1700D01*
X2706Y1773D01*
X2741Y1859D01*
X2753Y1950D01*
X2741Y2041D01*
X2706Y2127D01*
X2650Y2200D01*
X2577Y2256D01*
X2491Y2291D01*
X2400Y2303D01*
X2309Y2291D01*
X2223Y2256D01*
X2182Y2224D01*
X2137Y2246D01*
Y2380D01*
D02*
G37*
G36*
X6200Y3203D02*
X6109Y3191D01*
X6023Y3156D01*
X5950Y3100D01*
X5894Y3027D01*
X5859Y2941D01*
X5847Y2850D01*
X5859Y2759D01*
X5894Y2673D01*
X5950Y2600D01*
X6023Y2544D01*
X6109Y2509D01*
X6113Y2508D01*
Y2462D01*
X6113D01*
Y1868D01*
X6113Y1868D01*
X6113Y1832D01*
X6113D01*
Y1585D01*
X6687D01*
Y1832D01*
D01*
Y1832D01*
X6687Y1832D01*
Y1868D01*
X6687D01*
Y1987D01*
X6803D01*
Y1928D01*
X7397D01*
Y2522D01*
X6803D01*
Y2343D01*
X6687D01*
Y2462D01*
X6578D01*
Y2650D01*
X6578Y2650D01*
X6565Y2718D01*
X6546Y2747D01*
X6540Y2756D01*
X6541Y2759D01*
X6553Y2850D01*
X6541Y2941D01*
X6506Y3027D01*
X6450Y3100D01*
X6377Y3156D01*
X6291Y3191D01*
X6200Y3203D01*
D02*
G37*
G36*
X15502Y4192D02*
X13884D01*
Y1708D01*
X15502D01*
Y4192D01*
D02*
G37*
G36*
X4735Y1600D02*
X4449D01*
Y1117D01*
X4735D01*
Y1600D01*
D02*
G37*
G36*
X4349D02*
X4063D01*
Y1117D01*
X4349D01*
Y1600D01*
D02*
G37*
G36*
X6687Y1485D02*
X6450D01*
Y1238D01*
X6687D01*
Y1485D01*
D02*
G37*
G36*
X6350D02*
X6113D01*
Y1238D01*
X6350D01*
Y1485D01*
D02*
G37*
G36*
X8000Y3403D02*
X7909Y3391D01*
X7823Y3356D01*
X7750Y3300D01*
X7694Y3227D01*
X7659Y3141D01*
X7651Y3079D01*
X7397D01*
Y3172D01*
X6803D01*
Y2578D01*
X7397D01*
Y2671D01*
X7825D01*
X7903Y2686D01*
X7932Y2706D01*
X8000Y2697D01*
X8091Y2709D01*
X8177Y2744D01*
X8250Y2800D01*
X8306Y2873D01*
X8341Y2959D01*
X8353Y3050D01*
X8341Y3141D01*
X8306Y3227D01*
X8250Y3300D01*
X8177Y3356D01*
X8091Y3391D01*
X8000Y3403D01*
D02*
G37*
G36*
X7094Y4400D02*
X6650D01*
Y4054D01*
X7094Y4065D01*
X7094D01*
Y4400D01*
D02*
G37*
G36*
X6550D02*
X6106D01*
Y4079D01*
X6106Y4079D01*
X6106Y4079D01*
X6106Y4065D01*
X6109Y4042D01*
X6109Y4041D01*
X6109Y4041D01*
Y4041D01*
Y4041D01*
X6109D01*
D01*
X6023Y4006D01*
X5950Y3950D01*
X5894Y3877D01*
X5859Y3791D01*
X5854Y3750D01*
X6546D01*
X6541Y3791D01*
X6506Y3877D01*
X6450Y3950D01*
X6383Y4000D01*
X6399Y4048D01*
X6550Y4052D01*
Y4400D01*
D02*
G37*
G36*
X10361D02*
X9918D01*
Y4065D01*
X10361D01*
Y4400D01*
D02*
G37*
G36*
X9818D02*
X9374D01*
Y4065D01*
X9818D01*
Y4400D01*
D02*
G37*
G36*
X6546Y3650D02*
X6250D01*
Y3354D01*
X6291Y3359D01*
X6377Y3394D01*
X6450Y3450D01*
X6506Y3523D01*
X6541Y3609D01*
X6546Y3650D01*
D02*
G37*
G36*
X6150D02*
X5854D01*
X5859Y3609D01*
X5894Y3523D01*
X5950Y3450D01*
X6023Y3394D01*
X6109Y3359D01*
X6150Y3354D01*
Y3650D01*
D02*
G37*
G36*
X2346Y4100D02*
X2050D01*
Y3804D01*
X2091Y3809D01*
X2177Y3844D01*
X2250Y3900D01*
X2306Y3973D01*
X2341Y4059D01*
X2346Y4100D01*
D02*
G37*
G36*
X1950D02*
X1654D01*
X1659Y4059D01*
X1694Y3973D01*
X1750Y3900D01*
X1823Y3844D01*
X1909Y3809D01*
X1950Y3804D01*
Y4100D01*
D02*
G37*
G36*
X3450Y7296D02*
Y7000D01*
X3746D01*
X3741Y7041D01*
X3706Y7127D01*
X3650Y7200D01*
X3577Y7256D01*
X3491Y7291D01*
X3450Y7296D01*
D02*
G37*
G36*
X13815Y12475D02*
X13076D01*
Y12228D01*
X13815D01*
Y12475D01*
D02*
G37*
G36*
X6850Y11996D02*
Y11700D01*
X7146D01*
X7141Y11741D01*
X7106Y11827D01*
X7050Y11900D01*
X6977Y11956D01*
X6891Y11991D01*
X6850Y11996D01*
D02*
G37*
G36*
X13815Y12822D02*
X13076D01*
Y12575D01*
X13815D01*
Y12822D01*
D02*
G37*
G36*
X14654Y12475D02*
X13915D01*
Y12228D01*
X14654D01*
Y12475D01*
D02*
G37*
G36*
X7887Y11562D02*
X7650D01*
Y11315D01*
X7887D01*
Y11562D01*
D02*
G37*
G36*
X7550D02*
X7313D01*
Y11315D01*
X7550D01*
Y11562D01*
D02*
G37*
G36*
X6750Y11996D02*
X6709Y11991D01*
X6623Y11956D01*
X6550Y11900D01*
X6494Y11827D01*
X6459Y11741D01*
X6454Y11700D01*
X6750D01*
Y11996D01*
D02*
G37*
G36*
X14800Y12103D02*
X14709Y12091D01*
X14623Y12056D01*
X14596Y12034D01*
X13076D01*
Y11441D01*
X14632D01*
X14709Y11409D01*
X14800Y11397D01*
X14891Y11409D01*
X14977Y11444D01*
X15050Y11500D01*
X15106Y11573D01*
X15141Y11659D01*
X15153Y11750D01*
X15141Y11841D01*
X15106Y11927D01*
X15050Y12000D01*
X14977Y12056D01*
X14891Y12091D01*
X14800Y12103D01*
D02*
G37*
G36*
X1350Y13742D02*
Y13400D01*
X1692D01*
X1685Y13453D01*
X1645Y13549D01*
X1582Y13632D01*
X1499Y13695D01*
X1403Y13735D01*
X1350Y13742D01*
D02*
G37*
G36*
X1250D02*
X1197Y13735D01*
X1101Y13695D01*
X1018Y13632D01*
X955Y13549D01*
X915Y13453D01*
X908Y13400D01*
X1250D01*
Y13742D01*
D02*
G37*
G36*
X2300Y14749D02*
X2197Y14735D01*
X2101Y14695D01*
X2018Y14632D01*
X1955Y14549D01*
X1915Y14453D01*
X1901Y14350D01*
X1915Y14247D01*
X1955Y14151D01*
X2018Y14068D01*
X2101Y14005D01*
X2197Y13965D01*
X2300Y13951D01*
X2403Y13965D01*
X2499Y14005D01*
X2582Y14068D01*
X2645Y14151D01*
X2685Y14247D01*
X2699Y14350D01*
X2685Y14453D01*
X2645Y14549D01*
X2582Y14632D01*
X2499Y14695D01*
X2403Y14735D01*
X2300Y14749D01*
D02*
G37*
G36*
X1300D02*
X1197Y14735D01*
X1101Y14695D01*
X1018Y14632D01*
X955Y14549D01*
X915Y14453D01*
X901Y14350D01*
X915Y14247D01*
X955Y14151D01*
X1018Y14068D01*
X1101Y14005D01*
X1197Y13965D01*
X1300Y13951D01*
X1403Y13965D01*
X1499Y14005D01*
X1582Y14068D01*
X1645Y14151D01*
X1685Y14247D01*
X1699Y14350D01*
X1685Y14453D01*
X1645Y14549D01*
X1582Y14632D01*
X1499Y14695D01*
X1403Y14735D01*
X1300Y14749D01*
D02*
G37*
G36*
X1250Y13300D02*
X908D01*
X915Y13247D01*
X955Y13151D01*
X1018Y13068D01*
X1101Y13005D01*
X1197Y12965D01*
X1250Y12958D01*
Y13300D01*
D02*
G37*
G36*
X14654Y12822D02*
X13915D01*
Y12575D01*
X14654D01*
Y12822D01*
D02*
G37*
G36*
X12469Y13845D02*
X10931D01*
Y13055D01*
X12469D01*
Y13845D01*
D02*
G37*
G36*
X1692Y13300D02*
X1350D01*
Y12958D01*
X1403Y12965D01*
X1499Y13005D01*
X1582Y13068D01*
X1645Y13151D01*
X1685Y13247D01*
X1692Y13300D01*
D02*
G37*
G36*
X7146Y11600D02*
X6850D01*
Y11304D01*
X6891Y11309D01*
X6977Y11344D01*
X7050Y11400D01*
X7106Y11473D01*
X7141Y11559D01*
X7146Y11600D01*
D02*
G37*
G36*
X7094Y9813D02*
X6650D01*
Y9478D01*
X7094D01*
Y9813D01*
D02*
G37*
G36*
X6550D02*
X6106D01*
Y9478D01*
X6550D01*
Y9813D01*
D02*
G37*
G36*
X10361D02*
X9918D01*
Y9478D01*
X10361D01*
Y9813D01*
D02*
G37*
G36*
X9818D02*
X9374D01*
Y9478D01*
X9818D01*
Y9813D01*
D02*
G37*
G36*
X14050Y7742D02*
Y7400D01*
X14392D01*
X14385Y7453D01*
X14345Y7549D01*
X14282Y7632D01*
X14199Y7695D01*
X14103Y7735D01*
X14050Y7742D01*
D02*
G37*
G36*
X13950D02*
X13897Y7735D01*
X13801Y7695D01*
X13718Y7632D01*
X13655Y7549D01*
X13615Y7453D01*
X13608Y7400D01*
X13950D01*
Y7742D01*
D02*
G37*
G36*
X2935Y9600D02*
X2688D01*
Y9363D01*
X2935D01*
Y9600D01*
D02*
G37*
G36*
X13395Y8745D02*
X12605D01*
Y7955D01*
X13395D01*
Y8745D01*
D02*
G37*
G36*
X12469Y11207D02*
X10931D01*
Y10417D01*
X12469D01*
Y11207D01*
D02*
G37*
G36*
X10361Y10249D02*
X9918D01*
Y9913D01*
X10361D01*
Y10249D01*
D02*
G37*
G36*
X6750Y11600D02*
X6454D01*
X6459Y11559D01*
X6494Y11473D01*
X6550Y11400D01*
X6623Y11344D01*
X6709Y11309D01*
X6750Y11304D01*
Y11600D01*
D02*
G37*
G36*
X7887Y11215D02*
X7313D01*
Y10968D01*
X7313Y10968D01*
X7313Y10932D01*
X7313D01*
Y10854D01*
X7222D01*
Y10947D01*
X6628D01*
Y10353D01*
X7222D01*
Y10446D01*
X7313D01*
Y10338D01*
X7396D01*
Y10286D01*
X7323Y10256D01*
X7250Y10200D01*
X7194Y10127D01*
X7159Y10041D01*
X7147Y9950D01*
X7159Y9859D01*
X7194Y9773D01*
X7250Y9700D01*
X7323Y9644D01*
X7409Y9609D01*
X7500Y9597D01*
X7591Y9609D01*
X7677Y9644D01*
X7750Y9700D01*
X7806Y9773D01*
X7841Y9859D01*
X7853Y9950D01*
X7841Y10041D01*
X7806Y10127D01*
X7804Y10129D01*
Y10338D01*
X7887D01*
Y10932D01*
D01*
Y10932D01*
X7887Y10932D01*
Y10968D01*
X7887D01*
Y11215D01*
D02*
G37*
G36*
X6550Y10249D02*
X6106D01*
Y9913D01*
X6550D01*
Y10249D01*
D02*
G37*
G36*
X2935Y9937D02*
X2688D01*
Y9700D01*
X2935D01*
Y9937D01*
D02*
G37*
G36*
X9818Y10249D02*
X9374D01*
Y9913D01*
X9818D01*
Y10249D01*
D02*
G37*
G36*
X7094D02*
X6650D01*
Y9913D01*
X7094D01*
Y10249D01*
D02*
G37*
%LPD*%
G36*
X4477Y2426D02*
X4557D01*
Y2359D01*
X4477D01*
Y2279D01*
X4410D01*
Y2359D01*
X4330D01*
Y2426D01*
X4410D01*
Y2506D01*
X4477D01*
Y2426D01*
D02*
G37*
D10*
X2682Y12368D02*
G03*
X2800Y12652I-284J284D01*
G01*
X2576Y12474D02*
G03*
X2800Y13014I-540J540D01*
G01*
X6975Y7450D02*
G03*
X7099Y7151I422J0D01*
G01*
X7099Y7151D02*
G03*
X6800Y7275I-299J-299D01*
G01*
X6975Y11650D02*
G03*
X7099Y11351I422J0D01*
G01*
X7099Y11351D02*
G03*
X6800Y11475I-299J-299D01*
G01*
X14646Y11668D02*
G03*
X14548Y11710I-75J-40D01*
G01*
X14548Y11710D02*
G03*
X14630Y11793I-30J111D01*
G01*
X14676Y11626D02*
G03*
X14408Y11737I-268J-268D01*
G01*
X14347D02*
G03*
X14676Y11874I0J465D01*
G01*
X1935Y1739D02*
G03*
X2100Y1650I165J108D01*
G01*
D02*
G03*
X1935Y1561I0J-197D01*
G01*
X6479Y2244D02*
G03*
X6670Y2165I191J191D01*
G01*
D02*
G03*
X6479Y2086I0J-270D01*
G01*
X6321Y2254D02*
G03*
X6400Y2445I-191J191D01*
G01*
D02*
G03*
X6479Y2254I270J0D01*
G01*
X7521Y11186D02*
G03*
X7330Y11265I-191J-191D01*
G01*
D02*
G03*
X7521Y11344I0J270D01*
G01*
X14444Y11824D02*
G03*
X14652Y11737I208J208D01*
G01*
D02*
G03*
X14444Y11651I0J-294D01*
G01*
X7427Y5327D02*
G03*
X7287Y5385I-141J-141D01*
G01*
D02*
G03*
X7427Y5443I0J199D01*
G01*
Y5760D02*
G03*
X7287Y5818I-141J-141D01*
G01*
D02*
G03*
X7427Y5876I0J199D01*
G01*
Y7059D02*
G03*
X7287Y7117I-141J-141D01*
G01*
D02*
G03*
X7427Y7176I0J199D01*
G01*
Y7925D02*
G03*
X7287Y7983I-141J-141D01*
G01*
D02*
G03*
X7427Y8042I0J199D01*
G01*
X4411Y9036D02*
G03*
X4619Y8950I208J208D01*
G01*
D02*
G03*
X4411Y8864I0J-294D01*
G01*
X14787Y11737D02*
X14800Y11750D01*
X13865Y11737D02*
X14787D01*
X7185Y11265D02*
X7600D01*
X6800Y11650D02*
X7185Y11265D01*
X7040Y2165D02*
X7100Y2225D01*
X6400Y2165D02*
X7040D01*
X6400D02*
Y2650D01*
X6200Y2850D02*
X6400Y2650D01*
X3900Y450D02*
X4000Y350D01*
X4600D01*
X5100Y850D01*
Y3850D01*
X4200Y4750D02*
X5100Y3850D01*
X4325Y8950D02*
X4800D01*
X6100Y7650D01*
X2100Y1650D02*
X2400Y1950D01*
X1801Y1650D02*
X2100D01*
X6800Y7450D02*
X7133Y7117D01*
X7624D01*
X2700Y12350D02*
X2800Y12450D01*
Y13850D01*
X3300Y14350D01*
X2300Y12750D02*
Y13350D01*
X1900Y12350D02*
X2300Y12750D01*
X500Y12350D02*
X1900D01*
X6433Y7983D02*
X7624D01*
X6100Y7650D02*
X6433Y7983D01*
X5700Y6650D02*
X6532Y5818D01*
X7624D01*
X5600Y5850D02*
X6065Y5385D01*
X7624D01*
D11*
X3545Y6911D02*
G03*
X3581Y6636I350J-94D01*
G01*
X3581Y6636D02*
G03*
X3361Y6805I-314J-181D01*
G01*
X3550Y6950D02*
G03*
X3656Y6694I362J0D01*
G01*
D02*
G03*
X3400Y6800I-256J-256D01*
G01*
X3676Y9588D02*
G03*
X3615Y9440I149J-149D01*
G01*
D02*
G03*
X3553Y9588I-210J0D01*
G01*
Y9712D02*
G03*
X3615Y9860I-149J149D01*
G01*
D02*
G03*
X3676Y9712I210J0D01*
G01*
X3813Y6367D02*
G03*
X3711Y6639I-350J24D01*
G01*
X3613Y6381D02*
G03*
X3400Y6950I-732J50D01*
G01*
X3638Y6436D02*
G03*
X3700Y6585I-149J149D01*
G01*
D02*
G03*
X3762Y6436I210J0D01*
G01*
Y5797D02*
G03*
X3910Y5735I149J149D01*
G01*
D02*
G03*
X3762Y5674I0J-210D01*
G01*
X7538Y10583D02*
G03*
X7378Y10650I-161J-161D01*
G01*
X7402D02*
G03*
X7538Y10706I0J193D01*
G01*
X7662Y10564D02*
G03*
X7600Y10415I149J-149D01*
G01*
D02*
G03*
X7538Y10564I-210J0D01*
G01*
X6207Y10582D02*
G03*
X6041Y10650I-165J-165D01*
G01*
D02*
G03*
X6207Y10718I0J234D01*
G01*
X6993D02*
G03*
X7159Y10650I165J165D01*
G01*
D02*
G03*
X6993Y10582I0J-234D01*
G01*
X7168Y2943D02*
G03*
X7334Y2875I165J165D01*
G01*
D02*
G03*
X7168Y2806I0J-234D01*
G01*
X3744Y8882D02*
G03*
X3675Y8716I165J-165D01*
G01*
D02*
G03*
X3607Y8882I-234J0D01*
G01*
X7825Y2875D02*
X8000Y3050D01*
X7100Y2875D02*
X7825D01*
X4100Y7450D02*
X5682D01*
X6429Y6684D02*
X7624D01*
X5682Y7432D02*
X6429Y6684D01*
X12200Y2350D02*
Y4850D01*
X7500Y9950D02*
X7600Y10050D01*
Y10635D01*
X7585Y10650D02*
X7600Y10635D01*
X6925Y10650D02*
X7585D01*
X5600D02*
X6275D01*
X5000Y11250D02*
X5600Y10650D01*
X3615Y9010D02*
X3675Y8950D01*
X3615Y9010D02*
Y9650D01*
X4100Y7450D02*
X4500Y7050D01*
X3675Y7875D02*
X4100Y7450D01*
X3675Y7875D02*
Y8950D01*
X4500Y5950D02*
Y7050D01*
X5000Y11250D02*
Y13050D01*
X3615Y9650D02*
Y9865D01*
X5000Y11250D01*
X3700Y5735D02*
X4285D01*
X4500Y5950D01*
X3400Y6950D02*
X3700Y6650D01*
Y6365D02*
Y6650D01*
X3300Y5335D02*
X3700Y5735D01*
X3300Y5150D02*
Y5335D01*
X4700Y13350D02*
X5000Y13050D01*
X3300Y13350D02*
X4700D01*
X14000Y8350D02*
X14800Y7550D01*
Y6350D02*
Y7550D01*
X14300Y5850D02*
X14800Y6350D01*
X13200Y5850D02*
X14300D01*
X12200Y4850D02*
X13200Y5850D01*
D13*
X3675Y8950D02*
D03*
X4325D02*
D03*
X6925Y10650D02*
D03*
X6275D02*
D03*
D15*
X7600Y10635D02*
D03*
Y11265D02*
D03*
X3700Y5735D02*
D03*
Y6365D02*
D03*
X6400Y1535D02*
D03*
Y2165D02*
D03*
D16*
X7100Y2875D02*
D03*
Y2225D02*
D03*
D20*
X2985Y9650D02*
D03*
X3615D02*
D03*
D28*
X13000Y8350D02*
D03*
D29*
X14000D02*
D03*
X13000Y7350D02*
D03*
X14000D02*
D03*
X1300Y13350D02*
D03*
Y14350D02*
D03*
X2300Y13350D02*
D03*
Y14350D02*
D03*
X3300Y13350D02*
D03*
D30*
Y14350D02*
D03*
D31*
X6200Y3700D02*
D03*
X14800Y11750D02*
D03*
X6800Y11650D02*
D03*
X2000Y4150D02*
D03*
Y5150D02*
D03*
X8000Y3050D02*
D03*
X12200Y2250D02*
D03*
X7500Y9950D02*
D03*
X6200Y2850D02*
D03*
X3900Y450D02*
D03*
X4200Y4750D02*
D03*
X2400Y1950D02*
D03*
X6800Y7450D02*
D03*
X3400Y6950D02*
D03*
X3300Y5150D02*
D03*
X5000Y13050D02*
D03*
X2700Y12350D02*
D03*
X500D02*
D03*
X6100Y7650D02*
D03*
X5700Y6650D02*
D03*
X5600Y5850D02*
D03*
D32*
X7624Y8417D02*
D03*
Y7983D02*
D03*
Y7550D02*
D03*
Y7117D02*
D03*
Y6684D02*
D03*
Y6251D02*
D03*
Y5818D02*
D03*
Y5385D02*
D03*
D33*
X9868Y9863D02*
D03*
Y4450D02*
D03*
X6600D02*
D03*
Y9863D02*
D03*
D34*
X13865Y11737D02*
D03*
Y12525D02*
D03*
D35*
X11700Y10812D02*
D03*
Y13450D02*
D03*
D36*
X1801Y1650D02*
D03*
D37*
X4399D02*
D03*
M02*
