%FSLAX24Y24*%
%MOIN*%
G70*
G01*
G75*
G04 Layer_Color=16711935*
%ADD10C,0.0150*%
%ADD11C,0.0200*%
%ADD12C,0.0120*%
%ADD13R,0.0394X0.0394*%
%ADD14R,0.0472X0.0768*%
%ADD15R,0.0374X0.0394*%
%ADD16R,0.0394X0.0394*%
%ADD17R,0.0512X0.0276*%
G04:AMPARAMS|DCode=18|XSize=94.5mil|YSize=59.1mil|CornerRadius=14.8mil|HoleSize=0mil|Usage=FLASHONLY|Rotation=0.000|XOffset=0mil|YOffset=0mil|HoleType=Round|Shape=RoundedRectangle|*
%AMROUNDEDRECTD18*
21,1,0.0945,0.0295,0,0,0.0*
21,1,0.0650,0.0591,0,0,0.0*
1,1,0.0295,0.0325,-0.0148*
1,1,0.0295,-0.0325,-0.0148*
1,1,0.0295,-0.0325,0.0148*
1,1,0.0295,0.0325,0.0148*
%
%ADD18ROUNDEDRECTD18*%
%ADD19R,0.0433X0.0236*%
%ADD20R,0.0394X0.0374*%
%ADD21R,0.0551X0.0197*%
%ADD22R,0.1496X0.0984*%
G04:AMPARAMS|DCode=23|XSize=83mil|YSize=55mil|CornerRadius=13.8mil|HoleSize=0mil|Usage=FLASHONLY|Rotation=180.000|XOffset=0mil|YOffset=0mil|HoleType=Round|Shape=RoundedRectangle|*
%AMROUNDEDRECTD23*
21,1,0.0830,0.0275,0,0,180.0*
21,1,0.0555,0.0550,0,0,180.0*
1,1,0.0275,-0.0278,0.0138*
1,1,0.0275,0.0278,0.0138*
1,1,0.0275,0.0278,-0.0138*
1,1,0.0275,-0.0278,-0.0138*
%
%ADD23ROUNDEDRECTD23*%
%ADD24O,0.0551X0.0177*%
%ADD25O,0.0807X0.0236*%
%ADD26O,0.0236X0.0807*%
%ADD27O,0.0866X0.0236*%
%ADD28R,0.0591X0.0591*%
%ADD29C,0.0591*%
%ADD30R,0.0591X0.0591*%
%ADD31C,0.0500*%
%ADD32R,0.0591X0.0315*%
%ADD33R,0.0787X0.0571*%
%ADD34R,0.1378X0.0394*%
%ADD35R,0.1339X0.0591*%
%ADD36R,0.0472X0.1260*%
%ADD37R,0.0472X0.0866*%
%ADD38C,0.0039*%
%ADD39C,0.0098*%
%ADD40C,0.0100*%
%ADD41C,0.0236*%
%ADD42C,0.0079*%
%ADD43C,0.0010*%
%ADD44R,0.0474X0.0474*%
%ADD45R,0.0552X0.0848*%
%ADD46R,0.0454X0.0474*%
%ADD47R,0.0474X0.0474*%
%ADD48R,0.0592X0.0356*%
G04:AMPARAMS|DCode=49|XSize=102.5mil|YSize=67.1mil|CornerRadius=18.8mil|HoleSize=0mil|Usage=FLASHONLY|Rotation=0.000|XOffset=0mil|YOffset=0mil|HoleType=Round|Shape=RoundedRectangle|*
%AMROUNDEDRECTD49*
21,1,0.1025,0.0295,0,0,0.0*
21,1,0.0650,0.0671,0,0,0.0*
1,1,0.0375,0.0325,-0.0148*
1,1,0.0375,-0.0325,-0.0148*
1,1,0.0375,-0.0325,0.0148*
1,1,0.0375,0.0325,0.0148*
%
%ADD49ROUNDEDRECTD49*%
%ADD50R,0.0513X0.0316*%
%ADD51R,0.0474X0.0454*%
%ADD52R,0.0631X0.0277*%
%ADD53R,0.1576X0.1064*%
G04:AMPARAMS|DCode=54|XSize=91mil|YSize=63mil|CornerRadius=17.8mil|HoleSize=0mil|Usage=FLASHONLY|Rotation=180.000|XOffset=0mil|YOffset=0mil|HoleType=Round|Shape=RoundedRectangle|*
%AMROUNDEDRECTD54*
21,1,0.0910,0.0275,0,0,180.0*
21,1,0.0555,0.0630,0,0,180.0*
1,1,0.0355,-0.0278,0.0138*
1,1,0.0355,0.0278,0.0138*
1,1,0.0355,0.0278,-0.0138*
1,1,0.0355,-0.0278,-0.0138*
%
%ADD54ROUNDEDRECTD54*%
%ADD55O,0.0631X0.0257*%
%ADD56O,0.0887X0.0316*%
%ADD57O,0.0316X0.0887*%
%ADD58O,0.0946X0.0316*%
%ADD59R,0.0671X0.0671*%
%ADD60C,0.0671*%
%ADD61R,0.0671X0.0671*%
%ADD62R,0.0671X0.0395*%
%ADD63R,0.0867X0.0651*%
%ADD64R,0.1458X0.0474*%
%ADD65R,0.1419X0.0671*%
%ADD66R,0.0552X0.1340*%
%ADD67R,0.0552X0.0946*%
D44*
X3675Y8950D02*
D03*
X4325D02*
D03*
X6925Y10650D02*
D03*
X6275D02*
D03*
D46*
X7600Y10635D02*
D03*
Y11265D02*
D03*
X3700Y5735D02*
D03*
Y6365D02*
D03*
X6400Y1535D02*
D03*
Y2165D02*
D03*
D47*
X7100Y2875D02*
D03*
Y2225D02*
D03*
D51*
X2985Y9650D02*
D03*
X3615D02*
D03*
D59*
X13000Y8350D02*
D03*
D60*
X14000D02*
D03*
X13000Y7350D02*
D03*
X14000D02*
D03*
X1300Y13350D02*
D03*
Y14350D02*
D03*
X2300Y13350D02*
D03*
Y14350D02*
D03*
X3300Y13350D02*
D03*
D61*
Y14350D02*
D03*
D62*
X7624Y8417D02*
D03*
Y7983D02*
D03*
Y7550D02*
D03*
Y7117D02*
D03*
Y6684D02*
D03*
Y6251D02*
D03*
Y5818D02*
D03*
Y5385D02*
D03*
D63*
X9868Y9863D02*
D03*
Y4450D02*
D03*
X6600D02*
D03*
Y9863D02*
D03*
D64*
X13865Y11737D02*
D03*
Y12525D02*
D03*
D65*
X11700Y10812D02*
D03*
Y13450D02*
D03*
D66*
X1801Y1650D02*
D03*
D67*
X4399D02*
D03*
M02*
