M48
;Layer_Color=9474304
;FILE_FORMAT=2:4
INCH,TZ
;TYPE=PLATED
T1F00S00C0.0280
T2F00S00C0.0354
;TYPE=NON_PLATED
%
T01
X2400Y1950
X2000Y4150
Y5150
X3300
X4200Y4750
X5600Y5850
X5700Y6650
X6100Y7650
X6800Y7450
X7500Y9950
X6800Y11650
X5000Y13050
X2700Y12350
X3400Y6950
X6200Y3700
Y2850
X8000Y3050
X12200Y2250
X3900Y450
X14800Y11750
X500Y12350
T02
X2300Y13350
X3300
X13000Y8350
Y7350
X14000
Y8350
X1300Y13350
Y14350
X2300
X3300
M30
